<?xml version="1.0" standalone="no"?>
 <!DOCTYPE svg PUBLIC "-//W3C//DTD SVG 1.1//EN" 
 "http://www.w3.org/Graphics/SVG/1.1/DTD/svg11.dtd"> 
<svg xmlns="http://www.w3.org/2000/svg" version="1.1" 
    width="5.0419cm" height="12.8676cm" viewBox="0 0 19850 50660 ">
<title>SVG Picture created as uScaleII_BnG_Panel-brd.svg date 2019/09/25 19:09:15 </title>
  <desc>Picture generated by PCBNEW </desc>
<g style="fill:#000000; fill-opacity:1;stroke:#000000; stroke-opacity:1;
stroke-linecap:round; stroke-linejoin:round; "
 transform="translate(0 0) scale(1 1)">
</g>
<g style="fill:#000000; fill-opacity:0.0; 
stroke:#000000; stroke-width:-0.000393701; stroke-opacity:1; 
stroke-linecap:round; stroke-linejoin:round;">
</g>
<g style="fill:#C25106; fill-opacity:0.0; 
stroke:#C25106; stroke-width:-0.000393701; stroke-opacity:1; 
stroke-linecap:round; stroke-linejoin:round;">
</g>
<g style="fill:#C25106; fill-opacity:0.0; 
stroke:#C25106; stroke-width:118.11; stroke-opacity:1; 
stroke-linecap:round; stroke-linejoin:round;">
<path d="M15095 4443
L15067 4471
L14983 4499
L14926 4499
L14842 4471
L14786 4415
L14758 4358
L14730 4246
L14730 4161
L14758 4049
L14786 3993
L14842 3937
L14926 3908
L14983 3908
L15067 3937
L15095 3965
" />
<path d="M15433 4499
L15376 4471
L15348 4443
L15320 4386
L15320 4218
L15348 4161
L15376 4133
L15433 4105
L15517 4105
L15573 4133
L15601 4161
L15629 4218
L15629 4386
L15601 4443
L15573 4471
L15517 4499
L15433 4499
" />
<path d="M16136 4105
L16136 4499
" />
<path d="M15883 4105
L15883 4415
L15911 4471
L15967 4499
L16051 4499
L16107 4471
L16136 4443
" />
<path d="M16417 4105
L16417 4499
" />
<path d="M16417 4161
L16445 4133
L16501 4105
L16586 4105
L16642 4133
L16670 4190
L16670 4499
" />
<path d="M16867 4105
L17092 4105
" />
<path d="M16951 3908
L16951 4415
L16979 4471
L17035 4499
L17092 4499
" />
<path d="M17514 4471
L17457 4499
L17345 4499
L17289 4471
L17260 4415
L17260 4190
L17289 4133
L17345 4105
L17457 4105
L17514 4133
L17542 4190
L17542 4246
L17260 4302
" />
<path d="M17795 4499
L17795 4105
" />
<path d="M17795 4218
L17823 4161
L17851 4133
L17907 4105
L17964 4105
" />
<path d="M18132 4471
L18188 4499
L18301 4499
L18357 4471
L18385 4415
L18385 4386
L18357 4330
L18301 4302
L18217 4302
L18160 4274
L18132 4218
L18132 4190
L18160 4133
L18217 4105
L18301 4105
L18357 4133
" />
<path d="M18638 4499
L18638 4105
" />
<path d="M18638 3908
L18610 3937
L18638 3965
L18667 3937
L18638 3908
L18638 3965
" />
<path d="M18920 4105
L18920 4499
" />
<path d="M18920 4161
L18948 4133
L19004 4105
L19088 4105
L19145 4133
L19173 4190
L19173 4499
" />
<path d="M19454 4499
L19454 3908
" />
<path d="M19510 4274
L19679 4499
" />
<path d="M19679 4105
L19454 4330
" />
</g>
<g style="fill:#C25106; fill-opacity:0.0; 
stroke:#C25106; stroke-width:78.7402; stroke-opacity:1; 
stroke-linecap:round; stroke-linejoin:round;">
<path d="M6279 4271
L14409 4271
" />
<circle cx="6279.53" cy="5255.91" r="984.252" /> 
<circle cx="9074.8" cy="44527.6" r="1240.16" /> 
<circle cx="2795.28" cy="44527.6" r="1240.16" /> 
<circle cx="9074.8" cy="39035.4" r="1240.16" /> 
<circle cx="2795.28" cy="39035.4" r="1240.16" /> 
<path d="M9507 34744
L11122 34744
" />
<path d="M9507 32381
L9507 34744
" />
<path d="M11122 32381
L9507 32381
" />
<path d="M11122 34744
L11122 32381
" />
<circle cx="1230.32" cy="35482.3" r="620.079" /> 
<circle cx="3572.84" cy="35462.6" r="1072.83" /> 
<circle cx="1230.32" cy="32785.4" r="620.079" /> 
<circle cx="3572.84" cy="32765.7" r="1072.83" /> 
<circle cx="1230.32" cy="29990.2" r="620.079" /> 
<circle cx="3572.84" cy="29970.5" r="1072.83" /> 
<circle cx="1230.32" cy="27234.3" r="620.079" /> 
<circle cx="3572.84" cy="27214.6" r="1072.83" /> 
<circle cx="1230.32" cy="24478.3" r="620.079" /> 
<circle cx="3572.84" cy="24458.7" r="1072.83" /> 
<circle cx="1230.32" cy="21722.4" r="620.079" /> 
<circle cx="3572.84" cy="21702.8" r="1072.83" /> 
<circle cx="1230.32" cy="18946.9" r="620.079" /> 
<circle cx="3572.84" cy="18927.2" r="1072.83" /> 
<circle cx="1230.32" cy="16230.3" r="620.079" /> 
<circle cx="3572.84" cy="16210.6" r="1072.83" /> 
<circle cx="1230.32" cy="13494.1" r="620.079" /> 
<circle cx="3572.84" cy="13474.4" r="1072.83" /> 
<circle cx="1230.32" cy="10738.2" r="620.079" /> 
<circle cx="3572.84" cy="10718.5" r="1072.83" /> 
<circle cx="1230.32" cy="8001.97" r="620.079" /> 
<circle cx="3572.84" cy="7982.28" r="1072.83" /> 
<circle cx="6279.53" cy="5255.91" r="610.236" /> 
<circle cx="1230.32" cy="5265.75" r="620.079" /> 
<circle cx="3572.84" cy="5246.06" r="1072.83" /> 
<path d="M39 50629
L39 39
" />
<path d="M11850 50629
L39 50629
" />
<path d="M11850 39
L11850 50629
" />
<path d="M39 39
L11850 39
" />
</g> 
</svg>
