<?xml version="1.0" standalone="no"?>
 <!DOCTYPE svg PUBLIC "-//W3C//DTD SVG 1.1//EN" 
 "http://www.w3.org/Graphics/SVG/1.1/DTD/svg11.dtd"> 
<svg xmlns="http://www.w3.org/2000/svg" version="1.1" 
    width="2.51968cm" height="12.8676cm" viewBox="0 0 9920 50660 ">
<title>SVG Picture created as Cinnamon_BnG_Panel-brd.svg date 2019/05/07 20:21:05 </title>
  <desc>Picture generated by PCBNEW </desc>
<g style="fill:#000000; fill-opacity:1;stroke:#000000; stroke-opacity:1;
stroke-linecap:round; stroke-linejoin:round; "
 transform="translate(0 0) scale(1 1)">
</g>
<g style="fill:#000000; fill-opacity:0.0; 
stroke:#000000; stroke-width:-0.000393701; stroke-opacity:1; 
stroke-linecap:round; stroke-linejoin:round;">
</g>
<g style="fill:#C25106; fill-opacity:0.0; 
stroke:#C25106; stroke-width:-0.000393701; stroke-opacity:1; 
stroke-linecap:round; stroke-linejoin:round;">
</g>
<g style="fill:#C25106; fill-opacity:0.0; 
stroke:#C25106; stroke-width:78.7402; stroke-opacity:1; 
stroke-linecap:round; stroke-linejoin:round;">
<circle cx="7283.46" cy="43503.9" r="1259.84" /> 
<circle cx="2637.8" cy="43503.9" r="1259.84" /> 
<circle cx="7283.46" cy="39133.9" r="1259.84" /> 
<circle cx="2637.8" cy="39133.9" r="1259.84" /> 
<circle cx="7283.46" cy="34763.8" r="1259.84" /> 
<path d="M905 26732
L2125 26732
" />
<path d="M905 26732
L905 24330
" />
<path d="M2125 24330
L905 24330
" />
<path d="M2125 24330
L2125 26732
" />
<path d="M905 19133
L2125 19133
" />
<path d="M905 19133
L905 16732
" />
<path d="M2125 16732
L905 16732
" />
<path d="M2125 16732
L2125 19133
" />
<circle cx="2637.8" cy="34763.8" r="1259.84" /> 
<path d="M905 11535
L2125 11535
" />
<path d="M905 11535
L905 9133
" />
<path d="M2125 9133
L905 9133
" />
<path d="M2125 9133
L2125 11535
" />
<circle cx="4960.63" cy="29015.7" r="1338.58" /> 
<circle cx="4960.63" cy="21417.3" r="1338.58" /> 
<circle cx="4960.63" cy="13818.9" r="1338.58" /> 
<circle cx="4960.63" cy="6181.1" r="1338.58" /> 
<path d="M39 50629
L39 39
" />
<path d="M9881 50629
L39 50629
" />
<path d="M9881 39
L9881 50629
" />
<path d="M39 39
L9881 39
" />
</g> 
</svg>
