<?xml version="1.0" standalone="no"?>
 <!DOCTYPE svg PUBLIC "-//W3C//DTD SVG 1.1//EN" 
 "http://www.w3.org/Graphics/SVG/1.1/DTD/svg11.dtd"> 
<svg xmlns="http://www.w3.org/2000/svg" version="1.1" 
    width="21.143cm" height="14.6406cm" viewBox="0 0 83240 57640 ">
<title>SVG Picture created as Cinnamon_BnG_Panel-brd.svg date 2019/05/07 20:07:29 </title>
  <desc>Picture generated by PCBNEW </desc>
<g style="fill:#000000; fill-opacity:1;stroke:#000000; stroke-opacity:1;
stroke-linecap:round; stroke-linejoin:round; "
 transform="translate(0 0) scale(1 1)">
</g>
<g style="fill:#000000; fill-opacity:0.0; 
stroke:#000000; stroke-width:-0.000393701; stroke-opacity:1; 
stroke-linecap:round; stroke-linejoin:round;">
</g>
<g style="fill:#C25106; fill-opacity:0.0; 
stroke:#C25106; stroke-width:-0.000393701; stroke-opacity:1; 
stroke-linecap:round; stroke-linejoin:round;">
</g>
<g style="fill:#C25106; fill-opacity:0.0; 
stroke:#C25106; stroke-width:78.7402; stroke-opacity:1; 
stroke-linecap:round; stroke-linejoin:round;">
<circle cx="23495.5" cy="50475.3" r="1259.84" /> 
<circle cx="18849.8" cy="50475.3" r="1259.84" /> 
<circle cx="23495.5" cy="46105.2" r="1259.84" /> 
<circle cx="18849.8" cy="46105.2" r="1259.84" /> 
<circle cx="23495.5" cy="41735.1" r="1259.84" /> 
<path d="M17117 33703
L18338 33703
" />
<path d="M17117 33703
L17117 31302
" />
<path d="M18338 31302
L17117 31302
" />
<path d="M18338 31302
L18338 33703
" />
<path d="M17117 26105
L18338 26105
" />
<path d="M17117 26105
L17117 23703
" />
<path d="M18338 23703
L17117 23703
" />
<path d="M18338 23703
L18338 26105
" />
<circle cx="18849.8" cy="41735.1" r="1259.84" /> 
<path d="M17117 18506
L18338 18506
" />
<path d="M17117 18506
L17117 16105
" />
<path d="M18338 16105
L17117 16105
" />
<path d="M18338 16105
L18338 18506
" />
<circle cx="21172.7" cy="35987.1" r="1338.58" /> 
<circle cx="21172.7" cy="28388.6" r="1338.58" /> 
<circle cx="21172.7" cy="20790.2" r="1338.58" /> 
<circle cx="21172.7" cy="13152.4" r="1338.58" /> 
<path d="M16251 57601
L16251 7010
" />
<path d="M26093 57601
L16251 57601
" />
<path d="M26093 7010
L26093 57601
" />
<path d="M16251 7010
L26093 7010
" />
</g> 
</svg>
