<?xml version="1.0" standalone="no"?>
 <!DOCTYPE svg PUBLIC "-//W3C//DTD SVG 1.1//EN" 
 "http://www.w3.org/Graphics/SVG/1.1/DTD/svg11.dtd"> 
<svg xmlns="http://www.w3.org/2000/svg" version="1.1" 
    width="13.1978cm" height="12.8676cm" viewBox="0 0 51960 50660 ">
<title>SVG Picture created as Shapeshifter_BnG_Panel-brd.svg date 2019/09/12 19:35:31 </title>
  <desc>Picture generated by PCBNEW </desc>
<g style="fill:#000000; fill-opacity:1;stroke:#000000; stroke-opacity:1;
stroke-linecap:round; stroke-linejoin:round; "
 transform="translate(0 0) scale(1 1)">
</g>
<g style="fill:#000000; fill-opacity:0.0; 
stroke:#000000; stroke-width:-0.000393701; stroke-opacity:1; 
stroke-linecap:round; stroke-linejoin:round;">
</g>
<g style="fill:#C25106; fill-opacity:0.0; 
stroke:#C25106; stroke-width:-0.000393701; stroke-opacity:1; 
stroke-linecap:round; stroke-linejoin:round;">
</g>
<g style="fill:#C25106; fill-opacity:0.0; 
stroke:#C25106; stroke-width:78.7402; stroke-opacity:1; 
stroke-linecap:round; stroke-linejoin:round;">
<circle cx="6850.39" cy="32874" r="1279.53" /> 
<path d="M17224 15669
L34822 15669
" />
<path d="M17224 5275
L34822 5275
" />
<circle cx="2992.13" cy="49448.8" r="628.693" /> 
<circle cx="48976.4" cy="49448.8" r="628.693" /> 
<circle cx="48976.4" cy="1220.47" r="628.693" /> 
<circle cx="2993.36" cy="1220.47" r="628.693" /> 
<circle cx="49566.9" cy="44606.3" r="629.921" /> 
<circle cx="2480.32" cy="44606.3" r="629.921" /> 
<circle cx="45255.9" cy="39586.6" r="1279.53" /> 
<circle cx="45255.9" cy="44665.4" r="1279.53" /> 
<circle cx="45255.9" cy="32854.3" r="1279.53" /> 
<circle cx="39744.1" cy="39586.6" r="1279.53" /> 
<circle cx="39744.1" cy="44665.4" r="1279.53" /> 
<circle cx="39744.1" cy="32854.3" r="1279.53" /> 
<circle cx="34311" cy="39586.6" r="1279.53" /> 
<circle cx="34311" cy="44665.4" r="1279.53" /> 
<circle cx="34311" cy="32854.3" r="1279.53" /> 
<circle cx="28838.6" cy="39586.6" r="1279.53" /> 
<circle cx="28838.6" cy="44665.4" r="1279.53" /> 
<circle cx="28838.6" cy="32854.3" r="1279.53" /> 
<circle cx="23326.8" cy="39586.6" r="1279.53" /> 
<circle cx="23326.8" cy="44665.4" r="1279.53" /> 
<circle cx="23326.8" cy="32854.3" r="1279.53" /> 
<circle cx="17815" cy="39586.6" r="1279.53" /> 
<circle cx="17815" cy="44665.4" r="1279.53" /> 
<circle cx="17815" cy="32854.3" r="1279.53" /> 
<circle cx="12303.1" cy="39586.6" r="1279.53" /> 
<circle cx="12303.1" cy="44665.4" r="1279.53" /> 
<circle cx="12303.1" cy="32854.3" r="1279.53" /> 
<circle cx="6870.08" cy="44665.4" r="1279.53" /> 
<circle cx="6870.08" cy="39586.6" r="1279.53" /> 
<circle cx="28385.8" cy="27322.8" r="629.921" /> 
<circle cx="26417.3" cy="27322.8" r="629.921" /> 
<circle cx="24133.9" cy="27322.8" r="1122.05" /> 
<circle cx="44507.9" cy="26161.4" r="1791.34" /> 
<circle cx="38976.4" cy="24960.6" r="629.921" /> 
<circle cx="38996.1" cy="27362.2" r="1122.05" /> 
<circle cx="33503.9" cy="26161.4" r="1791.34" /> 
<circle cx="18582.7" cy="26141.7" r="1791.34" /> 
<circle cx="13070.9" cy="24960.6" r="629.921" /> 
<circle cx="13090.6" cy="27303.1" r="1122.05" /> 
<circle cx="7598.43" cy="26141.7" r="1791.34" /> 
<circle cx="33503.9" cy="17559.1" r="629.921" /> 
<circle cx="33523.6" cy="19901.6" r="1122.05" /> 
<circle cx="26102.4" cy="20334.6" r="1791.34" /> 
<circle cx="39035.4" cy="18956.7" r="1791.34" /> 
<circle cx="18582.7" cy="17559.1" r="629.921" /> 
<circle cx="18602.4" cy="19901.6" r="1122.05" /> 
<circle cx="13110.2" cy="18937" r="1791.34" /> 
<circle cx="40196.9" cy="10551.2" r="1791.34" /> 
<circle cx="44881.9" cy="5216.54" r="1122.05" /> 
<circle cx="45649.6" cy="8740.16" r="1122.05" /> 
<circle cx="45649.6" cy="12263.8" r="1122.05" /> 
<circle cx="44862.2" cy="15767.7" r="1122.05" /> 
<circle cx="11889.8" cy="10393.7" r="1417.32" /> 
<circle cx="11929.1" cy="6181.1" r="629.921" /> 
<circle cx="7204.72" cy="15767.7" r="1122.05" /> 
<circle cx="6437.01" cy="12244.1" r="1122.05" /> 
<circle cx="6437.01" cy="8720.47" r="1122.05" /> 
<circle cx="7224.41" cy="5177.17" r="1122.05" /> 
<path d="M34822 15669
L34822 5275
" />
<path d="M17224 5275
L17224 15669
" />
<path d="M39 50629
L39 39
" />
<path d="M51929 50629
L39 50629
" />
<path d="M51929 39
L51929 50629
" />
<path d="M39 39
L51929 39
" />
</g> 
</svg>
