<?xml version="1.0" standalone="no"?>
 <!DOCTYPE svg PUBLIC "-//W3C//DTD SVG 1.1//EN" 
 "http://www.w3.org/Graphics/SVG/1.1/DTD/svg11.dtd"> 
<svg xmlns="http://www.w3.org/2000/svg" version="1.1" 
    width="5.06984cm" height="12.8676cm" viewBox="0 0 19960 50660 ">
<title>SVG Picture created as Xaoc_Batumi_Template-brd.svg date 2019/03/31 20:05:03 </title>
  <desc>Picture generated by PCBNEW </desc>
<g style="fill:#000000; fill-opacity:1;stroke:#000000; stroke-opacity:1;
stroke-linecap:round; stroke-linejoin:round; "
 transform="translate(0 0) scale(1 1)">
</g>
<g style="fill:#000000; fill-opacity:0.0; 
stroke:#000000; stroke-width:-0.000393701; stroke-opacity:1; 
stroke-linecap:round; stroke-linejoin:round;">
</g>
<g style="fill:#C25106; fill-opacity:0.0; 
stroke:#C25106; stroke-width:-0.000393701; stroke-opacity:1; 
stroke-linecap:round; stroke-linejoin:round;">
</g>
<g style="fill:#C25106; fill-opacity:0.0; 
stroke:#C25106; stroke-width:78.7402; stroke-opacity:1; 
stroke-linecap:round; stroke-linejoin:round;">
<circle cx="16968.5" cy="49448.8" r="629.921" /> 
<circle cx="2992.13" cy="49448.8" r="629.921" /> 
<circle cx="2992.13" cy="1220.47" r="629.921" /> 
<circle cx="17007.9" cy="1220.47" r="629.921" /> 
<circle cx="17539.4" cy="43858.3" r="1200.79" /> 
<circle cx="12460.6" cy="43858.3" r="1200.79" /> 
<circle cx="7440.95" cy="43858.3" r="1200.79" /> 
<circle cx="2381.89" cy="43858.3" r="1200.79" /> 
<circle cx="17539.4" cy="38346.5" r="1200.79" /> 
<circle cx="12460.6" cy="38346.5" r="1200.79" /> 
<circle cx="7440.95" cy="38346.5" r="1200.79" /> 
<circle cx="2381.89" cy="38346.5" r="1200.79" /> 
<circle cx="17539.4" cy="32834.6" r="1200.79" /> 
<circle cx="12460.6" cy="32834.6" r="1200.79" /> 
<circle cx="7440.95" cy="32834.6" r="1200.79" /> 
<circle cx="2381.89" cy="32834.6" r="1200.79" /> 
<circle cx="2381.89" cy="27362.2" r="1200.79" /> 
<circle cx="7440.95" cy="27362.2" r="1200.79" /> 
<circle cx="12460.6" cy="27362.2" r="1200.79" /> 
<circle cx="17539.4" cy="27362.2" r="1200.79" /> 
<circle cx="17539.4" cy="21889.8" r="1200.79" /> 
<circle cx="12460.6" cy="21889.8" r="1200.79" /> 
<circle cx="7440.95" cy="21889.8" r="1200.79" /> 
<circle cx="9940.95" cy="18543.3" r="708.661" /> 
<circle cx="17500" cy="17755.9" r="630.613" /> 
<circle cx="13956.7" cy="17755.9" r="630.613" /> 
<circle cx="5905.51" cy="17716.5" r="630.613" /> 
<circle cx="2362.21" cy="17716.5" r="630.613" /> 
<path d="M16929 15787
L16929 5157
" />
<path d="M18110 15787
L16929 15787
" />
<path d="M18110 5157
L18110 15787
" />
<path d="M16929 5157
L18110 5157
" />
<path d="M11889 15787
L11889 5157
" />
<path d="M13070 15787
L11889 15787
" />
<path d="M13070 5157
L13070 15787
" />
<path d="M11889 5157
L13070 5157
" />
<path d="M6850 15787
L6850 5157
" />
<path d="M8031 15787
L6850 15787
" />
<path d="M8031 5157
L8031 15787
" />
<path d="M6850 5157
L8031 5157
" />
<path d="M1791 15787
L1791 5157
" />
<path d="M2972 15787
L1791 15787
" />
<path d="M2972 5157
L2972 15787
" />
<path d="M1791 5157
L2972 5157
" />
<path d="M39 50629
L39 39
" />
<path d="M19921 50629
L39 50629
" />
<path d="M19921 39
L19921 50629
" />
<path d="M39 39
L19921 39
" />
<circle cx="2381.89" cy="21889.8" r="1200.79" /> 
</g> 
</svg>
