<?xml version="1.0" standalone="no"?>
 <!DOCTYPE svg PUBLIC "-//W3C//DTD SVG 1.1//EN" 
 "http://www.w3.org/Graphics/SVG/1.1/DTD/svg11.dtd"> 
<svg xmlns="http://www.w3.org/2000/svg" version="1.1" 
    width="7.0993cm" height="12.8676cm" viewBox="0 0 27950 50660 ">
<title>SVG Picture created as Planar2_BnG_Panel-Eco2.User.svg date 2020/05/22 19:16:06 </title>
  <desc>Picture generated by PCBNEW </desc>
<g style="fill:#000000; fill-opacity:1;stroke:#000000; stroke-opacity:1;
stroke-linecap:round; stroke-linejoin:round; "
 transform="translate(0 0) scale(1 1)">
</g>
<g style="fill:#000000; fill-opacity:0.0; 
stroke:#000000; stroke-width:-0.000393701; stroke-opacity:1; 
stroke-linecap:round; stroke-linejoin:round;">
</g>
<g style="fill:#D35517; fill-opacity:0.0; 
stroke:#D35517; stroke-width:-0.000393701; stroke-opacity:1; 
stroke-linecap:round; stroke-linejoin:round;">
</g>
<g style="fill:#D35517; fill-opacity:0.0; 
stroke:#D35517; stroke-width:118.11; stroke-opacity:1; 
stroke-linecap:round; stroke-linejoin:round;">
<circle cx="16614.2" cy="38366.1" r="2559.06" /> 
<circle cx="13129.9" cy="41889.8" r="472.441" /> 
<circle cx="20177.2" cy="41889.8" r="472.441" /> 
<circle cx="20177.2" cy="34842.5" r="472.441" /> 
<circle cx="13129.9" cy="34842.5" r="472.441" /> 
<circle cx="3346.46" cy="41515.7" r="629.921" /> 
<circle cx="3326.77" cy="44547.2" r="1830.71" /> 
<circle cx="3326.77" cy="38287.4" r="1830.71" /> 
<circle cx="3326.77" cy="32027.6" r="1830.71" /> 
<circle cx="23582.7" cy="28366.1" r="1003.94" /> 
<circle cx="20216.5" cy="28366.1" r="1003.94" /> 
<circle cx="16594.5" cy="28366.1" r="1003.94" /> 
<circle cx="6456.69" cy="28346.5" r="1003.94" /> 
<circle cx="22933.1" cy="44645.7" r="629.921" /> 
<circle cx="10354.3" cy="44626" r="629.921" /> 
<circle cx="22933.1" cy="32086.6" r="629.921" /> 
<circle cx="10334.6" cy="32066.9" r="629.921" /> 
<circle cx="13031.5" cy="28346.5" r="629.921" /> 
<circle cx="9665.35" cy="28346.5" r="629.921" /> 
<circle cx="25590.6" cy="20059.1" r="629.921" /> 
<circle cx="23622" cy="20059.1" r="629.921" /> 
<circle cx="20255.9" cy="20059.1" r="629.921" /> 
<circle cx="18326.8" cy="20059.1" r="629.921" /> 
<circle cx="3346.46" cy="20059.1" r="629.921" /> 
</g>
<g style="fill:#D35517; fill-opacity:0.0; 
stroke:#D35517; stroke-width:78.7402; stroke-opacity:1; 
stroke-linecap:round; stroke-linejoin:round;">
<path d="M25354 22933
L25354 24192
" />
<path d="M23779.5 24192.9 A984.252 984.252 0.0 0 0 25354.3 24192.9 " />
<path d="M25354.3 22933.1 A984.252 984.252 0.0 0 0 23779.5 22933.1 " />
<path d="M20039.4 22933.1 A984.252 984.252 0.0 0 0 18464.6 22933.1 " />
<path d="M20039 22933
L20039 24192
" />
<path d="M18464.6 24192.9 A984.252 984.252 0.0 0 0 20039.4 24192.9 " />
<path d="M23779 24192
L23779 22933
" />
<path d="M18464 24192
L18464 22933
" />
</g>
<g style="fill:#D35517; fill-opacity:0.0; 
stroke:#D35517; stroke-width:118.11; stroke-opacity:1; 
stroke-linecap:round; stroke-linejoin:round;">
<circle cx="13976.4" cy="23622" r="1299.21" /> 
<circle cx="8681.1" cy="23622" r="1299.21" /> 
<circle cx="13976.4" cy="16358.3" r="1299.21" /> 
<circle cx="8661.42" cy="16358.3" r="1299.21" /> 
</g>
<g style="fill:#D35517; fill-opacity:0.0; 
stroke:#D35517; stroke-width:19.685; stroke-opacity:1; 
stroke-linecap:round; stroke-linejoin:round;">
<circle cx="19311" cy="16378" r="1299.21" /> 
<circle cx="24547.2" cy="16378" r="1299.21" /> 
<circle cx="3346.46" cy="16358.3" r="1299.21" /> 
</g>
<g style="fill:#D35517; fill-opacity:0.0; 
stroke:#D35517; stroke-width:118.11; stroke-opacity:1; 
stroke-linecap:round; stroke-linejoin:round;">
<circle cx="8661.42" cy="11259.8" r="1299.21" /> 
<circle cx="19311" cy="11259.8" r="1299.21" /> 
<circle cx="13976.4" cy="11259.8" r="1299.21" /> 
<circle cx="24547.2" cy="11259.8" r="1299.21" /> 
<circle cx="3346.46" cy="11259.8" r="1299.21" /> 
</g>
<g style="fill:#D35517; fill-opacity:0.0; 
stroke:#D35517; stroke-width:19.685; stroke-opacity:1; 
stroke-linecap:round; stroke-linejoin:round;">
<circle cx="24547.2" cy="6220.47" r="1299.21" /> 
<circle cx="19311" cy="6220.47" r="1299.21" /> 
<circle cx="13976.4" cy="6161.42" r="1299.21" /> 
<circle cx="8661.42" cy="6161.42" r="1299.21" /> 
<circle cx="3346.46" cy="6161.42" r="1299.21" /> 
</g>
<g style="fill:#D35517; fill-opacity:0.0; 
stroke:#D35517; stroke-width:78.7402; stroke-opacity:1; 
stroke-linecap:round; stroke-linejoin:round;">
<path d="M27913 39
L27913 50629
" />
<circle cx="25000" cy="49448.8" r="629.921" /> 
<circle cx="25000" cy="1220.47" r="629.921" /> 
<circle cx="2992.13" cy="49448.8" r="629.921" /> 
<circle cx="2992.13" cy="1220.47" r="629.921" /> 
<path d="M39 50629
L39 39
" />
<path d="M27913 50629
L39 50629
" />
<path d="M39 39
L27913 39
" />
<path d="M2519.69 24192.9 A984.252 984.252 0.0 0 0 4094.49 24192.9 " />
<path d="M4094.49 22933.1 A984.252 984.252 0.0 0 0 2519.69 22933.1 " />
<path d="M2519 24192
L2519 22933
" />
<path d="M4094 22933
L4094 24192
" />
</g> 
</svg>
