<?xml version="1.0" standalone="no"?>
 <!DOCTYPE svg PUBLIC "-//W3C//DTD SVG 1.1//EN" 
 "http://www.w3.org/Graphics/SVG/1.1/DTD/svg11.dtd"> 
<svg xmlns="http://www.w3.org/2000/svg" version="1.1" 
    width="4.04368cm" height="12.8676cm" viewBox="0 0 15920 50660 ">
<title>SVG Picture created as MutantBrain_BnG_Panel-brd.svg date 2019/06/05 21:29:58 </title>
  <desc>Picture generated by PCBNEW </desc>
<g style="fill:#000000; fill-opacity:1;stroke:#000000; stroke-opacity:1;
stroke-linecap:round; stroke-linejoin:round; "
 transform="translate(0 0) scale(1 1)">
</g>
<g style="fill:#000000; fill-opacity:0.0; 
stroke:#000000; stroke-width:-0.000393701; stroke-opacity:1; 
stroke-linecap:round; stroke-linejoin:round;">
</g>
<g style="fill:#C25106; fill-opacity:0.0; 
stroke:#C25106; stroke-width:-0.000393701; stroke-opacity:1; 
stroke-linecap:round; stroke-linejoin:round;">
</g>
<g style="fill:#C25106; fill-opacity:0.0; 
stroke:#C25106; stroke-width:78.7402; stroke-opacity:1; 
stroke-linecap:round; stroke-linejoin:round;">
<circle cx="8090.55" cy="41515.7" r="610.236" /> 
<circle cx="8897.64" cy="43543.3" r="610.236" /> 
<circle cx="7204.72" cy="43543.3" r="610.236" /> 
<circle cx="13346.5" cy="43582.7" r="1250" /> 
<circle cx="2775.59" cy="43582.7" r="1250" /> 
<circle cx="8917.32" cy="39645.7" r="610.236" /> 
<circle cx="7224.41" cy="39645.7" r="610.236" /> 
<circle cx="11968.5" cy="39635.8" r="1250" /> 
<circle cx="4192.91" cy="39635.8" r="1250" /> 
<circle cx="8937.01" cy="35649.6" r="610.236" /> 
<circle cx="7224.41" cy="35649.6" r="610.236" /> 
<circle cx="13326.8" cy="35708.7" r="1250" /> 
<circle cx="2795.28" cy="35708.7" r="1250" /> 
<circle cx="8937.01" cy="31830.7" r="610.236" /> 
<circle cx="7224.41" cy="31830.7" r="610.236" /> 
<circle cx="11929.1" cy="31811" r="1250" /> 
<circle cx="4212.6" cy="31811" r="1250" /> 
<circle cx="8937.01" cy="27854.3" r="610.236" /> 
<circle cx="7244.09" cy="27854.3" r="610.236" /> 
<circle cx="13336.6" cy="27864.2" r="1250" /> 
<circle cx="2814.96" cy="27864.2" r="1250" /> 
<circle cx="8937.01" cy="23976.4" r="610.236" /> 
<circle cx="7244.09" cy="23976.4" r="610.236" /> 
<circle cx="11948.8" cy="23946.9" r="1250" /> 
<circle cx="4192.91" cy="23946.9" r="1250" /> 
<circle cx="8937.01" cy="19626" r="610.236" /> 
<circle cx="7244.09" cy="19626" r="610.236" /> 
<circle cx="13346.5" cy="19596.5" r="1250" /> 
<circle cx="2795.28" cy="19596.5" r="1250" /> 
<circle cx="8937.01" cy="15846.5" r="610.236" /> 
<circle cx="7244.09" cy="15846.5" r="610.236" /> 
<circle cx="11948.8" cy="15698.8" r="1250" /> 
<circle cx="13563" cy="10866.1" r="1003.94" /> 
<circle cx="4192.91" cy="15698.8" r="1250" /> 
<circle cx="13563" cy="8248.03" r="610.236" /> 
<circle cx="4212.6" cy="12145.7" r="610.236" /> 
<circle cx="2559.06" cy="8228.35" r="610.236" /> 
<circle cx="12362.2" cy="5531.5" r="610.236" /> 
<circle cx="8188.98" cy="8917.32" r="3385.83" /> 
<path d="M39 50629
L39 39
" />
<path d="M15885 50629
L39 50629
" />
<path d="M15885 39
L15885 50629
" />
<path d="M39 39
L15885 39
" />
</g> 
</svg>
