<?xml version="1.0" standalone="no"?>
 <!DOCTYPE svg PUBLIC "-//W3C//DTD SVG 1.1//EN" 
 "http://www.w3.org/Graphics/SVG/1.1/DTD/svg11.dtd"> 
<svg xmlns="http://www.w3.org/2000/svg" version="1.1" 
    width="20.32cm" height="12.8676cm" viewBox="0 0 80000 50660 ">
<title>SVG Picture created as Atlantis_BnG_Panel-brd.svg date 2019/09/17 19:57:09 </title>
  <desc>Picture generated by PCBNEW </desc>
<g style="fill:#000000; fill-opacity:1;stroke:#000000; stroke-opacity:1;
stroke-linecap:round; stroke-linejoin:round; "
 transform="translate(0 0) scale(1 1)">
</g>
<g style="fill:#000000; fill-opacity:0.0; 
stroke:#000000; stroke-width:-0.000393701; stroke-opacity:1; 
stroke-linecap:round; stroke-linejoin:round;">
</g>
<g style="fill:#C25106; fill-opacity:0.0; 
stroke:#C25106; stroke-width:-0.000393701; stroke-opacity:1; 
stroke-linecap:round; stroke-linejoin:round;">
</g>
<g style="fill:#C25106; fill-opacity:0.0; 
stroke:#C25106; stroke-width:78.7402; stroke-opacity:1; 
stroke-linecap:round; stroke-linejoin:round;">
<circle cx="76968.5" cy="1220.47" r="629.921" /> 
<circle cx="76968.5" cy="49448.8" r="629.921" /> 
<circle cx="2992.13" cy="49448.8" r="629.921" /> 
<circle cx="2992.13" cy="1220.47" r="629.921" /> 
<path d="M77421 39763
L77421 42125
" />
<path d="M77421 42125
L75807 42125
" />
<path d="M75807 42125
L75807 39763
" />
<path d="M75807 39763
L77421 39763
" />
<circle cx="76633.9" cy="45649.6" r="1122.05" /> 
<circle cx="77755.9" cy="32145.7" r="610.236" /> 
<circle cx="75393.7" cy="32145.7" r="610.236" /> 
<path d="M78090 35314
L75137 35314
" />
<path d="M78090 36889
L78090 35314
" />
<path d="M75137 36889
L78090 36889
" />
<path d="M75137 35314
L75137 36889
" />
<path d="M71909 42283
L71909 44645
" />
<path d="M71909 44645
L70295 44645
" />
<path d="M70295 44645
L70295 42283
" />
<path d="M70295 42283
L71909 42283
" />
<circle cx="71102.4" cy="38799.2" r="610.236" /> 
<circle cx="14448.8" cy="31003.9" r="610.236" /> 
<path d="M71909 32460
L71909 34822
" />
<path d="M71909 34822
L70295 34822
" />
<path d="M70295 34822
L70295 32460
" />
<path d="M70295 32460
L71909 32460
" />
<path d="M66555 44114
L66555 33484
" />
<path d="M67736 44114
L66555 44114
" />
<path d="M67736 33484
L67736 44114
" />
<path d="M61043 44114
L61043 33484
" />
<path d="M62224 44114
L61043 44114
" />
<path d="M62224 33484
L62224 44114
" />
<path d="M55570 44114
L55570 33484
" />
<path d="M56751 44114
L55570 44114
" />
<path d="M56751 33484
L56751 44114
" />
<path d="M50019 44114
L50019 33484
" />
<path d="M51200 44114
L50019 44114
" />
<path d="M51200 33484
L51200 44114
" />
<path d="M66555 33484
L67736 33484
" />
<path d="M61043 33484
L62224 33484
" />
<path d="M55570 33484
L56751 33484
" />
<path d="M50019 33484
L51200 33484
" />
<path d="M44547 44114
L44547 33484
" />
<path d="M45728 44114
L44547 44114
" />
<path d="M45728 33484
L45728 44114
" />
<path d="M44547 33484
L45728 33484
" />
<path d="M39015 44114
L39015 33484
" />
<path d="M40196 44114
L39015 44114
" />
<path d="M40196 33484
L40196 44114
" />
<path d="M39015 33484
L40196 33484
" />
<path d="M36948 37342
L35374 37342
" />
<path d="M35374 37342
L35374 40295
" />
<path d="M35374 40295
L36948 40295
" />
<path d="M36948 40295
L36948 37342
" />
<circle cx="29429.1" cy="42736.2" r="1791.34" /> 
<circle cx="29429.1" cy="34901.6" r="1791.34" /> 
<path d="M22367 42300
L23981 42300
" />
<path d="M23981 42300
L23981 44663
" />
<path d="M23981 44663
L22367 44663
" />
<path d="M22367 44663
L22367 42300
" />
<path d="M23937 34507
L23937 36870
" />
<path d="M23937 36870
L22322 36870
" />
<path d="M22322 36870
L22322 34507
" />
<path d="M22322 34507
L23937 34507
" />
<path d="M18543 44114
L18543 33484
" />
<path d="M19724 44114
L18543 44114
" />
<path d="M19724 33484
L19724 44114
" />
<path d="M18543 33484
L19724 33484
" />
<circle cx="8976.38" cy="42736.2" r="1791.34" /> 
<path d="M13685 42300
L15300 42300
" />
<path d="M15300 42300
L15300 44663
" />
<path d="M15300 44663
L13685 44663
" />
<path d="M13685 44663
L13685 42300
" />
<path d="M13646 34485
L15260 34485
" />
<path d="M15260 34485
L15260 36848
" />
<path d="M15260 36848
L13646 36848
" />
<path d="M13646 36848
L13646 34485
" />
<circle cx="8976.38" cy="34901.6" r="1791.34" /> 
<path d="M2047 33484
L3228 33484
" />
<path d="M2047 44114
L2047 33484
" />
<path d="M3228 44114
L2047 44114
" />
<path d="M3228 33484
L3228 44114
" />
<path d="M64763 23248
L66377 23248
" />
<path d="M64763 23248
L64763 20885
" />
<path d="M66377 20885
L66377 23248
" />
<path d="M64763 20885
L66377 20885
" />
<path d="M64348 27810
L64348 26195
" />
<path d="M64348 26195
L66710 26195
" />
<path d="M66710 27810
L64348 27810
" />
<path d="M66710 26195
L66710 27810
" />
<path d="M64350 18006
L64350 16397
" />
<path d="M64350 16397
L66712 16397
" />
<path d="M66712 18011
L64350 18011
" />
<path d="M66712 16397
L66712 18011
" />
<path d="M64074 13287
L64074 14862
" />
<path d="M64074 14862
L67027 14862
" />
<path d="M67027 14862
L67027 13287
" />
<path d="M67027 13287
L64074 13287
" />
<path d="M32524 26237
L32524 23875
" />
<path d="M34138 26237
L32524 26237
" />
<path d="M34138 23875
L34138 26237
" />
<path d="M32524 23875
L34138 23875
" />
<path d="M32559 19507
L32559 16555
" />
<path d="M30984 19507
L32559 19507
" />
<path d="M30984 16555
L30984 19507
" />
<path d="M32559 16555
L30984 16555
" />
<path d="M77165 24842
L77165 14212
" />
<path d="M75984 24842
L77165 24842
" />
<path d="M75984 14212
L75984 24842
" />
<path d="M77165 14212
L75984 14212
" />
<path d="M71633 24842
L71633 14212
" />
<path d="M70452 24842
L71633 24842
" />
<path d="M70452 14212
L70452 24842
" />
<path d="M71633 14212
L70452 14212
" />
<path d="M60649 24842
L60649 14212
" />
<path d="M59468 24842
L60649 24842
" />
<path d="M59468 14212
L59468 24842
" />
<path d="M60649 14212
L59468 14212
" />
<path d="M55137 24842
L55137 14212
" />
<path d="M53956 24842
L55137 24842
" />
<path d="M53956 14212
L53956 24842
" />
<path d="M55137 14212
L53956 14212
" />
<path d="M49586 24842
L49586 14212
" />
<path d="M48405 24842
L49586 24842
" />
<path d="M48405 14212
L48405 24842
" />
<path d="M49586 14212
L48405 14212
" />
<path d="M43917 24842
L43917 14212
" />
<path d="M42736 24842
L43917 24842
" />
<path d="M42736 14212
L42736 24842
" />
<path d="M43917 14212
L42736 14212
" />
<path d="M38799 24842
L38799 14212
" />
<path d="M37618 24842
L38799 24842
" />
<path d="M37618 14212
L37618 24842
" />
<path d="M38799 14212
L37618 14212
" />
<path d="M28759 24842
L28759 14212
" />
<path d="M27578 24842
L28759 24842
" />
<path d="M27578 14212
L27578 24842
" />
<path d="M28759 14212
L27578 14212
" />
<path d="M23287 24842
L23287 14212
" />
<path d="M22106 24842
L23287 24842
" />
<path d="M22106 14212
L22106 24842
" />
<path d="M23287 14212
L22106 14212
" />
<path d="M17736 24842
L17736 14212
" />
<path d="M16555 24842
L17736 24842
" />
<path d="M16555 14212
L16555 24842
" />
<path d="M17736 14212
L16555 14212
" />
<circle cx="11830.7" cy="25472.4" r="1240.16" /> 
<circle cx="7519.69" cy="25472.4" r="1240.16" /> 
<circle cx="3228.35" cy="25472.4" r="1240.16" /> 
<circle cx="11870.1" cy="18779.5" r="1240.16" /> 
<circle cx="11870.1" cy="12126" r="1240.16" /> 
<circle cx="7559.06" cy="18779.5" r="1240.16" /> 
<circle cx="7559.06" cy="12126" r="1240.16" /> 
<circle cx="3228.35" cy="18779.5" r="1240.16" /> 
<circle cx="3228.35" cy="12126" r="1240.16" /> 
<circle cx="76692.9" cy="6259.84" r="1240.16" /> 
<circle cx="72381.9" cy="6259.84" r="1240.16" /> 
<circle cx="68070.9" cy="6259.84" r="1240.16" /> 
<circle cx="63759.8" cy="6259.84" r="1240.16" /> 
<circle cx="59389.8" cy="6259.84" r="1240.16" /> 
<circle cx="55118.1" cy="6259.84" r="1240.16" /> 
<circle cx="50787.4" cy="6259.84" r="1240.16" /> 
<circle cx="46456.7" cy="6259.84" r="1240.16" /> 
<circle cx="42145.7" cy="6259.84" r="1240.16" /> 
<circle cx="37775.6" cy="6259.84" r="1240.16" /> 
<circle cx="33484.3" cy="6259.84" r="1240.16" /> 
<circle cx="29173.2" cy="6259.84" r="1240.16" /> 
<circle cx="24822.8" cy="6259.84" r="1240.16" /> 
<circle cx="20511.8" cy="6259.84" r="1240.16" /> 
<circle cx="16200.8" cy="6259.84" r="1240.16" /> 
<circle cx="11870.1" cy="6259.84" r="1240.16" /> 
<circle cx="7559.06" cy="6259.84" r="1240.16" /> 
<circle cx="3248.03" cy="6259.84" r="1240.16" /> 
<path d="M39 50629
L39 39
" />
<path d="M79960 50629
L39 50629
" />
<path d="M79960 39
L79960 50629
" />
<path d="M39 39
L79960 39
" />
</g> 
</svg>
