<?xml version="1.0" standalone="no"?>
 <!DOCTYPE svg PUBLIC "-//W3C//DTD SVG 1.1//EN" 
 "http://www.w3.org/Graphics/SVG/1.1/DTD/svg11.dtd"> 
<svg xmlns="http://www.w3.org/2000/svg" version="1.1" 
    width="3.01752cm" height="12.8676cm" viewBox="0 0 11880 50660 ">
<title>SVG Picture created as Mixup_BnG_Panel-brd.svg date 2019/06/14 18:34:52 </title>
  <desc>Picture generated by PCBNEW </desc>
<g style="fill:#000000; fill-opacity:1;stroke:#000000; stroke-opacity:1;
stroke-linecap:round; stroke-linejoin:round; "
 transform="translate(0 0) scale(1 1)">
</g>
<g style="fill:#000000; fill-opacity:0.0; 
stroke:#000000; stroke-width:-0.000393701; stroke-opacity:1; 
stroke-linecap:round; stroke-linejoin:round;">
</g>
<g style="fill:#C25106; fill-opacity:0.0; 
stroke:#C25106; stroke-width:-0.000393701; stroke-opacity:1; 
stroke-linecap:round; stroke-linejoin:round;">
</g>
<g style="fill:#C25106; fill-opacity:0.0; 
stroke:#C25106; stroke-width:78.7402; stroke-opacity:1; 
stroke-linecap:round; stroke-linejoin:round;">
<path d="M1476.38 23267.7 A984.252 984.252 0.0 0 0 3051.18 23267.7 " />
<path d="M3051.18 22007.9 A984.252 984.252 0.0 0 0 1476.38 22007.9 " />
<path d="M1476 23267
L1476 22007
" />
<path d="M3051 22007
L3051 23267
" />
<path d="M3051 13799
L3051 15059
" />
<path d="M1476 15059
L1476 13799
" />
<path d="M3051.18 13799.2 A984.252 984.252 0.0 0 0 1476.38 13799.2 " />
<path d="M1476.38 15059.1 A984.252 984.252 0.0 0 0 3051.18 15059.1 " />
<circle cx="5925.2" cy="44645.7" r="631.15" /> 
<circle cx="8681.1" cy="44606.3" r="1240.16" /> 
<circle cx="3208.66" cy="44606.3" r="1240.16" /> 
<circle cx="8681.1" cy="39527.6" r="1240.16" /> 
<circle cx="3208.66" cy="39527.6" r="1240.16" /> 
<circle cx="8681.1" cy="34429.1" r="1240.16" /> 
<circle cx="3208.66" cy="34429.1" r="1240.16" /> 
<circle cx="8681.1" cy="29311" r="1240.16" /> 
<circle cx="3208.66" cy="29311" r="1240.16" /> 
<circle cx="7933.07" cy="22637.8" r="1377.95" /> 
<circle cx="7933.07" cy="14409.4" r="1771.65" /> 
<path d="M1476.38 6811.02 A984.252 984.252 0.0 0 0 3051.18 6811.02 " />
<path d="M3051.18 5551.18 A984.252 984.252 0.0 0 0 1476.38 5551.18 " />
<path d="M1476 6811
L1476 5551
" />
<path d="M3051 5551
L3051 6811
" />
<circle cx="7933.07" cy="6181.1" r="1771.65" /> 
<circle cx="2992.13" cy="49448.8" r="629.921" /> 
<circle cx="2992.13" cy="1220.47" r="629.921" /> 
<path d="M39 50629
L39 39
" />
<path d="M11850 50629
L39 50629
" />
<path d="M11850 39
L11850 50629
" />
<path d="M39 39
L11850 39
" />
</g> 
</svg>
