<?xml version="1.0" standalone="no"?>
 <!DOCTYPE svg PUBLIC "-//W3C//DTD SVG 1.1//EN" 
 "http://www.w3.org/Graphics/SVG/1.1/DTD/svg11.dtd"> 
<svg xmlns="http://www.w3.org/2000/svg" version="1.1" 
    width="18.9713cm" height="12.8676cm" viewBox="0 0 74690 50660 ">
<title>SVG Picture created as Metropolis_BnG_Panel-brd.svg date 2019/10/08 19:15:08 </title>
  <desc>Picture generated by PCBNEW </desc>
<g style="fill:#000000; fill-opacity:1;stroke:#000000; stroke-opacity:1;
stroke-linecap:round; stroke-linejoin:round; "
 transform="translate(0 0) scale(1 1)">
</g>
<g style="fill:#000000; fill-opacity:0.0; 
stroke:#000000; stroke-width:-0.000393701; stroke-opacity:1; 
stroke-linecap:round; stroke-linejoin:round;">
</g>
<g style="fill:#C25106; fill-opacity:0.0; 
stroke:#C25106; stroke-width:-0.000393701; stroke-opacity:1; 
stroke-linecap:round; stroke-linejoin:round;">
</g>
<g style="fill:#C25106; fill-opacity:0.0; 
stroke:#C25106; stroke-width:78.7402; stroke-opacity:1; 
stroke-linecap:round; stroke-linejoin:round;">
<circle cx="10748" cy="44488.2" r="1003.94" /> 
<circle cx="15452.8" cy="41555.1" r="1397.64" /> 
<circle cx="5964.57" cy="41555.1" r="1751.97" /> 
<circle cx="24862.2" cy="41555.1" r="1751.97" /> 
<circle cx="26259.8" cy="32815" r="1003.94" /> 
<circle cx="21929.1" cy="32815" r="1003.94" /> 
<circle cx="17598.4" cy="32815" r="1003.94" /> 
<circle cx="13287.4" cy="32815" r="1003.94" /> 
<circle cx="8956.69" cy="32815" r="1003.94" /> 
<circle cx="4645.67" cy="32815" r="1003.94" /> 
<circle cx="26259.8" cy="28543.3" r="1003.94" /> 
<circle cx="21929.1" cy="28543.3" r="1003.94" /> 
<circle cx="17598.4" cy="28543.3" r="1003.94" /> 
<circle cx="13287.4" cy="28543.3" r="1003.94" /> 
<circle cx="8956.69" cy="28543.3" r="1003.94" /> 
<circle cx="4645.67" cy="28543.3" r="1003.94" /> 
<circle cx="26259.8" cy="24252" r="1003.94" /> 
<circle cx="21929.1" cy="24252" r="1003.94" /> 
<circle cx="17598.4" cy="24252" r="1003.94" /> 
<circle cx="13287.4" cy="24252" r="1003.94" /> 
<circle cx="8956.69" cy="24252" r="1003.94" /> 
<circle cx="4645.67" cy="24252" r="1003.94" /> 
</g>
<g style="fill:#C25106; fill-opacity:0.0; 
stroke:#C25106; stroke-width:118.11; stroke-opacity:1; 
stroke-linecap:round; stroke-linejoin:round;">
<path d="M69938 45033
L69910 45061
L69825 45089
L69769 45089
L69685 45061
L69628 45005
L69600 44949
L69572 44836
L69572 44752
L69600 44640
L69628 44583
L69685 44527
L69769 44499
L69825 44499
L69910 44527
L69938 44555
" />
<path d="M70275 45089
L70219 45061
L70191 45033
L70163 44977
L70163 44808
L70191 44752
L70219 44724
L70275 44696
L70359 44696
L70416 44724
L70444 44752
L70472 44808
L70472 44977
L70444 45033
L70416 45061
L70359 45089
L70275 45089
" />
<path d="M70978 44696
L70978 45089
" />
<path d="M70725 44696
L70725 45005
L70753 45061
L70809 45089
L70894 45089
L70950 45061
L70978 45033
" />
<path d="M71259 44696
L71259 45089
" />
<path d="M71259 44752
L71287 44724
L71344 44696
L71428 44696
L71484 44724
L71512 44780
L71512 45089
" />
<path d="M71709 44696
L71934 44696
" />
<path d="M71794 44499
L71794 45005
L71822 45061
L71878 45089
L71934 45089
" />
<path d="M72356 45061
L72300 45089
L72187 45089
L72131 45061
L72103 45005
L72103 44780
L72131 44724
L72187 44696
L72300 44696
L72356 44724
L72384 44780
L72384 44836
L72103 44893
" />
<path d="M72637 45089
L72637 44696
" />
<path d="M72637 44808
L72665 44752
L72694 44724
L72750 44696
L72806 44696
" />
<path d="M72975 45061
L73031 45089
L73143 45089
L73200 45061
L73228 45005
L73228 44977
L73200 44921
L73143 44893
L73059 44893
L73003 44865
L72975 44808
L72975 44780
L73003 44724
L73059 44696
L73143 44696
L73200 44724
" />
<path d="M73481 45089
L73481 44696
" />
<path d="M73481 44499
L73453 44527
L73481 44555
L73509 44527
L73481 44499
L73481 44555
" />
<path d="M73762 44696
L73762 45089
" />
<path d="M73762 44752
L73790 44724
L73847 44696
L73931 44696
L73987 44724
L74015 44780
L74015 45089
" />
<path d="M74296 45089
L74296 44499
" />
<path d="M74353 44865
L74521 45089
" />
<path d="M74521 44696
L74296 44921
" />
</g>
<g style="fill:#C25106; fill-opacity:0.0; 
stroke:#C25106; stroke-width:78.7402; stroke-opacity:1; 
stroke-linecap:round; stroke-linejoin:round;">
<circle cx="65767.7" cy="45885.8" r="1082.86" /> 
<path d="M65767 44803
L69350 44803
" />
<circle cx="65767.7" cy="45885.8" r="629.921" /> 
<circle cx="65708.7" cy="4980.32" r="1082.86" /> 
<circle cx="65708.7" cy="4980.32" r="629.921" /> 
<path d="M65728 3897
L69350 3897
" />
</g>
<g style="fill:#C25106; fill-opacity:0.0; 
stroke:#C25106; stroke-width:118.11; stroke-opacity:1; 
stroke-linecap:round; stroke-linejoin:round;">
<path d="M69938 4128
L69910 4156
L69825 4184
L69769 4184
L69685 4156
L69628 4100
L69600 4043
L69572 3931
L69572 3847
L69600 3734
L69628 3678
L69685 3622
L69769 3593
L69825 3593
L69910 3622
L69938 3650
" />
<path d="M70275 4184
L70219 4156
L70191 4128
L70163 4071
L70163 3903
L70191 3847
L70219 3818
L70275 3790
L70359 3790
L70416 3818
L70444 3847
L70472 3903
L70472 4071
L70444 4128
L70416 4156
L70359 4184
L70275 4184
" />
<path d="M70978 3790
L70978 4184
" />
<path d="M70725 3790
L70725 4100
L70753 4156
L70809 4184
L70894 4184
L70950 4156
L70978 4128
" />
<path d="M71259 3790
L71259 4184
" />
<path d="M71259 3847
L71287 3818
L71344 3790
L71428 3790
L71484 3818
L71512 3875
L71512 4184
" />
<path d="M71709 3790
L71934 3790
" />
<path d="M71794 3593
L71794 4100
L71822 4156
L71878 4184
L71934 4184
" />
<path d="M72356 4156
L72300 4184
L72187 4184
L72131 4156
L72103 4100
L72103 3875
L72131 3818
L72187 3790
L72300 3790
L72356 3818
L72384 3875
L72384 3931
L72103 3987
" />
<path d="M72637 4184
L72637 3790
" />
<path d="M72637 3903
L72665 3847
L72694 3818
L72750 3790
L72806 3790
" />
<path d="M72975 4156
L73031 4184
L73143 4184
L73200 4156
L73228 4100
L73228 4071
L73200 4015
L73143 3987
L73059 3987
L73003 3959
L72975 3903
L72975 3875
L73003 3818
L73059 3790
L73143 3790
L73200 3818
" />
<path d="M73481 4184
L73481 3790
" />
<path d="M73481 3593
L73453 3622
L73481 3650
L73509 3622
L73481 3593
L73481 3650
" />
<path d="M73762 3790
L73762 4184
" />
<path d="M73762 3847
L73790 3818
L73847 3790
L73931 3790
L73987 3818
L74015 3875
L74015 4184
" />
<path d="M74296 4184
L74296 3593
" />
<path d="M74353 3959
L74521 4184
" />
<path d="M74521 3790
L74296 4015
" />
</g>
<g style="fill:#C25106; fill-opacity:0.0; 
stroke:#C25106; stroke-width:78.7402; stroke-opacity:1; 
stroke-linecap:round; stroke-linejoin:round;">
<circle cx="62677.2" cy="43090.6" r="629.921" /> 
<circle cx="58346.5" cy="43090.6" r="629.921" /> 
<circle cx="54015.7" cy="43090.6" r="629.921" /> 
<circle cx="49685" cy="43090.6" r="629.921" /> 
<circle cx="45354.3" cy="43090.6" r="629.921" /> 
<circle cx="41023.6" cy="43090.6" r="629.921" /> 
<circle cx="36712.6" cy="43090.6" r="629.921" /> 
<circle cx="62677.2" cy="45472.4" r="1003.94" /> 
<circle cx="58346.5" cy="45472.4" r="1003.94" /> 
<circle cx="54015.7" cy="45472.4" r="1003.94" /> 
<circle cx="49685" cy="45472.4" r="1003.94" /> 
<circle cx="45354.3" cy="45472.4" r="1003.94" /> 
<circle cx="41023.6" cy="45472.4" r="1003.94" /> 
<circle cx="36712.6" cy="45472.4" r="1003.94" /> 
<circle cx="32381.9" cy="43090.6" r="629.921" /> 
<circle cx="32381.9" cy="45472.4" r="1003.94" /> 
<path d="M63484 40059
L63484 35059
" />
<path d="M61830 40059
L63484 40059
" />
<path d="M63484 35059
L61830 35059
" />
<path d="M59153 40059
L59153 35059
" />
<path d="M57500 40059
L59153 40059
" />
<path d="M59153 35059
L57500 35059
" />
<path d="M54822 40059
L54822 35059
" />
<path d="M53169 40059
L54822 40059
" />
<path d="M54822 35059
L53169 35059
" />
<path d="M50492 40059
L50492 35059
" />
<path d="M48838 40059
L50492 40059
" />
<path d="M50492 35059
L48838 35059
" />
<path d="M46161 40059
L46161 35059
" />
<path d="M44507 40059
L46161 40059
" />
<path d="M46161 35059
L44507 35059
" />
<path d="M41830 40059
L41830 35059
" />
<path d="M40177 40059
L41830 40059
" />
<path d="M41830 35059
L40177 35059
" />
<path d="M37480 40059
L37480 35059
" />
<path d="M35826 40059
L37480 40059
" />
<path d="M37480 35059
L35826 35059
" />
<path d="M61830 35059
L61830 40059
" />
<path d="M57500 35059
L57500 40059
" />
<path d="M53169 35059
L53169 40059
" />
<path d="M48838 35059
L48838 40059
" />
<path d="M44507 35059
L44507 40059
" />
<path d="M40177 35059
L40177 40059
" />
<path d="M35826 35059
L35826 40059
" />
<path d="M33169 40059
L33169 35059
" />
<path d="M31515 40059
L33169 40059
" />
<path d="M31515 35059
L31515 40059
" />
<path d="M33169 35059
L31515 35059
" />
<path d="M63503 31003
L63503 20570
" />
<path d="M61732 31003
L63503 31003
" />
<path d="M63503 20570
L61732 20570
" />
<path d="M59173 31003
L59173 20570
" />
<path d="M57401 31003
L59173 31003
" />
<path d="M59173 20570
L57401 20570
" />
<path d="M54842 31003
L54842 20570
" />
<path d="M53070 31003
L54842 31003
" />
<path d="M54842 20570
L53070 20570
" />
<path d="M50511 31003
L50511 20570
" />
<path d="M48740 31003
L50511 31003
" />
<path d="M50511 20570
L48740 20570
" />
<path d="M46181 31003
L46181 20570
" />
<path d="M44409 31003
L46181 31003
" />
<path d="M46181 20570
L44409 20570
" />
<path d="M41850 31003
L41850 20570
" />
<path d="M40078 31003
L41850 31003
" />
<path d="M41850 20570
L40078 20570
" />
<path d="M37539 31003
L37539 20570
" />
<path d="M35767 31003
L37539 31003
" />
<path d="M37539 20570
L35767 20570
" />
<path d="M61732 20570
L61732 31003
" />
<path d="M57401 20570
L57401 31003
" />
<path d="M53070 20570
L53070 31003
" />
<path d="M48740 20570
L48740 31003
" />
<path d="M44409 20570
L44409 31003
" />
<path d="M40078 20570
L40078 31003
" />
<path d="M35767 20570
L35767 31003
" />
<path d="M33228 31003
L33228 20570
" />
<path d="M31456 31003
L33228 31003
" />
<path d="M31456 20570
L31456 31003
" />
<path d="M33228 20570
L31456 20570
" />
<path d="M63188 5551
L62007 5551
" />
<path d="M63188 16181
L63188 5551
" />
<path d="M62007 16181
L63188 16181
" />
<path d="M58917 5551
L57736 5551
" />
<path d="M58917 16181
L58917 5551
" />
<path d="M57736 16181
L58917 16181
" />
<path d="M54566 5551
L53385 5551
" />
<path d="M54566 16181
L54566 5551
" />
<path d="M53385 16181
L54566 16181
" />
<path d="M50236 5551
L49055 5551
" />
<path d="M50236 16181
L50236 5551
" />
<path d="M49055 16181
L50236 16181
" />
<path d="M45885 5551
L44704 5551
" />
<path d="M45885 16181
L45885 5551
" />
<path d="M44704 16181
L45885 16181
" />
<path d="M41535 5551
L40354 5551
" />
<path d="M41535 16181
L41535 5551
" />
<path d="M40354 16181
L41535 16181
" />
<path d="M37204 5551
L36023 5551
" />
<path d="M37204 16181
L37204 5551
" />
<path d="M36023 16181
L37204 16181
" />
<path d="M31712 16181
L31712 5551
" />
<path d="M62007 5551
L62007 16181
" />
<path d="M57736 5551
L57736 16181
" />
<path d="M53385 5551
L53385 16181
" />
<path d="M49055 5551
L49055 16181
" />
<path d="M44704 5551
L44704 16181
" />
<path d="M40354 5551
L40354 16181
" />
<path d="M32893 5551
L31712 5551
" />
<path d="M32893 16181
L32893 5551
" />
<path d="M31712 16181
L32893 16181
" />
<path d="M36023 5551
L36023 16181
" />
<path d="M22775 20098
L22775 16161
" />
<path d="M8011 20098
L22775 20098
" />
<path d="M8011 16161
L8011 20098
" />
<path d="M22775 16161
L8011 16161
" />
<circle cx="27618.1" cy="18090.6" r="1240.16" /> 
<circle cx="3208.66" cy="18090.6" r="1240.16" /> 
<circle cx="24665.4" cy="11279.5" r="629.921" /> 
<circle cx="24665.4" cy="6122.05" r="629.921" /> 
<circle cx="21496.1" cy="11240.2" r="1240.16" /> 
<circle cx="15413.4" cy="11240.2" r="1240.16" /> 
<circle cx="9311.02" cy="11240.2" r="1240.16" /> 
<circle cx="27618.1" cy="6122.05" r="1240.16" /> 
<circle cx="21496.1" cy="6122.05" r="1240.16" /> 
<circle cx="15413.4" cy="6122.05" r="1240.16" /> 
<circle cx="9311.02" cy="6122.05" r="1240.16" /> 
<circle cx="3208.66" cy="6122.05" r="1240.16" /> 
<circle cx="65000" cy="1220.47" r="631.15" /> 
<circle cx="2992.13" cy="1220.47" r="631.15" /> 
<circle cx="2992.13" cy="49448.8" r="631.15" /> 
<circle cx="64998.8" cy="49448.8" r="631.15" /> 
<path d="M39 50629
L67952 50629
" />
<path d="M67952 39
L67952 50629
" />
<path d="M39 39
L39 50629
" />
<path d="M39 39
L67952 39
" />
</g> 
</svg>
