<?xml version="1.0" standalone="no"?>
 <!DOCTYPE svg PUBLIC "-//W3C//DTD SVG 1.1//EN" 
 "http://www.w3.org/Graphics/SVG/1.1/DTD/svg11.dtd"> 
<svg xmlns="http://www.w3.org/2000/svg" version="1.1" 
    width="7.0993cm" height="12.8676cm" viewBox="0 0 27950 50660 ">
<title>SVG Picture created as JustFriends_BnG_Panel-Eco2.User.svg date 2020/05/22 19:28:35 </title>
  <desc>Picture generated by PCBNEW </desc>
<g style="fill:#000000; fill-opacity:1;stroke:#000000; stroke-opacity:1;
stroke-linecap:round; stroke-linejoin:round; "
 transform="translate(0 0) scale(1 1)">
</g>
<g style="fill:#000000; fill-opacity:0.0; 
stroke:#000000; stroke-width:-0.000393701; stroke-opacity:1; 
stroke-linecap:round; stroke-linejoin:round;">
</g>
<g style="fill:#D35517; fill-opacity:0.0; 
stroke:#D35517; stroke-width:-0.000393701; stroke-opacity:1; 
stroke-linecap:round; stroke-linejoin:round;">
</g>
<g style="fill:#D35517; fill-opacity:0.0; 
stroke:#D35517; stroke-width:78.7402; stroke-opacity:1; 
stroke-linecap:round; stroke-linejoin:round;">
<path d="M27913 39
L27913 50629
" />
<path d="M39 39
L27913 39
" />
<path d="M39 50629
L39 39
" />
<path d="M27913 50629
L39 50629
" />
</g>
<g style="fill:#D35517; fill-opacity:0.0; 
stroke:#D35517; stroke-width:118.11; stroke-opacity:1; 
stroke-linecap:round; stroke-linejoin:round;">
<circle cx="25000" cy="1220.47" r="654.361" /> 
<circle cx="25000" cy="49448.8" r="654.361" /> 
<circle cx="2952.76" cy="49448.8" r="654.361" /> 
<circle cx="2992.13" cy="1220.47" r="654.361" /> 
</g>
<g style="fill:#D35517; fill-opacity:0.0; 
stroke:#D35517; stroke-width:78.7402; stroke-opacity:1; 
stroke-linecap:round; stroke-linejoin:round;">
<circle cx="16338.6" cy="30413.4" r="1240.16" /> 
<circle cx="25315" cy="41181.1" r="629.921" /> 
<circle cx="20826.8" cy="41181.1" r="629.921" /> 
<circle cx="16338.6" cy="41181.1" r="629.921" /> 
<circle cx="11811" cy="41181.1" r="629.921" /> 
<circle cx="7362.21" cy="41181.1" r="629.921" /> 
<circle cx="2874.02" cy="41181.1" r="629.921" /> 
<circle cx="20826.8" cy="32913.4" r="1240.16" /> 
<circle cx="25315" cy="44507.9" r="1240.16" /> 
<circle cx="25315" cy="37913.4" r="1240.16" /> 
<circle cx="16338.6" cy="44488.2" r="1240.16" /> 
<circle cx="20826.8" cy="44488.2" r="1240.16" /> 
<circle cx="20826.8" cy="37913.4" r="1240.16" /> 
<circle cx="16338.6" cy="37913.4" r="1240.16" /> 
<circle cx="11811" cy="44468.5" r="1240.16" /> 
<circle cx="7362.21" cy="44468.5" r="1240.16" /> 
<circle cx="11811" cy="37913.4" r="1240.16" /> 
<circle cx="7362.21" cy="37893.7" r="1240.16" /> 
<circle cx="2874.02" cy="44448.8" r="1240.16" /> 
<circle cx="2874.02" cy="37893.7" r="1240.16" /> 
<circle cx="25275.6" cy="32893.7" r="1240.16" /> 
<circle cx="2874.02" cy="32893.7" r="1240.16" /> 
<circle cx="7362.21" cy="30413.4" r="1240.16" /> 
<circle cx="11811" cy="32913.4" r="1240.16" /> 
<circle cx="11850.4" cy="27933.1" r="1240.16" /> 
<circle cx="2874.02" cy="27933.1" r="867.036" /> 
<circle cx="7362.21" cy="25019.7" r="867.036" /> 
<circle cx="23267.7" cy="25000" r="1446.85" /> 
<circle cx="14498" cy="20265.7" r="1446.85" /> 
<circle cx="4645.67" cy="17116.1" r="1407.48" /> 
<circle cx="20826.8" cy="10472.4" r="1407.48" /> 
<circle cx="7598.43" cy="7795.28" r="1407.48" /> 
</g> 
</svg>
