<?xml version="1.0" standalone="no"?>
 <!DOCTYPE svg PUBLIC "-//W3C//DTD SVG 1.1//EN" 
 "http://www.w3.org/Graphics/SVG/1.1/DTD/svg11.dtd"> 
<svg xmlns="http://www.w3.org/2000/svg" version="1.1" 
    width="7.0993cm" height="3.98272cm" viewBox="0 0 27950 15680 ">
<title>SVG Picture created as Buff Mult_BnG_Panel-brd.svg date 2019/10/17 18:48:21 </title>
  <desc>Picture generated by PCBNEW </desc>
<g style="fill:#000000; fill-opacity:1;stroke:#000000; stroke-opacity:1;
stroke-linecap:round; stroke-linejoin:round; "
 transform="translate(0 0) scale(1 1)">
</g>
<g style="fill:#000000; fill-opacity:0.0; 
stroke:#000000; stroke-width:-0.000393701; stroke-opacity:1; 
stroke-linecap:round; stroke-linejoin:round;">
</g>
<g style="fill:#C25106; fill-opacity:0.0; 
stroke:#C25106; stroke-width:-0.000393701; stroke-opacity:1; 
stroke-linecap:round; stroke-linejoin:round;">
</g>
<g style="fill:#C25106; fill-opacity:0.0; 
stroke:#C25106; stroke-width:78.7402; stroke-opacity:1; 
stroke-linecap:round; stroke-linejoin:round;">
<circle cx="2992.13" cy="14468.5" r="634.824" /> 
<circle cx="24980.3" cy="14468.5" r="634.824" /> 
<circle cx="24980.3" cy="1220.47" r="634.824" /> 
<circle cx="2992.13" cy="1220.47" r="634.824" /> 
<circle cx="24960.6" cy="10137.8" r="1240.16" /> 
<circle cx="19468.5" cy="10137.8" r="1240.16" /> 
<circle cx="13956.7" cy="10137.8" r="1240.16" /> 
<circle cx="8425.2" cy="10137.8" r="1240.16" /> 
<circle cx="24960.6" cy="5452.76" r="1240.16" /> 
<circle cx="19468.5" cy="5452.76" r="1240.16" /> 
<circle cx="13956.7" cy="5452.76" r="1240.16" /> 
<circle cx="8425.2" cy="5452.76" r="1240.16" /> 
<circle cx="2933.07" cy="10137.8" r="1240.16" /> 
<circle cx="2933.07" cy="5452.76" r="1240.16" /> 
<path d="M27913 39
L27913 15649
" />
<path d="M39 39
L27913 39
" />
<path d="M39 15649
L27913 15649
" />
<path d="M39 39
L39 15649
" />
</g> 
</svg>
