<?xml version="1.0" standalone="no"?>
 <!DOCTYPE svg PUBLIC "-//W3C//DTD SVG 1.1//EN" 
 "http://www.w3.org/Graphics/SVG/1.1/DTD/svg11.dtd"> 
<svg xmlns="http://www.w3.org/2000/svg" version="1.1" 
    width="13.208cm" height="12.8676cm" viewBox="0 0 52000 50660 ">
<title>SVG Picture created as VG8Plus_BnG_Panel-brd.svg date 2019/04/28 17:51:19 </title>
  <desc>Picture generated by PCBNEW </desc>
<g style="fill:#000000; fill-opacity:1;stroke:#000000; stroke-opacity:1;
stroke-linecap:round; stroke-linejoin:round; "
 transform="translate(0 0) scale(1 1)">
</g>
<g style="fill:#000000; fill-opacity:0.0; 
stroke:#000000; stroke-width:-0.000393701; stroke-opacity:1; 
stroke-linecap:round; stroke-linejoin:round;">
</g>
<g style="fill:#C25106; fill-opacity:0.0; 
stroke:#C25106; stroke-width:-0.000393701; stroke-opacity:1; 
stroke-linecap:round; stroke-linejoin:round;">
</g>
<g style="fill:#C25106; fill-opacity:0.0; 
stroke:#C25106; stroke-width:78.7402; stroke-opacity:1; 
stroke-linecap:round; stroke-linejoin:round;">
<circle cx="2992.13" cy="1220.47" r="631.15" /> 
<circle cx="2992.13" cy="49448.8" r="631.15" /> 
<circle cx="48976.4" cy="49448.8" r="631.15" /> 
<circle cx="48976.4" cy="1220.47" r="631.15" /> 
<path d="M39 50629
L39 39
" />
<path d="M51968 50629
L39 50629
" />
<path d="M51968 39
L51968 50629
" />
<path d="M39 39
L51968 39
" />
<path d="M23070 14370
L34055 14370
" />
<path d="M23070 15314
L34055 15314
" />
<path d="M23070 19330
L34055 19330
" />
<path d="M23070 18385
L34055 18385
" />
<path d="M23070 35314
L34055 35314
" />
<path d="M23070 34370
L34055 34370
" />
<path d="M23110 31299
L34094 31299
" />
<path d="M23110 30354
L34094 30354
" />
<path d="M23070 27322
L34055 27322
" />
<path d="M23070 26377
L34055 26377
" />
<path d="M23070 23346
L34055 23346
" />
<path d="M23070 22401
L34055 22401
" />
<path d="M23070 10393
L34055 10393
" />
<path d="M23070 11338
L34055 11338
" />
<path d="M23070 7283
L34055 7283
" />
<path d="M23070 6338
L34055 6338
" />
<path d="M8700 35314
L19685 35314
" />
<path d="M8700 34370
L19685 34370
" />
<path d="M8740 31299
L19724 31299
" />
<path d="M8740 30354
L19724 30354
" />
<path d="M8700 27322
L19685 27322
" />
<path d="M8700 26377
L19685 26377
" />
<path d="M8700 23346
L19685 23346
" />
<path d="M8700 22401
L19685 22401
" />
<path d="M8700 18385
L19685 18385
" />
<path d="M8700 19330
L19685 19330
" />
<path d="M8700 15314
L19685 15314
" />
<path d="M8700 14370
L19685 14370
" />
<path d="M8700 10393
L19685 10393
" />
<path d="M8700 11338
L19685 11338
" />
<path d="M8700 7283
L19685 7283
" />
<circle cx="43602.4" cy="22027.6" r="1200.95" /> 
<circle cx="50905.2" cy="33031.5" r="590.879" /> 
<circle cx="46063" cy="9566.93" r="590.879" /> 
<circle cx="48582.7" cy="33031.5" r="1240.16" /> 
<circle cx="43622" cy="33051.2" r="1240.16" /> 
<circle cx="38622" cy="33051.2" r="1240.16" /> 
<circle cx="38602.4" cy="28011.8" r="1555.12" /> 
<circle cx="43602.4" cy="28011.8" r="1555.12" /> 
<circle cx="48582.7" cy="28011.8" r="1555.12" /> 
<circle cx="38602.4" cy="22027.6" r="1555.12" /> 
<circle cx="43602.4" cy="22027.6" r="1555.12" /> 
<circle cx="48602.4" cy="22027.6" r="1555.12" /> 
<circle cx="38563" cy="17106.3" r="1555.12" /> 
<circle cx="43563" cy="17106.3" r="1555.12" /> 
<circle cx="48582.7" cy="17106.3" r="1555.12" /> 
<circle cx="38563" cy="12106.3" r="1555.12" /> 
<circle cx="43563" cy="12106.3" r="1555.12" /> 
<circle cx="48582.7" cy="12106.3" r="1555.12" /> 
<circle cx="38563" cy="7066.93" r="1555.12" /> 
<circle cx="43563" cy="7066.93" r="1555.12" /> 
<circle cx="48582.7" cy="7066.93" r="1555.12" /> 
<circle cx="48582.7" cy="41968.5" r="590.551" /> 
<circle cx="48602.4" cy="39389.8" r="1240.16" /> 
<circle cx="48582.7" cy="44429.1" r="1555.12" /> 
<circle cx="43622" cy="41968.5" r="590.551" /> 
<circle cx="43641.7" cy="39389.8" r="1240.16" /> 
<circle cx="43622" cy="44429.1" r="1555.12" /> 
<circle cx="38582.7" cy="41968.5" r="590.551" /> 
<circle cx="38602.4" cy="39389.8" r="1240.16" /> 
<circle cx="38582.7" cy="44429.1" r="1555.12" /> 
<circle cx="33622" cy="41968.5" r="590.551" /> 
<circle cx="33641.7" cy="39389.8" r="1240.16" /> 
<circle cx="33622" cy="44429.1" r="1555.12" /> 
<circle cx="28622" cy="41968.5" r="590.551" /> 
<circle cx="28641.7" cy="39389.8" r="1240.16" /> 
<circle cx="28622" cy="44429.1" r="1555.12" /> 
<circle cx="23582.7" cy="41968.5" r="590.551" /> 
<circle cx="23602.4" cy="39389.8" r="1240.16" /> 
<circle cx="23582.7" cy="44429.1" r="1555.12" /> 
<circle cx="18582.7" cy="41968.5" r="590.551" /> 
<circle cx="18602.4" cy="39389.8" r="1240.16" /> 
<circle cx="18582.7" cy="44429.1" r="1555.12" /> 
<circle cx="13582.7" cy="41968.5" r="590.551" /> 
<circle cx="13602.4" cy="39389.8" r="1240.16" /> 
<circle cx="13582.7" cy="44429.1" r="1555.12" /> 
<circle cx="8622.05" cy="41968.5" r="590.551" /> 
<circle cx="8641.73" cy="39389.8" r="1240.16" /> 
<circle cx="8622.05" cy="44429.1" r="1555.12" /> 
<circle cx="3582.68" cy="41968.5" r="590.551" /> 
<path d="M23110 31299
L23110 30354
" />
<path d="M34094 30354
L34094 31299
" />
<path d="M23070 27322
L23070 26377
" />
<path d="M34055 26377
L34055 27322
" />
<path d="M23070 23346
L23070 22401
" />
<path d="M34055 22401
L34055 23346
" />
<path d="M23070 19330
L23070 18385
" />
<path d="M34055 18385
L34055 19330
" />
<path d="M23070 35314
L23070 34370
" />
<path d="M34055 34370
L34055 35314
" />
<path d="M23070 11338
L23070 10393
" />
<path d="M34055 10393
L34055 11338
" />
<path d="M23070 15314
L23070 14370
" />
<path d="M34055 14370
L34055 15314
" />
<path d="M8740 31299
L8740 30354
" />
<path d="M19724 30354
L19724 31299
" />
<path d="M8700 27322
L8700 26377
" />
<path d="M19685 26377
L19685 27322
" />
<path d="M8700 23346
L8700 22401
" />
<path d="M19685 22401
L19685 23346
" />
<path d="M8700 19330
L8700 18385
" />
<path d="M19685 18385
L19685 19330
" />
<path d="M23070 7283
L23070 6338
" />
<path d="M34055 6338
L34055 7283
" />
<path d="M8700 35314
L8700 34370
" />
<path d="M19685 34370
L19685 35314
" />
<path d="M19685 14370
L19685 15314
" />
<path d="M8700 15314
L8700 14370
" />
<path d="M19685 10393
L19685 11338
" />
<path d="M8700 11338
L8700 10393
" />
<path d="M19685 6338
L19685 7283
" />
<path d="M8700 6338
L19685 6338
" />
<path d="M8700 7283
L8700 6338
" />
<circle cx="3582.68" cy="44429.1" r="1555.12" /> 
<circle cx="3582.68" cy="39409.4" r="1240.16" /> 
<path d="M4527 20708
L4527 36614
" />
<path d="M2559 20708
L4527 20708
" />
<path d="M2559 36614
L2559 20708
" />
<path d="M4527 36614
L2559 36614
" />
<circle cx="5945.21" cy="17047.2" r="590.879" /> 
<circle cx="3562.99" cy="17047.2" r="1240.16" /> 
<circle cx="3562.99" cy="12047.2" r="1240.16" /> 
<circle cx="3562.99" cy="7066.93" r="1240.16" /> 
</g> 
</svg>
