<?xml version="1.0" standalone="no"?>
 <!DOCTYPE svg PUBLIC "-//W3C//DTD SVG 1.1//EN" 
 "http://www.w3.org/Graphics/SVG/1.1/DTD/svg11.dtd"> 
<svg xmlns="http://www.w3.org/2000/svg" version="1.1" 
    width="11.1582cm" height="3.98272cm" viewBox="0 0 43930 15680 ">
<title>SVG Picture created as NoiseTools_BnG_Panel-brd.svg date 2019/10/13 18:36:09 </title>
  <desc>Picture generated by PCBNEW </desc>
<g style="fill:#000000; fill-opacity:1;stroke:#000000; stroke-opacity:1;
stroke-linecap:round; stroke-linejoin:round; "
 transform="translate(0 0) scale(1 1)">
</g>
<g style="fill:#000000; fill-opacity:0.0; 
stroke:#000000; stroke-width:-0.000393701; stroke-opacity:1; 
stroke-linecap:round; stroke-linejoin:round;">
</g>
<g style="fill:#C25106; fill-opacity:0.0; 
stroke:#C25106; stroke-width:-0.000393701; stroke-opacity:1; 
stroke-linecap:round; stroke-linejoin:round;">
</g>
<g style="fill:#C25106; fill-opacity:0.0; 
stroke:#C25106; stroke-width:78.7402; stroke-opacity:1; 
stroke-linecap:round; stroke-linejoin:round;">
<circle cx="40984.3" cy="1220.47" r="631.15" /> 
<circle cx="40984.3" cy="14468.5" r="631.15" /> 
<circle cx="2992.13" cy="14468.5" r="631.15" /> 
<circle cx="2992.13" cy="1220.47" r="631.15" /> 
<path d="M26259.8 6456.69 A1046.27 1046.27 0.0 0 0 27834.6 6456.69 " />
<path d="M27834.6 5196.85 A1046.27 1046.27 0.0 0 0 26259.8 5196.85 " />
<path d="M27834 5196
L27834 6456
" />
<path d="M26259 6456
L26259 5196
" />
<path d="M10157.5 6476.38 A1046.27 1046.27 0.0 0 0 11732.3 6476.38 " />
<path d="M11732.3 5216.54 A1046.27 1046.27 0.0 0 0 10157.5 5216.54 " />
<path d="M10157 6476
L10157 5216
" />
<path d="M11732 5216
L11732 6476
" />
<circle cx="35885.8" cy="5846.46" r="629.921" /> 
<circle cx="24901.6" cy="5846.46" r="629.921" /> 
<circle cx="8759.84" cy="5846.46" r="629.921" /> 
<circle cx="32913.4" cy="5433.07" r="1240.16" /> 
<circle cx="21929.1" cy="5433.07" r="1240.16" /> 
<circle cx="16043.3" cy="5433.07" r="1240.16" /> 
<circle cx="32913.4" cy="10157.5" r="1240.16" /> 
<circle cx="27066.9" cy="10157.5" r="1240.16" /> 
<circle cx="21929.1" cy="10157.5" r="1240.16" /> 
<circle cx="16043.3" cy="10157.5" r="1240.16" /> 
<circle cx="10944.9" cy="10157.5" r="1240.16" /> 
<circle cx="39429.1" cy="7834.65" r="1771.65" /> 
<circle cx="4448.82" cy="7834.65" r="1771.65" /> 
<path d="M43897 39
L43897 15649
" />
<path d="M39 39
L43897 39
" />
<path d="M39 15649
L43897 15649
" />
<path d="M39 39
L39 15649
" />
</g> 
</svg>
