<?xml version="1.0" standalone="no"?>
 <!DOCTYPE svg PUBLIC "-//W3C//DTD SVG 1.1//EN" 
 "http://www.w3.org/Graphics/SVG/1.1/DTD/svg11.dtd"> 
<svg xmlns="http://www.w3.org/2000/svg" version="1.1" 
    width="12.5324cm" height="12.8676cm" viewBox="0 0 49340 50660 ">
<title>SVG Picture created as Mutamix_BnG_Panel-brd.svg date 2019/09/29 19:25:06 </title>
  <desc>Picture generated by PCBNEW </desc>
<g style="fill:#000000; fill-opacity:1;stroke:#000000; stroke-opacity:1;
stroke-linecap:round; stroke-linejoin:round; "
 transform="translate(0 0) scale(1 1)">
</g>
<g style="fill:#000000; fill-opacity:0.0; 
stroke:#000000; stroke-width:-0.000393701; stroke-opacity:1; 
stroke-linecap:round; stroke-linejoin:round;">
</g>
<g style="fill:#C25106; fill-opacity:0.0; 
stroke:#C25106; stroke-width:-0.000393701; stroke-opacity:1; 
stroke-linecap:round; stroke-linejoin:round;">
</g>
<g style="fill:#C25106; fill-opacity:0.0; 
stroke:#C25106; stroke-width:78.7402; stroke-opacity:1; 
stroke-linecap:round; stroke-linejoin:round;">
<circle cx="39634.4" cy="43503.9" r="1279.53" /> 
<circle cx="9732.85" cy="43503.9" r="1279.53" /> 
<circle cx="24654.1" cy="44763.8" r="1240.16" /> 
<circle cx="32567.5" cy="44744.1" r="1240.16" /> 
<circle cx="16839.1" cy="44744.1" r="1240.16" /> 
<circle cx="32567.5" cy="37598.4" r="1240.16" /> 
<circle cx="27410" cy="37598.4" r="1240.16" /> 
<circle cx="21917.9" cy="37598.4" r="1240.16" /> 
<circle cx="16819.5" cy="37598.4" r="1240.16" /> 
<circle cx="11681.7" cy="37598.4" r="1240.16" /> 
<circle cx="37646.2" cy="37598.4" r="1240.16" /> 
<circle cx="37646.2" cy="31318.9" r="1240.16" /> 
<circle cx="32567.5" cy="31318.9" r="1240.16" /> 
<circle cx="27410" cy="31318.9" r="1240.16" /> 
<circle cx="21917.9" cy="31318.9" r="1240.16" /> 
<circle cx="16819.5" cy="31318.9" r="1240.16" /> 
<circle cx="11681.7" cy="31318.9" r="1240.16" /> 
<path d="M38453 25767
L36878 25767
" />
<path d="M38453 22795
L38453 25748
" />
<path d="M36878 22795
L38453 22795
" />
<path d="M33374 25748
L31799 25748
" />
<path d="M33374 22795
L33374 25748
" />
<path d="M31799 22795
L33374 22795
" />
<path d="M28217 25748
L26642 25748
" />
<path d="M28217 22795
L28217 25748
" />
<path d="M26642 22795
L28217 22795
" />
<path d="M22724 25748
L21150 25748
" />
<path d="M22724 22795
L22724 25748
" />
<path d="M21150 22795
L22724 22795
" />
<path d="M17606 25748
L16032 25748
" />
<path d="M17606 22795
L17606 25748
" />
<path d="M16032 22795
L17606 22795
" />
<path d="M36878 25748
L36878 22795
" />
<path d="M31799 25748
L31799 22795
" />
<path d="M26642 25748
L26642 22795
" />
<path d="M21150 25748
L21150 22795
" />
<path d="M16032 25748
L16032 22795
" />
<path d="M10894 25748
L10894 22795
" />
<path d="M12469 25748
L10894 25748
" />
<path d="M12469 22795
L12469 25748
" />
<path d="M10894 22795
L12469 22795
" />
<path d="M38236 19291
L37055 19291
" />
<path d="M38236 8661
L38236 19291
" />
<path d="M37055 8661
L38236 8661
" />
<path d="M33177 8661
L33177 19291
" />
<path d="M33177 19291
L31996 19291
" />
<path d="M31996 8661
L33177 8661
" />
<path d="M26839 8661
L28020 8661
" />
<path d="M28020 19291
L26839 19291
" />
<path d="M28020 8661
L28020 19291
" />
<path d="M21347 8661
L22528 8661
" />
<path d="M22528 19291
L21347 19291
" />
<path d="M22528 8661
L22528 19291
" />
<path d="M37055 19291
L37055 8661
" />
<path d="M31996 19291
L31996 8661
" />
<path d="M26839 19291
L26839 8661
" />
<path d="M21347 19291
L21347 8661
" />
<path d="M16209 8661
L17390 8661
" />
<path d="M17390 19291
L16209 19291
" />
<path d="M17390 8661
L17390 19291
" />
<path d="M16209 19291
L16209 8661
" />
<path d="M11091 8661
L12272 8661
" />
<path d="M11091 19291
L11091 8661
" />
<path d="M12272 19291
L11091 19291
" />
<path d="M12272 8661
L12272 19291
" />
<circle cx="14280.1" cy="5314.96" r="610.236" /> 
<circle cx="37646.2" cy="5295.28" r="1023.62" /> 
<circle cx="32567.5" cy="5295.28" r="1023.62" /> 
<circle cx="27410" cy="5295.28" r="1023.62" /> 
<circle cx="21917.9" cy="5295.28" r="1023.62" /> 
<circle cx="16839.1" cy="5295.28" r="1023.62" /> 
<path d="M5461 4251
L8551 4251
" />
</g>
<g style="fill:#C25106; fill-opacity:0.0; 
stroke:#C25106; stroke-width:118.11; stroke-opacity:1; 
stroke-linecap:round; stroke-linejoin:round;">
<path d="M537 4403
L508 4431
L424 4460
L368 4460
L284 4431
L227 4375
L199 4319
L171 4206
L171 4122
L199 4010
L227 3953
L284 3897
L368 3869
L424 3869
L508 3897
L537 3925
" />
<path d="M874 4460
L818 4431
L790 4403
L762 4347
L762 4178
L790 4122
L818 4094
L874 4066
L958 4066
L1015 4094
L1043 4122
L1071 4178
L1071 4347
L1043 4403
L1015 4431
L958 4460
L874 4460
" />
<path d="M1577 4066
L1577 4460
" />
<path d="M1324 4066
L1324 4375
L1352 4431
L1408 4460
L1493 4460
L1549 4431
L1577 4403
" />
<path d="M1858 4066
L1858 4460
" />
<path d="M1858 4122
L1886 4094
L1943 4066
L2027 4066
L2083 4094
L2111 4150
L2111 4460
" />
<path d="M2308 4066
L2533 4066
" />
<path d="M2393 3869
L2393 4375
L2421 4431
L2477 4460
L2533 4460
" />
<path d="M2955 4431
L2899 4460
L2786 4460
L2730 4431
L2702 4375
L2702 4150
L2730 4094
L2786 4066
L2899 4066
L2955 4094
L2983 4150
L2983 4206
L2702 4263
" />
<path d="M3236 4460
L3236 4066
" />
<path d="M3236 4178
L3264 4122
L3293 4094
L3349 4066
L3405 4066
" />
<path d="M3574 4431
L3630 4460
L3742 4460
L3799 4431
L3827 4375
L3827 4347
L3799 4291
L3742 4263
L3658 4263
L3602 4235
L3574 4178
L3574 4150
L3602 4094
L3658 4066
L3742 4066
L3799 4094
" />
<path d="M4080 4460
L4080 4066
" />
<path d="M4080 3869
L4052 3897
L4080 3925
L4108 3897
L4080 3869
L4080 3925
" />
<path d="M4361 4066
L4361 4460
" />
<path d="M4361 4122
L4389 4094
L4446 4066
L4530 4066
L4586 4094
L4614 4150
L4614 4460
" />
<path d="M4895 4460
L4895 3869
" />
<path d="M4952 4235
L5120 4460
" />
<path d="M5120 4066
L4895 4291
" />
</g>
<g style="fill:#C25106; fill-opacity:0.0; 
stroke:#C25106; stroke-width:78.7402; stroke-opacity:1; 
stroke-linecap:round; stroke-linejoin:round;">
<circle cx="11721" cy="5295.28" r="1023.62" /> 
<path d="M40815 4251
L43945 4251
" />
<circle cx="40776.2" cy="5374.02" r="1082.68" /> 
<circle cx="40776.2" cy="5374.02" r="649.606" /> 
</g>
<g style="fill:#C25106; fill-opacity:0.0; 
stroke:#C25106; stroke-width:118.11; stroke-opacity:1; 
stroke-linecap:round; stroke-linejoin:round;">
<path d="M44592 4482
L44564 4510
L44479 4538
L44423 4538
L44339 4510
L44282 4454
L44254 4398
L44226 4285
L44226 4201
L44254 4088
L44282 4032
L44339 3976
L44423 3948
L44479 3948
L44564 3976
L44592 4004
" />
<path d="M44929 4538
L44873 4510
L44845 4482
L44817 4426
L44817 4257
L44845 4201
L44873 4173
L44929 4145
L45014 4145
L45070 4173
L45098 4201
L45126 4257
L45126 4426
L45098 4482
L45070 4510
L45014 4538
L44929 4538
" />
<path d="M45632 4145
L45632 4538
" />
<path d="M45379 4145
L45379 4454
L45407 4510
L45464 4538
L45548 4538
L45604 4510
L45632 4482
" />
<path d="M45913 4145
L45913 4538
" />
<path d="M45913 4201
L45942 4173
L45998 4145
L46082 4145
L46138 4173
L46167 4229
L46167 4538
" />
<path d="M46363 4145
L46588 4145
" />
<path d="M46448 3948
L46448 4454
L46476 4510
L46532 4538
L46588 4538
" />
<path d="M47010 4510
L46954 4538
L46841 4538
L46785 4510
L46757 4454
L46757 4229
L46785 4173
L46841 4145
L46954 4145
L47010 4173
L47038 4229
L47038 4285
L46757 4341
" />
<path d="M47291 4538
L47291 4145
" />
<path d="M47291 4257
L47320 4201
L47348 4173
L47404 4145
L47460 4145
" />
<path d="M47629 4510
L47685 4538
L47798 4538
L47854 4510
L47882 4454
L47882 4426
L47854 4370
L47798 4341
L47713 4341
L47657 4313
L47629 4257
L47629 4229
L47657 4173
L47713 4145
L47798 4145
L47854 4173
" />
<path d="M48135 4538
L48135 4145
" />
<path d="M48135 3948
L48107 3976
L48135 4004
L48163 3976
L48135 3948
L48135 4004
" />
<path d="M48416 4145
L48416 4538
" />
<path d="M48416 4201
L48444 4173
L48501 4145
L48585 4145
L48641 4173
L48669 4229
L48669 4538
" />
<path d="M48951 4538
L48951 3948
" />
<path d="M49007 4313
L49176 4538
" />
<path d="M49176 4145
L48951 4370
" />
</g>
<g style="fill:#C25106; fill-opacity:0.0; 
stroke:#C25106; stroke-width:78.7402; stroke-opacity:1; 
stroke-linecap:round; stroke-linejoin:round;">
<circle cx="8571.43" cy="5374.02" r="1082.68" /> 
<circle cx="8571.43" cy="5374.02" r="649.606" /> 
<circle cx="39516.3" cy="49448.8" r="629.921" /> 
<circle cx="39516.3" cy="1220.47" r="629.921" /> 
<circle cx="9516.31" cy="49448.8" r="629.921" /> 
<circle cx="9516.31" cy="1220.47" r="629.921" /> 
<path d="M6563 50629
L6563 39
" />
<path d="M42508 50629
L6563 50629
" />
<path d="M42508 39
L42508 50629
" />
<path d="M6563 39
L42508 39
" />
</g> 
</svg>
