<?xml version="1.0" standalone="no"?>
 <!DOCTYPE svg PUBLIC "-//W3C//DTD SVG 1.1//EN" 
 "http://www.w3.org/Graphics/SVG/1.1/DTD/svg11.dtd"> 
<svg xmlns="http://www.w3.org/2000/svg" version="1.1" 
    width="13.1877cm" height="12.8676cm" viewBox="0 0 51920 50660 ">
<title>SVG Picture created as BitBox_BnG_Panel-Eco2.User.svg date 2020/05/22 19:50:11 </title>
  <desc>Picture generated by PCBNEW </desc>
<g style="fill:#000000; fill-opacity:1;stroke:#000000; stroke-opacity:1;
stroke-linecap:round; stroke-linejoin:round; "
 transform="translate(0 0) scale(1 1)">
</g>
<g style="fill:#000000; fill-opacity:0.0; 
stroke:#000000; stroke-width:-0.000393701; stroke-opacity:1; 
stroke-linecap:round; stroke-linejoin:round;">
</g>
<g style="fill:#D35517; fill-opacity:0.0; 
stroke:#D35517; stroke-width:-0.000393701; stroke-opacity:1; 
stroke-linecap:round; stroke-linejoin:round;">
</g>
<g style="fill:#D35517; fill-opacity:0.0; 
stroke:#D35517; stroke-width:19.685; stroke-opacity:1; 
stroke-linecap:round; stroke-linejoin:round;">
<circle cx="47027.6" cy="44921.3" r="1279.53" /> 
<circle cx="47027.6" cy="40393.7" r="1279.53" /> 
</g>
<g style="fill:#D35517; fill-opacity:0.0; 
stroke:#D35517; stroke-width:78.7402; stroke-opacity:1; 
stroke-linecap:round; stroke-linejoin:round;">
<circle cx="47027.6" cy="35866.1" r="1279.53" /> 
<circle cx="47027.6" cy="31338.6" r="1279.53" /> 
<circle cx="37381.9" cy="31338.6" r="1279.53" /> 
<circle cx="37381.9" cy="35866.1" r="1279.53" /> 
<circle cx="37381.9" cy="40393.7" r="1279.53" /> 
<circle cx="37381.9" cy="44921.3" r="1279.53" /> 
<circle cx="31673.2" cy="44921.3" r="1279.53" /> 
<circle cx="31673.2" cy="40393.7" r="1279.53" /> 
<circle cx="31673.2" cy="35866.1" r="1279.53" /> 
<circle cx="31673.2" cy="31338.6" r="1279.53" /> 
<circle cx="25964.6" cy="31338.6" r="1279.53" /> 
<circle cx="25964.6" cy="35866.1" r="1279.53" /> 
<circle cx="25964.6" cy="40393.7" r="1279.53" /> 
<circle cx="25964.6" cy="44921.3" r="1279.53" /> 
<circle cx="20255.9" cy="44921.3" r="1279.53" /> 
<circle cx="20255.9" cy="40393.7" r="1279.53" /> 
<circle cx="20255.9" cy="35866.1" r="1279.53" /> 
<circle cx="20255.9" cy="31338.6" r="1279.53" /> 
<circle cx="14547.2" cy="31338.6" r="1279.53" /> 
<circle cx="14547.2" cy="35866.1" r="1279.53" /> 
<circle cx="14547.2" cy="40393.7" r="1279.53" /> 
<circle cx="14547.2" cy="44921.3" r="1279.53" /> 
<circle cx="4901.58" cy="44921.3" r="1279.53" /> 
<circle cx="4901.58" cy="40393.7" r="1279.53" /> 
<circle cx="4901.58" cy="35866.1" r="1279.53" /> 
<circle cx="4901.58" cy="31338.6" r="1279.53" /> 
<circle cx="47126" cy="23464.6" r="1476.9" /> 
<circle cx="47126" cy="14409.4" r="1476.9" /> 
<circle cx="5000" cy="23464.6" r="1476.9" /> 
<circle cx="5000" cy="14409.4" r="1476.9" /> 
<circle cx="47027.6" cy="6732.28" r="1870.18" /> 
<circle cx="4901.58" cy="6732.28" r="1870.18" /> 
<path d="M11417 26968
L11417 4606
" />
<path d="M40511 26968
L11417 26968
" />
<path d="M40511 4606
L40511 26968
" />
<path d="M11417 4606
L40511 4606
" />
<path d="M9074 36259
L9074 30728
" />
<path d="M10374 36259
L9074 36259
" />
<path d="M10374 30728
L10374 36259
" />
<path d="M9074 30728
L10374 30728
" />
<circle cx="48976.4" cy="49448.8" r="629.921" /> 
<path d="M51889 50629
L51889 39
" />
<circle cx="48956.7" cy="1220.47" r="629.921" /> 
<circle cx="3011.81" cy="49448.8" r="629.921" /> 
<circle cx="2992.13" cy="1220.47" r="629.921" /> 
<path d="M39 50629
L39 39
" />
<path d="M51889 50629
L39 50629
" />
<path d="M39 39
L51889 39
" />
</g> 
</svg>
