<?xml version="1.0" standalone="no"?>
 <!DOCTYPE svg PUBLIC "-//W3C//DTD SVG 1.1//EN" 
 "http://www.w3.org/Graphics/SVG/1.1/DTD/svg11.dtd"> 
<svg xmlns="http://www.w3.org/2000/svg" version="1.1" 
    width="12.5781cm" height="12.8676cm" viewBox="0 0 49520 50660 ">
<title>SVG Picture created as DualADSR_BnG_Panel-brd.svg date 2019/10/22 21:15:58 </title>
  <desc>Picture generated by PCBNEW </desc>
<g style="fill:#000000; fill-opacity:1;stroke:#000000; stroke-opacity:1;
stroke-linecap:round; stroke-linejoin:round; "
 transform="translate(0 0) scale(1 1)">
</g>
<g style="fill:#000000; fill-opacity:0.0; 
stroke:#000000; stroke-width:-0.000393701; stroke-opacity:1; 
stroke-linecap:round; stroke-linejoin:round;">
</g>
<g style="fill:#C25106; fill-opacity:0.0; 
stroke:#C25106; stroke-width:-0.000393701; stroke-opacity:1; 
stroke-linecap:round; stroke-linejoin:round;">
</g>
<g style="fill:#C25106; fill-opacity:0.0; 
stroke:#C25106; stroke-width:78.7402; stroke-opacity:1; 
stroke-linecap:round; stroke-linejoin:round;">
<path d="M12173 4015
L5520 4015
" />
</g>
<g style="fill:#C25106; fill-opacity:0.0; 
stroke:#C25106; stroke-width:118.11; stroke-opacity:1; 
stroke-linecap:round; stroke-linejoin:round;">
<path d="M537 4147
L508 4176
L424 4204
L368 4204
L284 4176
L227 4119
L199 4063
L171 3951
L171 3866
L199 3754
L227 3697
L284 3641
L368 3613
L424 3613
L508 3641
L537 3669
" />
<path d="M874 4204
L818 4176
L790 4147
L762 4091
L762 3922
L790 3866
L818 3838
L874 3810
L958 3810
L1015 3838
L1043 3866
L1071 3922
L1071 4091
L1043 4147
L1015 4176
L958 4204
L874 4204
" />
<path d="M1577 3810
L1577 4204
" />
<path d="M1324 3810
L1324 4119
L1352 4176
L1408 4204
L1493 4204
L1549 4176
L1577 4147
" />
<path d="M1858 3810
L1858 4204
" />
<path d="M1858 3866
L1886 3838
L1943 3810
L2027 3810
L2083 3838
L2111 3894
L2111 4204
" />
<path d="M2308 3810
L2533 3810
" />
<path d="M2393 3613
L2393 4119
L2421 4176
L2477 4204
L2533 4204
" />
<path d="M2955 4176
L2899 4204
L2786 4204
L2730 4176
L2702 4119
L2702 3894
L2730 3838
L2786 3810
L2899 3810
L2955 3838
L2983 3894
L2983 3951
L2702 4007
" />
<path d="M3236 4204
L3236 3810
" />
<path d="M3236 3922
L3264 3866
L3293 3838
L3349 3810
L3405 3810
" />
<path d="M3574 4176
L3630 4204
L3742 4204
L3799 4176
L3827 4119
L3827 4091
L3799 4035
L3742 4007
L3658 4007
L3602 3979
L3574 3922
L3574 3894
L3602 3838
L3658 3810
L3742 3810
L3799 3838
" />
<path d="M4080 4204
L4080 3810
" />
<path d="M4080 3613
L4052 3641
L4080 3669
L4108 3641
L4080 3613
L4080 3669
" />
<path d="M4361 3810
L4361 4204
" />
<path d="M4361 3866
L4389 3838
L4446 3810
L4530 3810
L4586 3838
L4614 3894
L4614 4204
" />
<path d="M4895 4204
L4895 3613
" />
<path d="M4952 3979
L5120 4204
" />
<path d="M5120 3810
L4895 4035
" />
</g>
<g style="fill:#C25106; fill-opacity:0.0; 
stroke:#C25106; stroke-width:78.7402; stroke-opacity:1; 
stroke-linecap:round; stroke-linejoin:round;">
<path d="M12173 20098
L5520 20098
" />
</g>
<g style="fill:#C25106; fill-opacity:0.0; 
stroke:#C25106; stroke-width:118.11; stroke-opacity:1; 
stroke-linecap:round; stroke-linejoin:round;">
<path d="M537 20230
L508 20258
L424 20286
L368 20286
L284 20258
L227 20202
L199 20146
L171 20033
L171 19949
L199 19836
L227 19780
L284 19724
L368 19696
L424 19696
L508 19724
L537 19752
" />
<path d="M874 20286
L818 20258
L790 20230
L762 20174
L762 20005
L790 19949
L818 19921
L874 19893
L958 19893
L1015 19921
L1043 19949
L1071 20005
L1071 20174
L1043 20230
L1015 20258
L958 20286
L874 20286
" />
<path d="M1577 19893
L1577 20286
" />
<path d="M1324 19893
L1324 20202
L1352 20258
L1408 20286
L1493 20286
L1549 20258
L1577 20230
" />
<path d="M1858 19893
L1858 20286
" />
<path d="M1858 19949
L1886 19921
L1943 19893
L2027 19893
L2083 19921
L2111 19977
L2111 20286
" />
<path d="M2308 19893
L2533 19893
" />
<path d="M2393 19696
L2393 20202
L2421 20258
L2477 20286
L2533 20286
" />
<path d="M2955 20258
L2899 20286
L2786 20286
L2730 20258
L2702 20202
L2702 19977
L2730 19921
L2786 19893
L2899 19893
L2955 19921
L2983 19977
L2983 20033
L2702 20089
" />
<path d="M3236 20286
L3236 19893
" />
<path d="M3236 20005
L3264 19949
L3293 19921
L3349 19893
L3405 19893
" />
<path d="M3574 20258
L3630 20286
L3742 20286
L3799 20258
L3827 20202
L3827 20174
L3799 20118
L3742 20089
L3658 20089
L3602 20061
L3574 20005
L3574 19977
L3602 19921
L3658 19893
L3742 19893
L3799 19921
" />
<path d="M4080 20286
L4080 19893
" />
<path d="M4080 19696
L4052 19724
L4080 19752
L4108 19724
L4080 19696
L4080 19752
" />
<path d="M4361 19893
L4361 20286
" />
<path d="M4361 19949
L4389 19921
L4446 19893
L4530 19893
L4586 19921
L4614 19977
L4614 20286
" />
<path d="M4895 20286
L4895 19696
" />
<path d="M4952 20061
L5120 20286
" />
<path d="M5120 19893
L4895 20118
" />
</g>
<g style="fill:#C25106; fill-opacity:0.0; 
stroke:#C25106; stroke-width:19.685; stroke-opacity:1; 
stroke-linecap:round; stroke-linejoin:round;">
<circle cx="36130.5" cy="44645.7" r="1240.16" /> 
<circle cx="31799.8" cy="44645.7" r="1240.16" /> 
<circle cx="27469.1" cy="44645.7" r="1240.16" /> 
<circle cx="21976.9" cy="44645.7" r="1240.16" /> 
<circle cx="17665.9" cy="44645.7" r="1240.16" /> 
</g>
<g style="fill:#C25106; fill-opacity:0.0; 
stroke:#C25106; stroke-width:78.7402; stroke-opacity:1; 
stroke-linecap:round; stroke-linejoin:round;">
<circle cx="36130.5" cy="39547.2" r="1240.16" /> 
<circle cx="31799.8" cy="39547.2" r="1240.16" /> 
<circle cx="27469.1" cy="39547.2" r="1240.16" /> 
<circle cx="21976.9" cy="39547.2" r="1240.16" /> 
</g>
<g style="fill:#C25106; fill-opacity:0.0; 
stroke:#C25106; stroke-width:118.11; stroke-opacity:1; 
stroke-linecap:round; stroke-linejoin:round;">
<path d="M44769 4226
L44741 4254
L44656 4282
L44600 4282
L44516 4254
L44460 4198
L44431 4142
L44403 4029
L44403 3945
L44431 3832
L44460 3776
L44516 3720
L44600 3692
L44656 3692
L44741 3720
L44769 3748
" />
<path d="M45106 4282
L45050 4254
L45022 4226
L44994 4170
L44994 4001
L45022 3945
L45050 3917
L45106 3889
L45191 3889
L45247 3917
L45275 3945
L45303 4001
L45303 4170
L45275 4226
L45247 4254
L45191 4282
L45106 4282
" />
<path d="M45809 3889
L45809 4282
" />
<path d="M45556 3889
L45556 4198
L45584 4254
L45641 4282
L45725 4282
L45781 4254
L45809 4226
" />
<path d="M46091 3889
L46091 4282
" />
<path d="M46091 3945
L46119 3917
L46175 3889
L46259 3889
L46316 3917
L46344 3973
L46344 4282
" />
<path d="M46541 3889
L46766 3889
" />
<path d="M46625 3692
L46625 4198
L46653 4254
L46709 4282
L46766 4282
" />
<path d="M47187 4254
L47131 4282
L47019 4282
L46962 4254
L46934 4198
L46934 3973
L46962 3917
L47019 3889
L47131 3889
L47187 3917
L47215 3973
L47215 4029
L46934 4086
" />
<path d="M47469 4282
L47469 3889
" />
<path d="M47469 4001
L47497 3945
L47525 3917
L47581 3889
L47637 3889
" />
<path d="M47806 4254
L47862 4282
L47975 4282
L48031 4254
L48059 4198
L48059 4170
L48031 4114
L47975 4086
L47890 4086
L47834 4057
L47806 4001
L47806 3973
L47834 3917
L47890 3889
L47975 3889
L48031 3917
" />
<path d="M48312 4282
L48312 3889
" />
<path d="M48312 3692
L48284 3720
L48312 3748
L48340 3720
L48312 3692
L48312 3748
" />
<path d="M48593 3889
L48593 4282
" />
<path d="M48593 3945
L48622 3917
L48678 3889
L48762 3889
L48818 3917
L48847 3973
L48847 4282
" />
<path d="M49128 4282
L49128 3692
" />
<path d="M49184 4057
L49353 4282
" />
<path d="M49353 3889
L49128 4114
" />
</g>
<g style="fill:#C25106; fill-opacity:0.0; 
stroke:#C25106; stroke-width:78.7402; stroke-opacity:1; 
stroke-linecap:round; stroke-linejoin:round;">
<path d="M44043 3996
L37390 3996
" />
<circle cx="17665.9" cy="39547.2" r="1240.16" /> 
</g>
<g style="fill:#C25106; fill-opacity:0.0; 
stroke:#C25106; stroke-width:19.685; stroke-opacity:1; 
stroke-linecap:round; stroke-linejoin:round;">
<circle cx="13335.2" cy="44645.7" r="1240.16" /> 
</g>
<g style="fill:#C25106; fill-opacity:0.0; 
stroke:#C25106; stroke-width:78.7402; stroke-opacity:1; 
stroke-linecap:round; stroke-linejoin:round;">
<circle cx="13335.2" cy="39547.2" r="1240.16" /> 
<circle cx="14949.4" cy="28897.6" r="629.921" /> 
<circle cx="14949.4" cy="12755.9" r="629.921" /> 
<circle cx="33039.9" cy="22185" r="629.921" /> 
<path d="M36504 23937
L35323 23937
" />
<path d="M36504 34566
L36504 23937
" />
<path d="M35323 34566
L36504 34566
" />
<path d="M30638 23937
L29457 23937
" />
<path d="M30638 34566
L30638 23937
" />
<path d="M29457 34566
L30638 34566
" />
<path d="M24713 23937
L23532 23937
" />
<path d="M24713 34566
L24713 23937
" />
<path d="M23532 34566
L24713 34566
" />
<path d="M35323 23937
L35323 34566
" />
<path d="M29457 23937
L29457 34566
" />
<path d="M23532 23937
L23532 34566
" />
<circle cx="12213.2" cy="21181.1" r="629.921" /> 
<circle cx="12193.5" cy="21181.1" r="1082.86" /> 
<path d="M13374 24921
L11760 24921
" />
<path d="M11760 24921
L11760 27283
" />
<path d="M11760 27283
L13374 27283
" />
<path d="M13374 27283
L13374 24921
" />
<path d="M13335 31338
L11760 31338
" />
<path d="M11760 31338
L11760 34291
" />
<path d="M11760 34291
L13335 34291
" />
<path d="M13335 34291
L13335 31338
" />
<path d="M18807 23937
L17626 23937
" />
<path d="M17626 23937
L17626 34566
" />
<path d="M18807 34566
L18807 23937
" />
<path d="M17626 34566
L18807 34566
" />
<circle cx="15303.9" cy="22165.5" r="1082.86" /> 
<circle cx="33039.9" cy="6102.36" r="629.921" /> 
<path d="M36504 7834
L35323 7834
" />
<path d="M36504 18464
L36504 7834
" />
<path d="M35323 18464
L36504 18464
" />
<path d="M30638 7834
L29457 7834
" />
<path d="M30638 18464
L30638 7834
" />
<path d="M29457 18464
L30638 18464
" />
<path d="M24713 7834
L23532 7834
" />
<path d="M24713 18464
L24713 7834
" />
<path d="M23532 18464
L24713 18464
" />
<path d="M35323 7834
L35323 18464
" />
<path d="M29457 7834
L29457 18464
" />
<path d="M23532 7834
L23532 18464
" />
<path d="M18807 18464
L18807 7834
" />
<path d="M17626 18464
L18807 18464
" />
<path d="M17626 7834
L17626 18464
" />
<path d="M18807 7834
L17626 7834
" />
<path d="M13335 18188
L13335 15236
" />
<path d="M11760 18188
L13335 18188
" />
<path d="M11760 15236
L11760 18188
" />
<path d="M13335 15236
L11760 15236
" />
<path d="M13354 11181
L13354 8818
" />
<path d="M11740 11181
L13354 11181
" />
<path d="M11740 8818
L11740 11181
" />
<path d="M13354 8818
L11740 8818
" />
<circle cx="15303.9" cy="6082.86" r="1082.86" /> 
<path d="M38669 39
L38669 50629
" />
<circle cx="37370.6" cy="5078.74" r="1082.86" /> 
<circle cx="37370.6" cy="5078.74" r="629.921" /> 
<circle cx="12193.3" cy="5098.43" r="1082.86" /> 
<circle cx="12193.5" cy="5098.43" r="629.921" /> 
<circle cx="35756.5" cy="49448.8" r="629.921" /> 
<circle cx="35756.5" cy="1220.47" r="629.921" /> 
<circle cx="13748.6" cy="49448.8" r="629.921" /> 
<circle cx="13748.6" cy="1220.47" r="629.921" /> 
<path d="M10795 50629
L10795 39
" />
<path d="M38669 50629
L10795 50629
" />
<path d="M10795 39
L38669 39
" />
</g> 
</svg>
