<?xml version="1.0" standalone="no"?>
 <!DOCTYPE svg PUBLIC "-//W3C//DTD SVG 1.1//EN" 
 "http://www.w3.org/Graphics/SVG/1.1/DTD/svg11.dtd"> 
<svg xmlns="http://www.w3.org/2000/svg" version="1.1" 
    width="4.04876cm" height="12.8676cm" viewBox="0 0 15940 50660 ">
<title>SVG Picture created as ALM_PNW_Template-brd.svg date 2019/04/01 09:37:57 </title>
  <desc>Picture generated by PCBNEW </desc>
<g style="fill:#000000; fill-opacity:1;stroke:#000000; stroke-opacity:1;
stroke-linecap:round; stroke-linejoin:round; "
 transform="translate(0 0) scale(1 1)">
</g>
<g style="fill:#000000; fill-opacity:0.0; 
stroke:#000000; stroke-width:-0.000393701; stroke-opacity:1; 
stroke-linecap:round; stroke-linejoin:round;">
</g>
<g style="fill:#C25106; fill-opacity:0.0; 
stroke:#C25106; stroke-width:-0.000393701; stroke-opacity:1; 
stroke-linecap:round; stroke-linejoin:round;">
</g>
<g style="fill:#C25106; fill-opacity:0.0; 
stroke:#C25106; stroke-width:78.7402; stroke-opacity:1; 
stroke-linecap:round; stroke-linejoin:round;">
<path d="M39 50629
L39 39
" />
<path d="M15905 50629
L39 50629
" />
<path d="M15905 39
L15905 50629
" />
<path d="M39 39
L15905 39
" />
<circle cx="2992.13" cy="49448.8" r="629.921" /> 
<circle cx="2992.13" cy="1220.47" r="629.921" /> 
<circle cx="12204.7" cy="27007.9" r="2007.97" /> 
<circle cx="12204.7" cy="20551.2" r="1574.8" /> 
<circle cx="2106.3" cy="32283.5" r="629.921" /> 
<circle cx="6023.62" cy="32283.5" r="629.921" /> 
<circle cx="9960.63" cy="32283.5" r="629.921" /> 
<circle cx="13976.4" cy="32283.5" r="629.921" /> 
<circle cx="13976.4" cy="38976.4" r="629.921" /> 
<circle cx="9960.63" cy="38976.4" r="629.921" /> 
<circle cx="6062.99" cy="38976.4" r="629.921" /> 
<circle cx="2106.3" cy="38976.4" r="629.921" /> 
<circle cx="13976.4" cy="42519.7" r="1318.9" /> 
<circle cx="10000" cy="42519.7" r="1318.9" /> 
<circle cx="6062.99" cy="42519.7" r="1318.9" /> 
<circle cx="2106.3" cy="42519.7" r="1318.9" /> 
<circle cx="13976.4" cy="35826.8" r="1318.9" /> 
<circle cx="10000" cy="35826.8" r="1318.9" /> 
<circle cx="6062.99" cy="35826.8" r="1318.9" /> 
<circle cx="2106.3" cy="35826.8" r="1318.9" /> 
<circle cx="13976.4" cy="7795.28" r="1279.53" /> 
<circle cx="10000" cy="7795.28" r="1279.53" /> 
<circle cx="6062.99" cy="7795.28" r="1279.53" /> 
<path d="M12913 15275
L12913 13031
" />
<path d="M3346 15669
L12519 15669
" />
<path d="M2952 13031
L2952 15275
" />
<path d="M12519 12637
L3346 12637
" />
<path d="M12913.4 13031.5 A393.701 393.701 0.0 0 0 12519.7 12637.8 " />
<path d="M12519.7 15669.3 A393.701 393.701 0.0 0 0 12913.4 15275.6 " />
<path d="M2952.76 15275.6 A393.701 393.701 0.0 0 0 3346.46 15669.3 " />
<path d="M3346.46 12637.8 A393.701 393.701 0.0 0 0 2952.76 13031.5 " />
<circle cx="2047.24" cy="7795.28" r="1279.53" /> 
</g> 
</svg>
