<?xml version="1.0" standalone="no"?>
 <!DOCTYPE svg PUBLIC "-//W3C//DTD SVG 1.1//EN" 
 "http://www.w3.org/Graphics/SVG/1.1/DTD/svg11.dtd"> 
<svg xmlns="http://www.w3.org/2000/svg" version="1.1" 
    width="4.04876cm" height="12.8676cm" viewBox="0 0 15940 50660 ">
<title>SVG Picture created as Contour_BnG_Panel-Eco2.User.svg date 2020/05/22 19:17:56 </title>
  <desc>Picture generated by PCBNEW </desc>
<g style="fill:#000000; fill-opacity:1;stroke:#000000; stroke-opacity:1;
stroke-linecap:round; stroke-linejoin:round; "
 transform="translate(0 0) scale(1 1)">
</g>
<g style="fill:#000000; fill-opacity:0.0; 
stroke:#000000; stroke-width:-0.000393701; stroke-opacity:1; 
stroke-linecap:round; stroke-linejoin:round;">
</g>
<g style="fill:#D35517; fill-opacity:0.0; 
stroke:#D35517; stroke-width:-0.000393701; stroke-opacity:1; 
stroke-linecap:round; stroke-linejoin:round;">
</g>
<g style="fill:#D35517; fill-opacity:0.0; 
stroke:#D35517; stroke-width:78.7402; stroke-opacity:1; 
stroke-linecap:round; stroke-linejoin:round;">
<circle cx="11496.1" cy="36082.7" r="1574.8" /> 
<circle cx="11496.1" cy="26850.4" r="1574.8" /> 
<circle cx="11496.1" cy="17578.7" r="1574.8" /> 
<circle cx="11496.1" cy="8346.46" r="1574.8" /> 
<circle cx="14547.2" cy="41003.9" r="629.921" /> 
<circle cx="6437.01" cy="41003.9" r="629.921" /> 
<circle cx="2086.61" cy="35098.4" r="629.921" /> 
<circle cx="13090.6" cy="44704.7" r="1279.53" /> 
<circle cx="7972.44" cy="44724.4" r="1279.53" /> 
<circle cx="2854.33" cy="44685" r="1279.53" /> 
<circle cx="2874.02" cy="39409.4" r="1279.53" /> 
<circle cx="2854.33" cy="30570.9" r="1279.53" /> 
<circle cx="2834.65" cy="14822.8" r="1279.53" /> 
<circle cx="2834.65" cy="6161.42" r="1279.53" /> 
<path d="M15905 50629
L15905 39
" />
<circle cx="3011.81" cy="49448.8" r="629.921" /> 
<circle cx="2992.13" cy="1220.47" r="629.921" /> 
<path d="M39 50629
L39 39
" />
<path d="M15905 50629
L39 50629
" />
<path d="M39 39
L15905 39
" />
</g> 
</svg>
