<?xml version="1.0" standalone="no"?>
 <!DOCTYPE svg PUBLIC "-//W3C//DTD SVG 1.1//EN" 
 "http://www.w3.org/Graphics/SVG/1.1/DTD/svg11.dtd"> 
<svg xmlns="http://www.w3.org/2000/svg" version="1.1" 
    width="5.06984cm" height="12.8676cm" viewBox="0 0 19960 50660 ">
<title>SVG Picture created as Muton_BnG_Panel-brd.svg date 2019/07/21 15:03:20 </title>
  <desc>Picture generated by PCBNEW </desc>
<g style="fill:#000000; fill-opacity:1;stroke:#000000; stroke-opacity:1;
stroke-linecap:round; stroke-linejoin:round; "
 transform="translate(0 0) scale(1 1)">
</g>
<g style="fill:#000000; fill-opacity:0.0; 
stroke:#000000; stroke-width:-0.000393701; stroke-opacity:1; 
stroke-linecap:round; stroke-linejoin:round;">
</g>
<g style="fill:#C25106; fill-opacity:0.0; 
stroke:#C25106; stroke-width:-0.000393701; stroke-opacity:1; 
stroke-linecap:round; stroke-linejoin:round;">
</g>
<g style="fill:#C25106; fill-opacity:0.0; 
stroke:#C25106; stroke-width:78.7402; stroke-opacity:1; 
stroke-linecap:round; stroke-linejoin:round;">
<circle cx="17755.9" cy="43858.3" r="1200.79" /> 
<circle cx="12834.6" cy="43937" r="1515.75" /> 
<circle cx="7795.28" cy="43858.3" r="1200.79" /> 
<circle cx="2519.69" cy="43858.3" r="1200.79" /> 
<circle cx="17755.9" cy="38582.7" r="1200.79" /> 
<circle cx="12834.6" cy="38661.4" r="1515.75" /> 
<circle cx="7795.28" cy="38563" r="1200.79" /> 
<circle cx="2519.69" cy="38582.7" r="1200.79" /> 
<circle cx="17755.9" cy="27992.1" r="1200.79" /> 
<circle cx="12834.6" cy="28031.5" r="1515.75" /> 
<circle cx="7795.28" cy="27992.1" r="1200.79" /> 
<circle cx="2519.69" cy="27992.1" r="1200.79" /> 
<circle cx="17755.9" cy="33267.7" r="1200.79" /> 
<circle cx="12834.6" cy="33346.5" r="1515.75" /> 
<circle cx="7795.28" cy="33267.7" r="1200.79" /> 
<circle cx="2500" cy="33287.4" r="1200.79" /> 
<circle cx="17736.2" cy="22696.9" r="1200.79" /> 
<circle cx="12815" cy="22696.9" r="1515.75" /> 
<circle cx="7755.91" cy="22696.9" r="1200.79" /> 
<circle cx="2500" cy="22696.9" r="1200.79" /> 
<circle cx="17736.2" cy="17421.3" r="1200.79" /> 
<circle cx="12815" cy="17421.3" r="1515.75" /> 
<circle cx="7755.91" cy="17421.3" r="1200.79" /> 
<circle cx="2500" cy="17421.3" r="1200.79" /> 
<circle cx="17736.2" cy="12145.7" r="1200.79" /> 
<circle cx="12815" cy="12106.3" r="1515.75" /> 
<circle cx="7755.91" cy="12145.7" r="1200.79" /> 
<circle cx="2500" cy="12145.7" r="1200.79" /> 
<circle cx="17677.2" cy="6830.71" r="1200.79" /> 
<circle cx="12795.3" cy="6811.02" r="1515.75" /> 
<circle cx="7755.91" cy="6830.71" r="1200.79" /> 
<circle cx="2500" cy="6830.71" r="1200.79" /> 
<circle cx="17007.9" cy="49448.8" r="629.921" /> 
<circle cx="17007.9" cy="1220.47" r="629.921" /> 
<circle cx="2992.13" cy="49448.8" r="629.921" /> 
<circle cx="2992.13" cy="1220.47" r="629.921" /> 
<path d="M39 50629
L39 39
" />
<path d="M19921 50629
L39 50629
" />
<path d="M19921 39
L19921 50629
" />
<path d="M39 39
L19921 39
" />
</g> 
</svg>
