<?xml version="1.0" standalone="no"?>
 <!DOCTYPE svg PUBLIC "-//W3C//DTD SVG 1.1//EN" 
 "http://www.w3.org/Graphics/SVG/1.1/DTD/svg11.dtd"> 
<svg xmlns="http://www.w3.org/2000/svg" version="1.1" 
    width="6.07822cm" height="12.8676cm" viewBox="0 0 23930 50660 ">
<title>SVG Picture created as QuadVCA_BnG_Panel-Eco2.User.svg date 2019/11/08 17:20:43 </title>
  <desc>Picture generated by PCBNEW </desc>
<g style="fill:#000000; fill-opacity:1;stroke:#000000; stroke-opacity:1;
stroke-linecap:round; stroke-linejoin:round; "
 transform="translate(0 0) scale(1 1)">
</g>
<g style="fill:#000000; fill-opacity:0.0; 
stroke:#000000; stroke-width:-0.000393701; stroke-opacity:1; 
stroke-linecap:round; stroke-linejoin:round;">
</g>
<g style="fill:#D35517; fill-opacity:0.0; 
stroke:#D35517; stroke-width:-0.000393701; stroke-opacity:1; 
stroke-linecap:round; stroke-linejoin:round;">
</g>
<g style="fill:#D35517; fill-opacity:0.0; 
stroke:#D35517; stroke-width:78.7402; stroke-opacity:1; 
stroke-linecap:round; stroke-linejoin:round;">
<circle cx="4724.41" cy="32007.9" r="629.921" /> 
<circle cx="4724.41" cy="23366.1" r="629.921" /> 
<circle cx="4704.72" cy="14783.5" r="629.921" /> 
<circle cx="4704.72" cy="6122.05" r="629.921" /> 
<circle cx="20216.5" cy="44567.1" r="1259.99" /> 
<circle cx="14704.7" cy="44567.1" r="1259.99" /> 
<circle cx="9232.28" cy="44567.1" r="1259.99" /> 
<circle cx="20196.9" cy="39468.5" r="1259.99" /> 
<circle cx="14685" cy="39468.5" r="1259.99" /> 
<circle cx="9232.44" cy="39468.5" r="1259.99" /> 
<circle cx="3700.79" cy="44567.1" r="1259.99" /> 
<circle cx="3700.79" cy="39468.7" r="1259.99" /> 
<path d="M13582 31653
L12362 31653
" />
<path d="M13582 30078
L12362 30078
" />
<path d="M13582.7 31653.5 A984.252 984.252 0.0 0 0 13582.7 30078.7 " />
<circle cx="7854.33" cy="32027.6" r="1279.53" /> 
<circle cx="2736.22" cy="34547.2" r="1259.99" /> 
<path d="M12362.2 30078.7 A984.252 984.252 0.0 0 0 12362.2 31653.5 " />
<circle cx="12972.4" cy="34606.3" r="1279.53" /> 
<circle cx="12972.4" cy="25964.6" r="1279.53" /> 
<circle cx="2736.22" cy="25905.5" r="1259.99" /> 
<path d="M13602.4 23011.8 A984.252 984.252 0.0 0 0 13602.4 21437 " />
<path d="M12381.9 21437 A984.252 984.252 0.0 0 0 12381.9 23011.8 " />
<path d="M13602 23011
L12381 23011
" />
<path d="M13602 21437
L12381 21437
" />
<circle cx="7854.33" cy="23385.8" r="1279.53" /> 
<path d="M13602 12775
L12381 12775
" />
<path d="M13602.4 14350.4 A984.252 984.252 0.0 0 0 13602.4 12775.6 " />
<path d="M13602 14350
L12381 14350
" />
<path d="M12381.9 12775.6 A984.252 984.252 0.0 0 0 12381.9 14350.4 " />
<circle cx="12972.4" cy="17303.2" r="1279.53" /> 
<circle cx="7854.33" cy="14744.1" r="1279.53" /> 
<circle cx="2736.22" cy="17263.8" r="1259.99" /> 
<path d="M12362.2 4153.54 A984.252 984.252 0.0 0 0 12362.2 5728.35 " />
<path d="M13582.7 5728.35 A984.252 984.252 0.0 0 0 13582.7 4153.54 " />
<path d="M13582 5728
L12362 5728
" />
<path d="M13582 4153
L12362 4153
" />
<circle cx="2736.22" cy="8641.73" r="1259.99" /> 
<circle cx="7854.33" cy="6122.05" r="1279.53" /> 
<circle cx="12972.4" cy="8681.1" r="1279.53" /> 
<circle cx="19862.2" cy="32066.9" r="1771.65" /> 
<circle cx="19862.2" cy="23405.5" r="1771.65" /> 
<circle cx="19862.2" cy="14763.8" r="1771.65" /> 
<circle cx="19862.2" cy="6122.05" r="1771.65" /> 
<path d="M23897 50629
L23897 39
" />
<circle cx="20984.3" cy="1220.47" r="629.921" /> 
<circle cx="20984.3" cy="49448.8" r="629.921" /> 
<circle cx="3011.81" cy="49448.8" r="629.921" /> 
<circle cx="2992.13" cy="1220.47" r="629.921" /> 
<path d="M39 50629
L39 39
" />
<path d="M23897 50629
L39 50629
" />
<path d="M39 39
L23897 39
" />
</g> 
</svg>
