<?xml version="1.0" standalone="no"?>
 <!DOCTYPE svg PUBLIC "-//W3C//DTD SVG 1.1//EN" 
 "http://www.w3.org/Graphics/SVG/1.1/DTD/svg11.dtd"> 
<svg xmlns="http://www.w3.org/2000/svg" version="1.1" 
    width="3.92684cm" height="3.98272cm" viewBox="0 0 15460 15680 ">
<title>SVG Picture created as USBPower_BnG_Panel-Eco2.User.svg date 2020/05/22 19:13:59 </title>
  <desc>Picture generated by PCBNEW </desc>
<g style="fill:#000000; fill-opacity:1;stroke:#000000; stroke-opacity:1;
stroke-linecap:round; stroke-linejoin:round; "
 transform="translate(0 0) scale(1 1)">
</g>
<g style="fill:#000000; fill-opacity:0.0; 
stroke:#000000; stroke-width:-0.000393701; stroke-opacity:1; 
stroke-linecap:round; stroke-linejoin:round;">
</g>
<g style="fill:#D35517; fill-opacity:0.0; 
stroke:#D35517; stroke-width:-0.000393701; stroke-opacity:1; 
stroke-linecap:round; stroke-linejoin:round;">
</g>
<g style="fill:#D35517; fill-opacity:0.0; 
stroke:#D35517; stroke-width:118.11; stroke-opacity:1; 
stroke-linecap:round; stroke-linejoin:round;">
<path d="M10686 11017
L10658 11046
L10573 11074
L10517 11074
L10433 11046
L10376 10989
L10348 10933
L10320 10821
L10320 10736
L10348 10624
L10376 10568
L10433 10511
L10517 10483
L10573 10483
L10658 10511
L10686 10539
" />
<path d="M11023 11074
L10967 11046
L10939 11017
L10911 10961
L10911 10793
L10939 10736
L10967 10708
L11023 10680
L11107 10680
L11164 10708
L11192 10736
L11220 10793
L11220 10961
L11192 11017
L11164 11046
L11107 11074
L11023 11074
" />
<path d="M11726 10680
L11726 11074
" />
<path d="M11473 10680
L11473 10989
L11501 11046
L11557 11074
L11642 11074
L11698 11046
L11726 11017
" />
<path d="M12007 10680
L12007 11074
" />
<path d="M12007 10736
L12035 10708
L12092 10680
L12176 10680
L12232 10708
L12260 10764
L12260 11074
" />
<path d="M12457 10680
L12682 10680
" />
<path d="M12542 10483
L12542 10989
L12570 11046
L12626 11074
L12682 11074
" />
<path d="M13104 11046
L13048 11074
L12935 11074
L12879 11046
L12851 10989
L12851 10764
L12879 10708
L12935 10680
L13048 10680
L13104 10708
L13132 10764
L13132 10821
L12851 10877
" />
<path d="M13385 11074
L13385 10680
" />
<path d="M13385 10793
L13413 10736
L13442 10708
L13498 10680
L13554 10680
" />
<path d="M13723 11046
L13779 11074
L13892 11074
L13948 11046
L13976 10989
L13976 10961
L13948 10905
L13892 10877
L13807 10877
L13751 10849
L13723 10793
L13723 10764
L13751 10708
L13807 10680
L13892 10680
L13948 10708
" />
<path d="M14229 11074
L14229 10680
" />
<path d="M14229 10483
L14201 10511
L14229 10539
L14257 10511
L14229 10483
L14229 10539
" />
<path d="M14510 10680
L14510 11074
" />
<path d="M14510 10736
L14538 10708
L14595 10680
L14679 10680
L14735 10708
L14763 10764
L14763 11074
" />
<path d="M15044 11074
L15044 10483
" />
<path d="M15101 10849
L15269 11074
" />
<path d="M15269 10680
L15044 10905
" />
</g>
<g style="fill:#D35517; fill-opacity:0.0; 
stroke:#D35517; stroke-width:78.7402; stroke-opacity:1; 
stroke-linecap:round; stroke-linejoin:round;">
<path d="M5039 10787
L10039 10787
" />
<path d="M5059 4901
L10059 4901
" />
</g>
<g style="fill:#D35517; fill-opacity:0.0; 
stroke:#D35517; stroke-width:118.11; stroke-opacity:1; 
stroke-linecap:round; stroke-linejoin:round;">
<path d="M10705 5132
L10677 5160
L10593 5188
L10537 5188
L10452 5160
L10396 5104
L10368 5047
L10340 4935
L10340 4850
L10368 4738
L10396 4682
L10452 4625
L10537 4597
L10593 4597
L10677 4625
L10705 4654
" />
<path d="M11043 5188
L10987 5160
L10958 5132
L10930 5075
L10930 4907
L10958 4850
L10987 4822
L11043 4794
L11127 4794
L11183 4822
L11212 4850
L11240 4907
L11240 5075
L11212 5132
L11183 5160
L11127 5188
L11043 5188
" />
<path d="M11746 4794
L11746 5188
" />
<path d="M11493 4794
L11493 5104
L11521 5160
L11577 5188
L11661 5188
L11718 5160
L11746 5132
" />
<path d="M12027 4794
L12027 5188
" />
<path d="M12027 4850
L12055 4822
L12111 4794
L12196 4794
L12252 4822
L12280 4879
L12280 5188
" />
<path d="M12477 4794
L12702 4794
" />
<path d="M12561 4597
L12561 5104
L12589 5160
L12646 5188
L12702 5188
" />
<path d="M13124 5160
L13068 5188
L12955 5188
L12899 5160
L12871 5104
L12871 4879
L12899 4822
L12955 4794
L13068 4794
L13124 4822
L13152 4879
L13152 4935
L12871 4991
" />
<path d="M13405 5188
L13405 4794
" />
<path d="M13405 4907
L13433 4850
L13461 4822
L13517 4794
L13574 4794
" />
<path d="M13742 5160
L13799 5188
L13911 5188
L13967 5160
L13996 5104
L13996 5075
L13967 5019
L13911 4991
L13827 4991
L13771 4963
L13742 4907
L13742 4879
L13771 4822
L13827 4794
L13911 4794
L13967 4822
" />
<path d="M14249 5188
L14249 4794
" />
<path d="M14249 4597
L14221 4625
L14249 4654
L14277 4625
L14249 4597
L14249 4654
" />
<path d="M14530 4794
L14530 5188
" />
<path d="M14530 4850
L14558 4822
L14614 4794
L14699 4794
L14755 4822
L14783 4879
L14783 5188
" />
<path d="M15064 5188
L15064 4597
" />
<path d="M15120 4963
L15289 5188
" />
<path d="M15289 4794
L15064 5019
" />
</g>
<g style="fill:#D35517; fill-opacity:0.0; 
stroke:#D35517; stroke-width:39.3701; stroke-opacity:1; 
stroke-linecap:round; stroke-linejoin:round;">
<circle cx="3976.38" cy="10787.4" r="984.252" /> 
<circle cx="3976.38" cy="4881.89" r="984.252" /> 
</g>
<g style="fill:#D35517; fill-opacity:0.0; 
stroke:#D35517; stroke-width:78.7402; stroke-opacity:1; 
stroke-linecap:round; stroke-linejoin:round;">
<circle cx="3976.38" cy="10787.4" r="629.921" /> 
<circle cx="3976.38" cy="4881.89" r="630.229" /> 
<path d="M6850 6417
L6850 9271
" />
<path d="M6850 6417
L1102 6417
" />
<path d="M1102 9271
L1102 6417
" />
<path d="M1102 9271
L6850 9271
" />
<circle cx="2992.13" cy="14468.5" r="634.824" /> 
<circle cx="2992.13" cy="1220.47" r="634.824" /> 
<path d="M7913 39
L7913 15649
" />
<path d="M39 39
L7913 39
" />
<path d="M39 15649
L7913 15649
" />
<path d="M39 39
L39 15649
" />
</g> 
</svg>
