<?xml version="1.0" standalone="no"?>
 <!DOCTYPE svg PUBLIC "-//W3C//DTD SVG 1.1//EN" 
 "http://www.w3.org/Graphics/SVG/1.1/DTD/svg11.dtd"> 
<svg xmlns="http://www.w3.org/2000/svg" version="1.1" 
    width="3.01752cm" height="12.8676cm" viewBox="0 0 11880 50660 ">
<title>SVG Picture created as MixupV2_BnG_Panel-Eco2.User.svg date 2020/05/22 19:15:21 </title>
  <desc>Picture generated by PCBNEW </desc>
<g style="fill:#000000; fill-opacity:1;stroke:#000000; stroke-opacity:1;
stroke-linecap:round; stroke-linejoin:round; "
 transform="translate(0 0) scale(1 1)">
</g>
<g style="fill:#000000; fill-opacity:0.0; 
stroke:#000000; stroke-width:-0.000393701; stroke-opacity:1; 
stroke-linecap:round; stroke-linejoin:round;">
</g>
<g style="fill:#D35517; fill-opacity:0.0; 
stroke:#D35517; stroke-width:-0.000393701; stroke-opacity:1; 
stroke-linecap:round; stroke-linejoin:round;">
</g>
<g style="fill:#D35517; fill-opacity:0.0; 
stroke:#D35517; stroke-width:78.7402; stroke-opacity:1; 
stroke-linecap:round; stroke-linejoin:round;">
<path d="M3031 21929
L3031 23188
" />
<path d="M1456 23188
L1456 21929
" />
<path d="M3031.5 21929.1 A984.252 984.252 0.0 0 0 1456.69 21929.1 " />
<path d="M1456.69 23189 A984.252 984.252 0.0 0 0 3031.5 23189 " />
<path d="M3031 13681
L3031 14940
" />
<path d="M1456 14940
L1456 13681
" />
<path d="M3031.5 13681.1 A984.252 984.252 0.0 0 0 1456.69 13681.1 " />
<path d="M1456.69 14940.9 A984.252 984.252 0.0 0 0 3031.5 14940.9 " />
<path d="M1456.69 23189 A984.252 984.252 0.0 0 0 3031.5 23189 " />
<path d="M3031.5 21929.1 A984.252 984.252 0.0 0 0 1456.69 21929.1 " />
<path d="M1456 23188
L1456 21929
" />
<path d="M3031 21929
L3031 23188
" />
<path d="M3031 13681
L3031 14940
" />
<path d="M1456 14940
L1456 13681
" />
<path d="M3031.5 13681.1 A984.252 984.252 0.0 0 0 1456.69 13681.1 " />
<path d="M1456.69 14940.9 A984.252 984.252 0.0 0 0 3031.5 14940.9 " />
<circle cx="5944.88" cy="44586.6" r="631.15" /> 
</g>
<g style="fill:#D35517; fill-opacity:0.0; 
stroke:#D35517; stroke-width:39.3701; stroke-opacity:1; 
stroke-linecap:round; stroke-linejoin:round;">
<circle cx="9015.75" cy="44586.6" r="1240.16" /> 
<circle cx="2834.65" cy="44586.6" r="1240.16" /> 
</g>
<g style="fill:#D35517; fill-opacity:0.0; 
stroke:#D35517; stroke-width:78.7402; stroke-opacity:1; 
stroke-linecap:round; stroke-linejoin:round;">
<circle cx="8996.06" cy="39507.9" r="1240.16" /> 
<circle cx="2814.96" cy="39507.9" r="1240.16" /> 
<circle cx="8996.06" cy="34389.8" r="1240.16" /> 
<circle cx="2814.96" cy="34389.8" r="1240.16" /> 
<circle cx="9015.75" cy="29252" r="1240.16" /> 
<circle cx="2834.65" cy="29252" r="1240.16" /> 
<circle cx="7933.07" cy="22598.4" r="1377.95" /> 
<circle cx="7952.76" cy="14311" r="1771.65" /> 
<path d="M1456.69 6692.91 A984.252 984.252 0.0 0 0 3031.5 6692.91 " />
<path d="M3031.5 5433.07 A984.252 984.252 0.0 0 0 1456.69 5433.07 " />
<path d="M1456 6692
L1456 5433
" />
<path d="M3031 5433
L3031 6692
" />
<circle cx="7933.07" cy="6023.62" r="1771.65" /> 
<circle cx="2992.13" cy="49448.8" r="629.921" /> 
<circle cx="2992.13" cy="1220.47" r="629.921" /> 
<path d="M39 50629
L39 39
" />
<path d="M11850 50629
L39 50629
" />
<path d="M11850 39
L11850 50629
" />
<path d="M39 39
L11850 39
" />
</g> 
</svg>
