<?xml version="1.0" standalone="no"?>
 <!DOCTYPE svg PUBLIC "-//W3C//DTD SVG 1.1//EN" 
 "http://www.w3.org/Graphics/SVG/1.1/DTD/svg11.dtd"> 
<svg xmlns="http://www.w3.org/2000/svg" version="1.1" 
    width="12.1793cm" height="3.98272cm" viewBox="0 0 47950 15680 ">
<title>SVG Picture created as AudioIO_1U_BnG_Panel-brd.svg date 2019/10/24 18:33:14 </title>
  <desc>Picture generated by PCBNEW </desc>
<g style="fill:#000000; fill-opacity:1;stroke:#000000; stroke-opacity:1;
stroke-linecap:round; stroke-linejoin:round; "
 transform="translate(0 0) scale(1 1)">
</g>
<g style="fill:#000000; fill-opacity:0.0; 
stroke:#000000; stroke-width:-0.000393701; stroke-opacity:1; 
stroke-linecap:round; stroke-linejoin:round;">
</g>
<g style="fill:#C25106; fill-opacity:0.0; 
stroke:#C25106; stroke-width:-0.000393701; stroke-opacity:1; 
stroke-linecap:round; stroke-linejoin:round;">
</g>
<g style="fill:#C25106; fill-opacity:0.0; 
stroke:#C25106; stroke-width:78.7402; stroke-opacity:1; 
stroke-linecap:round; stroke-linejoin:round;">
<circle cx="42263.8" cy="7834.65" r="1377.95" /> 
</g>
<g style="fill:#C25106; fill-opacity:0.0; 
stroke:#C25106; stroke-width:19.685; stroke-opacity:1; 
stroke-linecap:round; stroke-linejoin:round;">
<circle cx="35374" cy="10177.2" r="1240.16" /> 
<circle cx="30275.6" cy="10177.2" r="1240.16" /> 
</g>
<g style="fill:#C25106; fill-opacity:0.0; 
stroke:#C25106; stroke-width:78.7402; stroke-opacity:1; 
stroke-linecap:round; stroke-linejoin:round;">
<circle cx="24960.6" cy="10177.2" r="1240.16" /> 
<circle cx="35374" cy="7224.41" r="629.921" /> 
<circle cx="30275.6" cy="7224.41" r="629.921" /> 
<circle cx="24940.9" cy="7224.41" r="629.921" /> 
<circle cx="35374" cy="5275.59" r="629.921" /> 
<circle cx="30275.6" cy="5275.59" r="629.921" /> 
<circle cx="24940.9" cy="5275.59" r="629.921" /> 
<circle cx="19881.9" cy="7224.41" r="629.921" /> 
<circle cx="19881.9" cy="5275.59" r="629.921" /> 
<circle cx="13208.7" cy="7814.96" r="1771.65" /> 
<circle cx="4566.93" cy="7814.96" r="1771.65" /> 
<circle cx="19881.9" cy="10177.2" r="1240.16" /> 
<circle cx="44960.6" cy="1220.47" r="634.824" /> 
<circle cx="44960.6" cy="14468.5" r="634.824" /> 
<path d="M47913 39
L47913 15649
" />
<circle cx="2992.13" cy="14468.5" r="634.824" /> 
<circle cx="2992.13" cy="1220.47" r="634.824" /> 
<path d="M39 39
L47913 39
" />
<path d="M39 15649
L47913 15649
" />
<path d="M39 39
L39 15649
" />
</g> 
</svg>
