<?xml version="1.0" standalone="no"?>
 <!DOCTYPE svg PUBLIC "-//W3C//DTD SVG 1.1//EN" 
 "http://www.w3.org/Graphics/SVG/1.1/DTD/svg11.dtd"> 
<svg xmlns="http://www.w3.org/2000/svg" version="1.1" 
    width="20.1219cm" height="12.8727cm" viewBox="0 0 79220 50680 ">
<title>SVG Picture created as Rainmaker_BnG_Panel-brd.svg date 2019/10/11 17:52:42 </title>
  <desc>Picture generated by PCBNEW </desc>
<g style="fill:#000000; fill-opacity:1;stroke:#000000; stroke-opacity:1;
stroke-linecap:round; stroke-linejoin:round; "
 transform="translate(0 0) scale(1 1)">
</g>
<g style="fill:#000000; fill-opacity:0.0; 
stroke:#000000; stroke-width:-0.000393701; stroke-opacity:1; 
stroke-linecap:round; stroke-linejoin:round;">
</g>
<g style="fill:#C25106; fill-opacity:0.0; 
stroke:#C25106; stroke-width:-0.000393701; stroke-opacity:1; 
stroke-linecap:round; stroke-linejoin:round;">
</g>
<g style="fill:#C25106; fill-opacity:0.0; 
stroke:#C25106; stroke-width:78.7402; stroke-opacity:1; 
stroke-linecap:round; stroke-linejoin:round;">
<circle cx="76228.9" cy="44665.4" r="1299.21" /> 
<circle cx="70717.1" cy="44665.4" r="1299.21" /> 
<circle cx="73453.3" cy="39173.2" r="1299.21" /> 
<circle cx="43197.4" cy="44645.7" r="1240.16" /> 
<circle cx="43197.4" cy="39133.9" r="1240.16" /> 
<circle cx="37646.2" cy="44645.7" r="1240.16" /> 
<circle cx="37646.2" cy="39133.9" r="1240.16" /> 
<circle cx="65205.3" cy="44645.7" r="1240.16" /> 
<circle cx="59693.5" cy="44645.7" r="1240.16" /> 
<circle cx="54201.3" cy="44645.7" r="1240.16" /> 
<circle cx="48669.9" cy="44645.7" r="1240.16" /> 
<circle cx="32134.4" cy="44645.7" r="1240.16" /> 
<circle cx="26642.3" cy="44645.7" r="1240.16" /> 
<circle cx="21150.2" cy="44645.7" r="1240.16" /> 
<circle cx="15618.7" cy="44645.7" r="1240.16" /> 
<circle cx="10126.5" cy="44645.7" r="1240.16" /> 
<circle cx="65225" cy="38366.1" r="1299.21" /> 
<circle cx="59713.2" cy="38366.1" r="1299.21" /> 
<circle cx="54201.3" cy="38366.1" r="1299.21" /> 
<circle cx="48689.5" cy="38366.1" r="1299.21" /> 
<circle cx="32154.1" cy="38366.1" r="1299.21" /> 
<circle cx="26662" cy="38366.1" r="1299.21" /> 
<circle cx="21169.9" cy="38366.1" r="1299.21" /> 
<circle cx="15638.4" cy="38366.1" r="1299.21" /> 
<circle cx="10146.2" cy="38366.1" r="1299.21" /> 
<circle cx="73433.6" cy="28878" r="1751.97" /> 
<circle cx="64378.5" cy="30866.1" r="1751.97" /> 
<circle cx="64437.6" cy="25354.3" r="629.921" /> 
<circle cx="67921.8" cy="25354.3" r="1003.94" /> 
<circle cx="60874.6" cy="25354.3" r="1003.94" /> 
<circle cx="56760.4" cy="26555.1" r="629.921" /> 
<circle cx="54004.5" cy="32027.6" r="1003.94" /> 
<circle cx="50264.3" cy="32027.6" r="1003.94" /> 
<circle cx="46524.2" cy="32027.6" r="1003.94" /> 
<circle cx="42784" cy="32027.6" r="1003.94" /> 
<circle cx="54004.5" cy="26555.1" r="1003.94" /> 
<circle cx="50264.3" cy="26555.1" r="1003.94" /> 
<circle cx="46524.2" cy="26555.1" r="1003.94" /> 
<circle cx="42784" cy="26555.1" r="1003.94" /> 
<circle cx="37272.2" cy="28917.3" r="629.921" /> 
<circle cx="37272.2" cy="25374" r="1003.94" /> 
<circle cx="37252.6" cy="32067" r="1811.13" /> 
<circle cx="21150.2" cy="30944.9" r="1751.97" /> 
<circle cx="30185.6" cy="28937" r="1751.97" /> 
<circle cx="12095.1" cy="28937" r="1751.97" /> 
<circle cx="21169.9" cy="25393.7" r="629.921" /> 
<circle cx="24673.8" cy="25334.6" r="1003.94" /> 
<circle cx="17626.5" cy="25334.6" r="1003.94" /> 
<circle cx="75736.8" cy="14724.4" r="1003.94" /> 
<circle cx="75736.8" cy="11614.2" r="1003.94" /> 
<circle cx="75736.8" cy="8444.88" r="1003.94" /> 
<circle cx="75736.8" cy="5314.96" r="1003.94" /> 
<circle cx="75776.2" cy="23759.8" r="629.921" /> 
<circle cx="75756.5" cy="19842.5" r="1811.13" /> 
<circle cx="65165.9" cy="8444.88" r="1397.64" /> 
<circle cx="67961.2" cy="18228.3" r="1397.64" /> 
<circle cx="62016.3" cy="16712.6" r="1003.94" /> 
<circle cx="50992.7" cy="16692.9" r="1003.94" /> 
<circle cx="56898.2" cy="18287.4" r="1751.97" /> 
<circle cx="45894.3" cy="18287.4" r="1751.97" /> 
<circle cx="42961.2" cy="6122.05" r="629.921" /> 
<circle cx="10933.6" cy="14173.2" r="629.921" /> 
<circle cx="10933.6" cy="12204.7" r="629.921" /> 
<circle cx="9319.46" cy="9586.61" r="1003.94" /> 
<circle cx="36484.8" cy="19468.5" r="1003.94" /> 
<circle cx="32744.7" cy="19468.5" r="1003.94" /> 
<circle cx="29004.5" cy="19468.5" r="1003.94" /> 
<circle cx="25264.3" cy="19468.5" r="1003.94" /> 
<circle cx="21524.2" cy="19468.5" r="1003.94" /> 
<circle cx="17803.7" cy="19468.5" r="1003.94" /> 
<circle cx="14083.2" cy="19468.5" r="1003.94" /> 
<circle cx="40185.6" cy="13129.9" r="1003.94" /> 
<circle cx="40205.3" cy="10807.1" r="629.921" /> 
<circle cx="40205.3" cy="8464.57" r="629.921" /> 
<circle cx="36465.1" cy="13129.9" r="1003.94" /> 
<circle cx="36484.8" cy="10807.1" r="629.921" /> 
<circle cx="36484.8" cy="8464.57" r="629.921" /> 
<circle cx="32725" cy="13129.9" r="1003.94" /> 
<circle cx="32744.7" cy="10807.1" r="629.921" /> 
<circle cx="32744.7" cy="8464.57" r="629.921" /> 
<circle cx="28984.8" cy="13129.9" r="1003.94" /> 
<circle cx="29004.5" cy="10807.1" r="629.921" /> 
<circle cx="29004.5" cy="8464.57" r="629.921" /> 
<circle cx="25244.7" cy="13129.9" r="1003.94" /> 
<circle cx="25264.3" cy="10807.1" r="629.921" /> 
<circle cx="25264.3" cy="8464.57" r="629.921" /> 
<circle cx="21504.5" cy="13129.9" r="1003.94" /> 
<circle cx="21524.2" cy="10807.1" r="629.921" /> 
<circle cx="21524.2" cy="8464.57" r="629.921" /> 
<circle cx="17764.3" cy="13129.9" r="1003.94" /> 
<circle cx="17784" cy="10807.1" r="629.921" /> 
<circle cx="17784" cy="8464.57" r="629.921" /> 
<circle cx="40185.6" cy="6082.68" r="1003.94" /> 
<circle cx="36465.1" cy="6082.68" r="1003.94" /> 
<circle cx="32725" cy="6082.68" r="1003.94" /> 
<circle cx="28984.8" cy="6082.68" r="1003.94" /> 
<circle cx="25244.7" cy="6082.68" r="1003.94" /> 
<circle cx="21504.5" cy="6082.68" r="1003.94" /> 
<circle cx="17764.3" cy="6082.68" r="1003.94" /> 
<circle cx="14063.6" cy="13129.9" r="1003.94" /> 
<circle cx="14083.2" cy="10807.1" r="629.921" /> 
<circle cx="14083.2" cy="8464.57" r="629.921" /> 
<circle cx="14063.6" cy="6082.68" r="1003.94" /> 
<path d="M9319 4645
L5441 4645
" />
</g>
<g style="fill:#C25106; fill-opacity:0.0; 
stroke:#C25106; stroke-width:118.11; stroke-opacity:1; 
stroke-linecap:round; stroke-linejoin:round;">
<path d="M537 4777
L508 4805
L424 4834
L368 4834
L284 4805
L227 4749
L199 4693
L171 4580
L171 4496
L199 4384
L227 4327
L284 4271
L368 4243
L424 4243
L508 4271
L537 4299
" />
<path d="M874 4834
L818 4805
L790 4777
L762 4721
L762 4552
L790 4496
L818 4468
L874 4440
L958 4440
L1015 4468
L1043 4496
L1071 4552
L1071 4721
L1043 4777
L1015 4805
L958 4834
L874 4834
" />
<path d="M1577 4440
L1577 4834
" />
<path d="M1324 4440
L1324 4749
L1352 4805
L1408 4834
L1493 4834
L1549 4805
L1577 4777
" />
<path d="M1858 4440
L1858 4834
" />
<path d="M1858 4496
L1886 4468
L1943 4440
L2027 4440
L2083 4468
L2111 4524
L2111 4834
" />
<path d="M2308 4440
L2533 4440
" />
<path d="M2393 4243
L2393 4749
L2421 4805
L2477 4834
L2533 4834
" />
<path d="M2955 4805
L2899 4834
L2786 4834
L2730 4805
L2702 4749
L2702 4524
L2730 4468
L2786 4440
L2899 4440
L2955 4468
L2983 4524
L2983 4580
L2702 4637
" />
<path d="M3236 4834
L3236 4440
" />
<path d="M3236 4552
L3264 4496
L3293 4468
L3349 4440
L3405 4440
" />
<path d="M3574 4805
L3630 4834
L3742 4834
L3799 4805
L3827 4749
L3827 4721
L3799 4665
L3742 4637
L3658 4637
L3602 4609
L3574 4552
L3574 4524
L3602 4468
L3658 4440
L3742 4440
L3799 4468
" />
<path d="M4080 4834
L4080 4440
" />
<path d="M4080 4243
L4052 4271
L4080 4299
L4108 4271
L4080 4243
L4080 4299
" />
<path d="M4361 4440
L4361 4834
" />
<path d="M4361 4496
L4389 4468
L4446 4440
L4530 4440
L4586 4468
L4614 4524
L4614 4834
" />
<path d="M4895 4834
L4895 4243
" />
<path d="M4952 4609
L5120 4834
" />
<path d="M5120 4440
L4895 4665
" />
</g>
<g style="fill:#C25106; fill-opacity:0.0; 
stroke:#C25106; stroke-width:78.7402; stroke-opacity:1; 
stroke-linecap:round; stroke-linejoin:round;">
<circle cx="9319.28" cy="5728.35" r="1082.86" /> 
<circle cx="9319.46" cy="5728.35" r="629.921" /> 
<path d="M59417 12185
L59417 4507
" />
<path d="M44732 12185
L59417 12185
" />
<path d="M44732 4507
L44732 12185
" />
<path d="M59417 4507
L44732 4507
" />
<circle cx="76268.3" cy="49448.8" r="629.921" /> 
<circle cx="76268.3" cy="1220.47" r="629.921" /> 
<circle cx="10284" cy="49448.8" r="629.921" /> 
<circle cx="10284" cy="1220.47" r="629.921" /> 
<path d="M7350 50649
L7350 59
" />
<path d="M79181 50629
L7331 50629
" />
<path d="M79181 39
L79181 50629
" />
<path d="M7331 39
L79181 39
" />
</g> 
</svg>
