<?xml version="1.0" standalone="no"?>
 <!DOCTYPE svg PUBLIC "-//W3C//DTD SVG 1.1//EN" 
 "http://www.w3.org/Graphics/SVG/1.1/DTD/svg11.dtd"> 
<svg xmlns="http://www.w3.org/2000/svg" version="1.1" 
    width="5.06984cm" height="12.8676cm" viewBox="0 0 19960 50660 ">
<title>SVG Picture created as Mangrove_BnG_Panel-Eco2.User.svg date 2020/05/22 19:31:12 </title>
  <desc>Picture generated by PCBNEW </desc>
<g style="fill:#000000; fill-opacity:1;stroke:#000000; stroke-opacity:1;
stroke-linecap:round; stroke-linejoin:round; "
 transform="translate(0 0) scale(1 1)">
</g>
<g style="fill:#000000; fill-opacity:0.0; 
stroke:#000000; stroke-width:-0.000393701; stroke-opacity:1; 
stroke-linecap:round; stroke-linejoin:round;">
</g>
<g style="fill:#D35517; fill-opacity:0.0; 
stroke:#D35517; stroke-width:-0.000393701; stroke-opacity:1; 
stroke-linecap:round; stroke-linejoin:round;">
</g>
<g style="fill:#D35517; fill-opacity:0.0; 
stroke:#D35517; stroke-width:118.11; stroke-opacity:1; 
stroke-linecap:round; stroke-linejoin:round;">
<circle cx="16889.8" cy="49448.8" r="634.824" /> 
<circle cx="16929.1" cy="1220.47" r="634.824" /> 
<circle cx="2992.13" cy="49448.8" r="634.824" /> 
<circle cx="2992.13" cy="1220.47" r="634.824" /> 
</g>
<g style="fill:#D35517; fill-opacity:0.0; 
stroke:#D35517; stroke-width:78.7402; stroke-opacity:1; 
stroke-linecap:round; stroke-linejoin:round;">
<circle cx="12322.8" cy="44488.2" r="1240.16" /> 
<circle cx="16811" cy="44488.2" r="1240.16" /> 
<circle cx="7795.28" cy="26102.4" r="1240.16" /> 
<circle cx="7795.28" cy="20944.9" r="1240.16" /> 
<circle cx="3307.09" cy="34015.7" r="1240.16" /> 
<circle cx="3307.09" cy="28818.9" r="1240.16" /> 
<circle cx="3307.09" cy="23503.9" r="1240.16" /> 
<circle cx="3307.09" cy="18346.5" r="1240.16" /> 
<circle cx="12244.1" cy="18307.1" r="1240.16" /> 
<circle cx="16771.7" cy="15669.3" r="866.142" /> 
<circle cx="5590.55" cy="41889.8" r="1397.64" /> 
<circle cx="15629.9" cy="36614.2" r="1397.64" /> 
<circle cx="9015.75" cy="32755.9" r="1397.64" /> 
<circle cx="14606.3" cy="24842.5" r="1397.64" /> 
<circle cx="16732.3" cy="5984.25" r="1397.64" /> 
<circle cx="7795.28" cy="10472.4" r="1397.64" /> 
<path d="M39 39
L39 50629
" />
<path d="M19921 50629
L39 50629
" />
<path d="M19921 39
L19921 50629
" />
<path d="M39 39
L19921 39
" />
</g> 
</svg>
