<?xml version="1.0" standalone="no"?>
 <!DOCTYPE svg PUBLIC "-//W3C//DTD SVG 1.1//EN" 
 "http://www.w3.org/Graphics/SVG/1.1/DTD/svg11.dtd"> 
<svg xmlns="http://www.w3.org/2000/svg" version="1.1" 
    width="2.03962cm" height="12.8676cm" viewBox="0 0 8030 50660 ">
<title>SVG Picture created as 4template-brd.svg date 2019/06/09 21:16:01 </title>
  <desc>Picture generated by PCBNEW </desc>
<g style="fill:#000000; fill-opacity:1;stroke:#000000; stroke-opacity:1;
stroke-linecap:round; stroke-linejoin:round; "
 transform="translate(0 0) scale(1 1)">
</g>
<g style="fill:#000000; fill-opacity:0.0; 
stroke:#000000; stroke-width:-0.000393701; stroke-opacity:1; 
stroke-linecap:round; stroke-linejoin:round;">
</g>
<g style="fill:#C25106; fill-opacity:0.0; 
stroke:#C25106; stroke-width:-0.000393701; stroke-opacity:1; 
stroke-linecap:round; stroke-linejoin:round;">
</g>
<g style="fill:#C25106; fill-opacity:0.0; 
stroke:#C25106; stroke-width:78.7402; stroke-opacity:1; 
stroke-linecap:round; stroke-linejoin:round;">
<path d="M5692 6200
L5547 6118
" />
<path d="M5818 6279
L5692 6200
" />
<path d="M5940 6366
L5818 6279
" />
<path d="M6027 6429
L5940 6366
" />
<path d="M6106 6496
L6027 6429
" />
<path d="M6177 6555
L6106 6496
" />
<path d="M6283 6653
L6177 6555
" />
<path d="M6385 6759
L6283 6653
" />
<path d="M6484 6870
L6385 6759
" />
<path d="M6578 6984
L6484 6870
" />
<path d="M6633 7059
L6578 6984
" />
<path d="M6704 7161
L6633 7059
" />
<path d="M6775 7271
L6704 7161
" />
<path d="M6834 7374
L6775 7271
" />
<path d="M6889 7472
L6834 7374
" />
<path d="M6937 7566
L6889 7472
" />
<path d="M6992 7696
L6937 7566
" />
<path d="M7039 7811
L6992 7696
" />
<path d="M7078 7917
L7039 7811
" />
<path d="M7106 8011
L7078 7917
" />
<path d="M7141 8129
L7106 8011
" />
<path d="M7173 8255
L7141 8129
" />
<path d="M7196 8381
L7173 8255
" />
<path d="M3929 12122
L4055 12125
" />
<path d="M3795 12114
L3929 12122
" />
<path d="M3657 12102
L3795 12114
" />
<path d="M3527 12082
L3657 12102
" />
<path d="M3405 12059
L3527 12082
" />
<path d="M3279 12031
L3405 12059
" />
<path d="M3110 11984
L3279 12031
" />
<path d="M2948 11929
L3110 11984
" />
<path d="M2807 11874
L2948 11929
" />
<path d="M2673 11811
L2807 11874
" />
<path d="M2559 11755
L2673 11811
" />
<path d="M2452 11692
L2559 11755
" />
<path d="M2338 11625
L2452 11692
" />
<path d="M2216 11543
L2338 11625
" />
<path d="M2114 11468
L2216 11543
" />
<path d="M2023 11393
L2114 11468
" />
<path d="M1925 11311
L2023 11393
" />
<path d="M1822 11216
L1925 11311
" />
<path d="M1716 11106
L1822 11216
" />
<path d="M1622 11000
L1716 11106
" />
<path d="M1523 10877
L1622 11000
" />
<path d="M1444 10767
L1523 10877
" />
<path d="M1366 10653
L1444 10767
" />
<path d="M3543 5354
L3543 5787
" />
<path d="M4527 5354
L3543 5354
" />
<path d="M4527 5787
L4527 5354
" />
<path d="M4649 5803
L4527 5787
" />
<path d="M4791 5834
L4649 5803
" />
<path d="M4893 5858
L4791 5834
" />
<path d="M5027 5897
L4893 5858
" />
<path d="M5161 5944
L5027 5897
" />
<path d="M5287 5996
L5161 5944
" />
<path d="M5413 6051
L5287 5996
" />
<path d="M5547 6118
L5413 6051
" />
<path d="M1374 7208
L1271 7377
" />
<path d="M1472 7062
L1374 7208
" />
<path d="M1622 6874
L1472 7062
" />
<path d="M1779 6700
L1622 6874
" />
<path d="M1866 6618
L1779 6700
" />
<path d="M1984 6511
L1866 6618
" />
<path d="M2098 6417
L1984 6511
" />
<path d="M2232 6318
L2098 6417
" />
<path d="M2370 6228
L2232 6318
" />
<path d="M2503 6149
L2370 6228
" />
<path d="M2665 6066
L2503 6149
" />
<path d="M2830 5992
L2665 6066
" />
<path d="M2996 5929
L2830 5992
" />
<path d="M3114 5889
L2996 5929
" />
<path d="M3220 5858
L3114 5889
" />
<path d="M3330 5830
L3220 5858
" />
<path d="M3425 5811
L3330 5830
" />
<path d="M3543 5787
L3425 5811
" />
<path d="M1295 10535
L1366 10653
" />
<path d="M1224 10405
L1295 10535
" />
<path d="M1157 10267
L1224 10405
" />
<path d="M1086 10102
L1157 10267
" />
<path d="M1027 9940
L1086 10102
" />
<path d="M984 9799
L1027 9940
" />
<path d="M948 9661
L984 9799
" />
<path d="M921 9527
L948 9661
" />
<path d="M893 9374
L921 9527
" />
<path d="M877 9212
L893 9374
" />
<path d="M866 9051
L877 9212
" />
<path d="M866 8940
L866 9051
" />
<path d="M870 8795
L866 8940
" />
<path d="M877 8645
L870 8795
" />
<path d="M893 8507
L877 8645
" />
<path d="M921 8350
L893 8507
" />
<path d="M952 8196
L921 8350
" />
<path d="M992 8047
L952 8196
" />
<path d="M1023 7944
L992 8047
" />
<path d="M1066 7818
L1023 7944
" />
<path d="M1137 7649
L1066 7818
" />
<path d="M1200 7511
L1137 7649
" />
<path d="M1271 7377
L1200 7511
" />
<path d="M7216 8519
L7196 8381
" />
<path d="M7232 8653
L7216 8519
" />
<path d="M7240 8775
L7232 8653
" />
<path d="M7244 8854
L7240 8775
" />
<path d="M7244 8933
L7244 8854
" />
<path d="M7244 9031
L7244 8933
" />
<path d="M7236 9177
L7244 9031
" />
<path d="M7224 9307
L7236 9177
" />
<path d="M7204 9433
L7224 9307
" />
<path d="M7181 9570
L7204 9433
" />
<path d="M7149 9708
L7181 9570
" />
<path d="M7114 9838
L7149 9708
" />
<path d="M7078 9956
L7114 9838
" />
<path d="M7035 10074
L7078 9956
" />
<path d="M6984 10196
L7035 10074
" />
<path d="M6937 10303
L6984 10196
" />
<path d="M6893 10393
L6937 10303
" />
<path d="M6858 10460
L6893 10393
" />
<path d="M6799 10562
L6858 10460
" />
<path d="M6732 10669
L6799 10562
" />
<path d="M6681 10748
L6732 10669
" />
<path d="M6629 10822
L6681 10748
" />
<path d="M6555 10917
L6629 10822
" />
<path d="M6492 10992
L6555 10917
" />
<path d="M6417 11082
L6492 10992
" />
<path d="M6322 11181
L6417 11082
" />
<path d="M6228 11271
L6322 11181
" />
<path d="M6145 11346
L6228 11271
" />
<path d="M6059 11417
L6145 11346
" />
<path d="M5968 11488
L6059 11417
" />
<path d="M5866 11562
L5968 11488
" />
<path d="M5775 11625
L5866 11562
" />
<path d="M5673 11685
L5775 11625
" />
<path d="M5578 11740
L5673 11685
" />
<path d="M5448 11803
L5578 11740
" />
<path d="M5326 11862
L5448 11803
" />
<path d="M5200 11913
L5326 11862
" />
<path d="M5047 11968
L5200 11913
" />
<path d="M4925 12003
L5047 11968
" />
<path d="M4795 12039
L4925 12003
" />
<path d="M4673 12066
L4795 12039
" />
<path d="M4555 12086
L4673 12066
" />
<path d="M4444 12102
L4555 12086
" />
<path d="M4318 12114
L4444 12102
" />
<path d="M4188 12122
L4318 12114
" />
<path d="M4055 12125
L4188 12122
" />
<path d="M4649 16000
L4527 15984
" />
<path d="M4791 16031
L4649 16000
" />
<path d="M4893 16055
L4791 16031
" />
<path d="M5027 16094
L4893 16055
" />
<path d="M5161 16141
L5027 16094
" />
<path d="M5287 16192
L5161 16141
" />
<path d="M5413 16248
L5287 16192
" />
<path d="M5547 16314
L5413 16248
" />
<path d="M5692 16397
L5547 16314
" />
<path d="M5818 16476
L5692 16397
" />
<path d="M5940 16562
L5818 16476
" />
<path d="M6027 16625
L5940 16562
" />
<path d="M6106 16692
L6027 16625
" />
<path d="M6177 16751
L6106 16692
" />
<path d="M6283 16850
L6177 16751
" />
<path d="M6385 16956
L6283 16850
" />
<path d="M6484 17066
L6385 16956
" />
<path d="M6578 17181
L6484 17066
" />
<path d="M6633 17255
L6578 17181
" />
<path d="M6704 17358
L6633 17255
" />
<path d="M6775 17468
L6704 17358
" />
<path d="M6834 17570
L6775 17468
" />
<path d="M6889 17669
L6834 17570
" />
<path d="M6937 17763
L6889 17669
" />
<path d="M6992 17893
L6937 17763
" />
<path d="M7039 18007
L6992 17893
" />
<path d="M7078 18114
L7039 18007
" />
<path d="M7106 18208
L7078 18114
" />
<path d="M7141 18326
L7106 18208
" />
<path d="M7173 18452
L7141 18326
" />
<path d="M7196 18578
L7173 18452
" />
<path d="M7216 18716
L7196 18578
" />
<path d="M7232 18850
L7216 18716
" />
<path d="M7240 18972
L7232 18850
" />
<path d="M7244 19051
L7240 18972
" />
<path d="M7244 19129
L7244 19051
" />
<path d="M7244 19228
L7244 19129
" />
<path d="M7236 19374
L7244 19228
" />
<path d="M7224 19503
L7236 19374
" />
<path d="M7204 19629
L7224 19503
" />
<path d="M7181 19767
L7204 19629
" />
<path d="M7149 19905
L7181 19767
" />
<path d="M7114 20035
L7149 19905
" />
<path d="M7078 20153
L7114 20035
" />
<path d="M7035 20271
L7078 20153
" />
<path d="M6984 20393
L7035 20271
" />
<path d="M6937 20500
L6984 20393
" />
<path d="M6893 20590
L6937 20500
" />
<path d="M6858 20657
L6893 20590
" />
<path d="M6799 20759
L6858 20657
" />
<path d="M6732 20866
L6799 20759
" />
<path d="M6681 20944
L6732 20866
" />
<path d="M6629 21019
L6681 20944
" />
<path d="M6555 21114
L6629 21019
" />
<path d="M6492 21188
L6555 21114
" />
<path d="M6417 21279
L6492 21188
" />
<path d="M6322 21377
L6417 21279
" />
<path d="M6228 21468
L6322 21377
" />
<path d="M6145 21543
L6228 21468
" />
<path d="M6059 21614
L6145 21543
" />
<path d="M5968 21685
L6059 21614
" />
<path d="M5866 21759
L5968 21685
" />
<path d="M5775 21822
L5866 21759
" />
<path d="M5673 21881
L5775 21822
" />
<path d="M5578 21937
L5673 21881
" />
<path d="M5448 22000
L5578 21937
" />
<path d="M5326 22059
L5448 22000
" />
<path d="M5200 22110
L5326 22059
" />
<path d="M5047 22165
L5200 22110
" />
<path d="M4925 22200
L5047 22165
" />
<path d="M4795 22236
L4925 22200
" />
<path d="M4673 22263
L4795 22236
" />
<path d="M4555 22283
L4673 22263
" />
<path d="M4444 22299
L4555 22283
" />
<path d="M4318 22311
L4444 22299
" />
<path d="M4188 22318
L4318 22311
" />
<path d="M4055 22322
L4188 22318
" />
<path d="M3929 22318
L4055 22322
" />
<path d="M3795 22311
L3929 22318
" />
<path d="M3657 22299
L3795 22311
" />
<path d="M3527 22279
L3657 22299
" />
<path d="M3405 22255
L3527 22279
" />
<path d="M3279 22228
L3405 22255
" />
<path d="M3110 22181
L3279 22228
" />
<path d="M2948 22125
L3110 22181
" />
<path d="M2807 22070
L2948 22125
" />
<path d="M2673 22007
L2807 22070
" />
<path d="M2559 21952
L2673 22007
" />
<path d="M2452 21889
L2559 21952
" />
<path d="M2338 21822
L2452 21889
" />
<path d="M2216 21740
L2338 21822
" />
<path d="M2114 21665
L2216 21740
" />
<path d="M2023 21590
L2114 21665
" />
<path d="M1925 21507
L2023 21590
" />
<path d="M1822 21413
L1925 21507
" />
<path d="M1716 21303
L1822 21413
" />
<path d="M1622 21196
L1716 21303
" />
<path d="M1523 21074
L1622 21196
" />
<path d="M1444 20964
L1523 21074
" />
<path d="M1366 20850
L1444 20964
" />
<path d="M1295 20732
L1366 20850
" />
<path d="M1224 20602
L1295 20732
" />
<path d="M1157 20464
L1224 20602
" />
<path d="M1086 20299
L1157 20464
" />
<path d="M1027 20137
L1086 20299
" />
<path d="M984 19996
L1027 20137
" />
<path d="M948 19858
L984 19996
" />
<path d="M921 19724
L948 19858
" />
<path d="M893 19570
L921 19724
" />
<path d="M877 19409
L893 19570
" />
<path d="M866 19248
L877 19409
" />
<path d="M866 19137
L866 19248
" />
<path d="M870 18992
L866 19137
" />
<path d="M877 18842
L870 18992
" />
<path d="M893 18704
L877 18842
" />
<path d="M921 18547
L893 18704
" />
<path d="M952 18393
L921 18547
" />
<path d="M992 18244
L952 18393
" />
<path d="M1023 18141
L992 18244
" />
<path d="M1066 18015
L1023 18141
" />
<path d="M1137 17846
L1066 18015
" />
<path d="M1200 17708
L1137 17846
" />
<path d="M1271 17574
L1200 17708
" />
<path d="M1374 17405
L1271 17574
" />
<path d="M1472 17259
L1374 17405
" />
<path d="M1622 17070
L1472 17259
" />
<path d="M1779 16897
L1622 17070
" />
<path d="M1866 16814
L1779 16897
" />
<path d="M1984 16708
L1866 16814
" />
<path d="M2098 16614
L1984 16708
" />
<path d="M2232 16515
L2098 16614
" />
<path d="M2370 16425
L2232 16515
" />
<path d="M2503 16346
L2370 16425
" />
<path d="M2665 16263
L2503 16346
" />
<path d="M2830 16188
L2665 16263
" />
<path d="M2996 16125
L2830 16188
" />
<path d="M3114 16086
L2996 16125
" />
<path d="M3220 16055
L3114 16086
" />
<path d="M3330 16027
L3220 16055
" />
<path d="M3425 16007
L3330 16027
" />
<path d="M3543 15984
L3425 16007
" />
<path d="M3543 15551
L3543 15984
" />
<path d="M4527 15551
L3543 15551
" />
<path d="M4527 15984
L4527 15551
" />
<circle cx="6181.1" cy="35905.5" r="1377.95" /> 
<circle cx="1968.5" cy="35905.5" r="1377.95" /> 
<circle cx="6181.1" cy="42598.4" r="1377.95" /> 
<circle cx="1968.5" cy="42598.4" r="1377.95" /> 
<circle cx="6181.1" cy="39133.9" r="590.551" /> 
<circle cx="1968.5" cy="39133.9" r="590.551" /> 
<circle cx="6181.1" cy="32322.8" r="590.551" /> 
<circle cx="1968.5" cy="32322.8" r="590.551" /> 
<path d="M39 50629
L39 39
" />
<path d="M7992 50629
L39 50629
" />
<path d="M7992 39
L7992 50629
" />
<path d="M39 39
L7992 39
" />
</g> 
</svg>
