<?xml version="1.0" standalone="no"?>
 <!DOCTYPE svg PUBLIC "-//W3C//DTD SVG 1.1//EN" 
 "http://www.w3.org/Graphics/SVG/1.1/DTD/svg11.dtd"> 
<svg xmlns="http://www.w3.org/2000/svg" version="1.1" 
    width="12.5933cm" height="12.8676cm" viewBox="0 0 49580 50660 ">
<title>SVG Picture created as DualADSR_BnG_Panel-brd.svg date 2019/10/02 16:03:07 </title>
  <desc>Picture generated by PCBNEW </desc>
<g style="fill:#000000; fill-opacity:1;stroke:#000000; stroke-opacity:1;
stroke-linecap:round; stroke-linejoin:round; "
 transform="translate(0 0) scale(1 1)">
</g>
<g style="fill:#000000; fill-opacity:0.0; 
stroke:#000000; stroke-width:-0.000393701; stroke-opacity:1; 
stroke-linecap:round; stroke-linejoin:round;">
</g>
<g style="fill:#C25106; fill-opacity:0.0; 
stroke:#C25106; stroke-width:-0.000393701; stroke-opacity:1; 
stroke-linecap:round; stroke-linejoin:round;">
</g>
<g style="fill:#C25106; fill-opacity:0.0; 
stroke:#C25106; stroke-width:78.7402; stroke-opacity:1; 
stroke-linecap:round; stroke-linejoin:round;">
<path d="M44102 20098
L37449 20098
" />
</g>
<g style="fill:#C25106; fill-opacity:0.0; 
stroke:#C25106; stroke-width:118.11; stroke-opacity:1; 
stroke-linecap:round; stroke-linejoin:round;">
<path d="M44828 20329
L44800 20357
L44715 20385
L44659 20385
L44575 20357
L44519 20300
L44491 20244
L44462 20132
L44462 20047
L44491 19935
L44519 19879
L44575 19822
L44659 19794
L44715 19794
L44800 19822
L44828 19850
" />
<path d="M45165 20385
L45109 20357
L45081 20329
L45053 20272
L45053 20104
L45081 20047
L45109 20019
L45165 19991
L45250 19991
L45306 20019
L45334 20047
L45362 20104
L45362 20272
L45334 20329
L45306 20357
L45250 20385
L45165 20385
" />
<path d="M45868 19991
L45868 20385
" />
<path d="M45615 19991
L45615 20300
L45643 20357
L45700 20385
L45784 20385
L45840 20357
L45868 20329
" />
<path d="M46150 19991
L46150 20385
" />
<path d="M46150 20047
L46178 20019
L46234 19991
L46318 19991
L46375 20019
L46403 20075
L46403 20385
" />
<path d="M46600 19991
L46825 19991
" />
<path d="M46684 19794
L46684 20300
L46712 20357
L46768 20385
L46825 20385
" />
<path d="M47246 20357
L47190 20385
L47078 20385
L47021 20357
L46993 20300
L46993 20075
L47021 20019
L47078 19991
L47190 19991
L47246 20019
L47275 20075
L47275 20132
L46993 20188
" />
<path d="M47528 20385
L47528 19991
" />
<path d="M47528 20104
L47556 20047
L47584 20019
L47640 19991
L47696 19991
" />
<path d="M47865 20357
L47921 20385
L48034 20385
L48090 20357
L48118 20300
L48118 20272
L48090 20216
L48034 20188
L47949 20188
L47893 20160
L47865 20104
L47865 20075
L47893 20019
L47949 19991
L48034 19991
L48090 20019
" />
<path d="M48371 20385
L48371 19991
" />
<path d="M48371 19794
L48343 19822
L48371 19850
L48399 19822
L48371 19794
L48371 19850
" />
<path d="M48652 19991
L48652 20385
" />
<path d="M48652 20047
L48681 20019
L48737 19991
L48821 19991
L48877 20019
L48906 20075
L48906 20385
" />
<path d="M49187 20385
L49187 19794
" />
<path d="M49243 20160
L49412 20385
" />
<path d="M49412 19991
L49187 20216
" />
</g>
<g style="fill:#C25106; fill-opacity:0.0; 
stroke:#C25106; stroke-width:78.7402; stroke-opacity:1; 
stroke-linecap:round; stroke-linejoin:round;">
<path d="M12213 20098
L5559 20098
" />
</g>
<g style="fill:#C25106; fill-opacity:0.0; 
stroke:#C25106; stroke-width:118.11; stroke-opacity:1; 
stroke-linecap:round; stroke-linejoin:round;">
<path d="M576 20230
L548 20258
L464 20286
L407 20286
L323 20258
L267 20202
L239 20146
L210 20033
L210 19949
L239 19836
L267 19780
L323 19724
L407 19696
L464 19696
L548 19724
L576 19752
" />
<path d="M913 20286
L857 20258
L829 20230
L801 20174
L801 20005
L829 19949
L857 19921
L913 19893
L998 19893
L1054 19921
L1082 19949
L1110 20005
L1110 20174
L1082 20230
L1054 20258
L998 20286
L913 20286
" />
<path d="M1616 19893
L1616 20286
" />
<path d="M1363 19893
L1363 20202
L1392 20258
L1448 20286
L1532 20286
L1588 20258
L1616 20230
" />
<path d="M1898 19893
L1898 20286
" />
<path d="M1898 19949
L1926 19921
L1982 19893
L2066 19893
L2123 19921
L2151 19977
L2151 20286
" />
<path d="M2348 19893
L2573 19893
" />
<path d="M2432 19696
L2432 20202
L2460 20258
L2516 20286
L2573 20286
" />
<path d="M2994 20258
L2938 20286
L2826 20286
L2769 20258
L2741 20202
L2741 19977
L2769 19921
L2826 19893
L2938 19893
L2994 19921
L3023 19977
L3023 20033
L2741 20089
" />
<path d="M3276 20286
L3276 19893
" />
<path d="M3276 20005
L3304 19949
L3332 19921
L3388 19893
L3444 19893
" />
<path d="M3613 20258
L3669 20286
L3782 20286
L3838 20258
L3866 20202
L3866 20174
L3838 20118
L3782 20089
L3697 20089
L3641 20061
L3613 20005
L3613 19977
L3641 19921
L3697 19893
L3782 19893
L3838 19921
" />
<path d="M4119 20286
L4119 19893
" />
<path d="M4119 19696
L4091 19724
L4119 19752
L4147 19724
L4119 19696
L4119 19752
" />
<path d="M4401 19893
L4401 20286
" />
<path d="M4401 19949
L4429 19921
L4485 19893
L4569 19893
L4625 19921
L4654 19977
L4654 20286
" />
<path d="M4935 20286
L4935 19696
" />
<path d="M4991 20061
L5160 20286
" />
<path d="M5160 19893
L4935 20118
" />
</g>
<g style="fill:#C25106; fill-opacity:0.0; 
stroke:#C25106; stroke-width:78.7402; stroke-opacity:1; 
stroke-linecap:round; stroke-linejoin:round;">
<circle cx="36169.9" cy="44645.7" r="1240.16" /> 
<circle cx="31839.1" cy="44645.7" r="1240.16" /> 
<circle cx="27508.4" cy="44645.7" r="1240.16" /> 
<circle cx="22016.3" cy="44645.7" r="1240.16" /> 
<circle cx="17705.3" cy="44645.7" r="1240.16" /> 
<circle cx="36169.9" cy="39547.2" r="1240.16" /> 
<circle cx="31839.1" cy="39547.2" r="1240.16" /> 
<circle cx="27508.4" cy="39547.2" r="1240.16" /> 
<circle cx="22016.3" cy="39547.2" r="1240.16" /> 
</g>
<g style="fill:#C25106; fill-opacity:0.0; 
stroke:#C25106; stroke-width:118.11; stroke-opacity:1; 
stroke-linecap:round; stroke-linejoin:round;">
<path d="M44808 4226
L44780 4254
L44696 4282
L44640 4282
L44555 4254
L44499 4198
L44471 4142
L44443 4029
L44443 3945
L44471 3832
L44499 3776
L44555 3720
L44640 3692
L44696 3692
L44780 3720
L44808 3748
" />
<path d="M45146 4282
L45089 4254
L45061 4226
L45033 4170
L45033 4001
L45061 3945
L45089 3917
L45146 3889
L45230 3889
L45286 3917
L45314 3945
L45343 4001
L45343 4170
L45314 4226
L45286 4254
L45230 4282
L45146 4282
" />
<path d="M45849 3889
L45849 4282
" />
<path d="M45596 3889
L45596 4198
L45624 4254
L45680 4282
L45764 4282
L45821 4254
L45849 4226
" />
<path d="M46130 3889
L46130 4282
" />
<path d="M46130 3945
L46158 3917
L46214 3889
L46299 3889
L46355 3917
L46383 3973
L46383 4282
" />
<path d="M46580 3889
L46805 3889
" />
<path d="M46664 3692
L46664 4198
L46692 4254
L46749 4282
L46805 4282
" />
<path d="M47227 4254
L47170 4282
L47058 4282
L47002 4254
L46974 4198
L46974 3973
L47002 3917
L47058 3889
L47170 3889
L47227 3917
L47255 3973
L47255 4029
L46974 4086
" />
<path d="M47508 4282
L47508 3889
" />
<path d="M47508 4001
L47536 3945
L47564 3917
L47620 3889
L47677 3889
" />
<path d="M47845 4254
L47902 4282
L48014 4282
L48070 4254
L48098 4198
L48098 4170
L48070 4114
L48014 4086
L47930 4086
L47874 4057
L47845 4001
L47845 3973
L47874 3917
L47930 3889
L48014 3889
L48070 3917
" />
<path d="M48352 4282
L48352 3889
" />
<path d="M48352 3692
L48323 3720
L48352 3748
L48380 3720
L48352 3692
L48352 3748
" />
<path d="M48633 3889
L48633 4282
" />
<path d="M48633 3945
L48661 3917
L48717 3889
L48802 3889
L48858 3917
L48886 3973
L48886 4282
" />
<path d="M49167 4282
L49167 3692
" />
<path d="M49223 4057
L49392 4282
" />
<path d="M49392 3889
L49167 4114
" />
</g>
<g style="fill:#C25106; fill-opacity:0.0; 
stroke:#C25106; stroke-width:78.7402; stroke-opacity:1; 
stroke-linecap:round; stroke-linejoin:round;">
<path d="M44083 3996
L37429 3996
" />
<circle cx="17705.3" cy="39547.2" r="1240.16" /> 
<circle cx="13374.6" cy="44645.7" r="1240.16" /> 
<circle cx="13374.6" cy="39547.2" r="1240.16" /> 
<circle cx="14988.8" cy="28897.6" r="629.921" /> 
<circle cx="14988.8" cy="12755.9" r="629.921" /> 
<circle cx="33079.3" cy="22185" r="629.921" /> 
<path d="M36543 23937
L35362 23937
" />
<path d="M36543 34566
L36543 23937
" />
<path d="M35362 34566
L36543 34566
" />
<path d="M30677 23937
L29496 23937
" />
<path d="M30677 34566
L30677 23937
" />
<path d="M29496 34566
L30677 34566
" />
<path d="M24752 23937
L23571 23937
" />
<path d="M24752 34566
L24752 23937
" />
<path d="M23571 34566
L24752 34566
" />
<path d="M35362 23937
L35362 34566
" />
<path d="M29496 23937
L29496 34566
" />
<path d="M23571 23937
L23571 34566
" />
<circle cx="12252.5" cy="21181.1" r="629.921" /> 
<circle cx="12232.8" cy="21181.1" r="1082.86" /> 
<circle cx="37429.7" cy="21181.1" r="629.921" /> 
<circle cx="37429.7" cy="21181.1" r="1082.86" /> 
<path d="M13413 24921
L11799 24921
" />
<path d="M11799 24921
L11799 27283
" />
<path d="M11799 27283
L13413 27283
" />
<path d="M13413 27283
L13413 24921
" />
<path d="M13374 31338
L11799 31338
" />
<path d="M11799 31338
L11799 34291
" />
<path d="M11799 34291
L13374 34291
" />
<path d="M13374 34291
L13374 31338
" />
<path d="M18847 23937
L17665 23937
" />
<path d="M17665 23937
L17665 34566
" />
<path d="M18847 34566
L18847 23937
" />
<path d="M17665 34566
L18847 34566
" />
<circle cx="15343.3" cy="22165.5" r="1082.86" /> 
<circle cx="33079.3" cy="6102.36" r="629.921" /> 
<path d="M36543 7834
L35362 7834
" />
<path d="M36543 18464
L36543 7834
" />
<path d="M35362 18464
L36543 18464
" />
<path d="M30677 7834
L29496 7834
" />
<path d="M30677 18464
L30677 7834
" />
<path d="M29496 18464
L30677 18464
" />
<path d="M24752 7834
L23571 7834
" />
<path d="M24752 18464
L24752 7834
" />
<path d="M23571 18464
L24752 18464
" />
<path d="M35362 7834
L35362 18464
" />
<path d="M29496 7834
L29496 18464
" />
<path d="M23571 7834
L23571 18464
" />
<path d="M18847 18464
L18847 7834
" />
<path d="M17665 18464
L18847 18464
" />
<path d="M17665 7834
L17665 18464
" />
<path d="M18847 7834
L17665 7834
" />
<path d="M13374 18188
L13374 15236
" />
<path d="M11799 18188
L13374 18188
" />
<path d="M11799 15236
L11799 18188
" />
<path d="M13374 15236
L11799 15236
" />
<path d="M13394 11181
L13394 8818
" />
<path d="M11780 11181
L13394 11181
" />
<path d="M11780 8818
L11780 11181
" />
<path d="M13394 8818
L11780 8818
" />
<circle cx="15343.3" cy="6082.86" r="1082.86" /> 
<path d="M38709 39
L38709 50629
" />
<circle cx="37410" cy="5078.74" r="1082.86" /> 
<circle cx="37410" cy="5078.74" r="629.921" /> 
<path d="M12173 3996
L5520 3996
" />
</g>
<g style="fill:#C25106; fill-opacity:0.0; 
stroke:#C25106; stroke-width:118.11; stroke-opacity:1; 
stroke-linecap:round; stroke-linejoin:round;">
<path d="M537 4128
L508 4156
L424 4184
L368 4184
L284 4156
L227 4100
L199 4043
L171 3931
L171 3847
L199 3734
L227 3678
L284 3622
L368 3593
L424 3593
L508 3622
L537 3650
" />
<path d="M874 4184
L818 4156
L790 4128
L762 4071
L762 3903
L790 3847
L818 3818
L874 3790
L958 3790
L1015 3818
L1043 3847
L1071 3903
L1071 4071
L1043 4128
L1015 4156
L958 4184
L874 4184
" />
<path d="M1577 3790
L1577 4184
" />
<path d="M1324 3790
L1324 4100
L1352 4156
L1408 4184
L1493 4184
L1549 4156
L1577 4128
" />
<path d="M1858 3790
L1858 4184
" />
<path d="M1858 3847
L1886 3818
L1943 3790
L2027 3790
L2083 3818
L2111 3875
L2111 4184
" />
<path d="M2308 3790
L2533 3790
" />
<path d="M2393 3593
L2393 4100
L2421 4156
L2477 4184
L2533 4184
" />
<path d="M2955 4156
L2899 4184
L2786 4184
L2730 4156
L2702 4100
L2702 3875
L2730 3818
L2786 3790
L2899 3790
L2955 3818
L2983 3875
L2983 3931
L2702 3987
" />
<path d="M3236 4184
L3236 3790
" />
<path d="M3236 3903
L3264 3847
L3293 3818
L3349 3790
L3405 3790
" />
<path d="M3574 4156
L3630 4184
L3742 4184
L3799 4156
L3827 4100
L3827 4071
L3799 4015
L3742 3987
L3658 3987
L3602 3959
L3574 3903
L3574 3875
L3602 3818
L3658 3790
L3742 3790
L3799 3818
" />
<path d="M4080 4184
L4080 3790
" />
<path d="M4080 3593
L4052 3622
L4080 3650
L4108 3622
L4080 3593
L4080 3650
" />
<path d="M4361 3790
L4361 4184
" />
<path d="M4361 3847
L4389 3818
L4446 3790
L4530 3790
L4586 3818
L4614 3875
L4614 4184
" />
<path d="M4895 4184
L4895 3593
" />
<path d="M4952 3959
L5120 4184
" />
<path d="M5120 3790
L4895 4015
" />
</g>
<g style="fill:#C25106; fill-opacity:0.0; 
stroke:#C25106; stroke-width:78.7402; stroke-opacity:1; 
stroke-linecap:round; stroke-linejoin:round;">
<circle cx="12213.2" cy="5098.43" r="1082.86" /> 
<circle cx="12232.8" cy="5098.43" r="629.921" /> 
<circle cx="35795.8" cy="49448.8" r="629.921" /> 
<circle cx="35795.8" cy="1220.47" r="629.921" /> 
<circle cx="13788" cy="49448.8" r="629.921" /> 
<circle cx="13788" cy="1220.47" r="629.921" /> 
<path d="M10835 50629
L10835 39
" />
<path d="M38709 50629
L10835 50629
" />
<path d="M10835 39
L38709 39
" />
</g> 
</svg>
