<?xml version="1.0" standalone="no"?>
 <!DOCTYPE svg PUBLIC "-//W3C//DTD SVG 1.1//EN" 
 "http://www.w3.org/Graphics/SVG/1.1/DTD/svg11.dtd"> 
<svg xmlns="http://www.w3.org/2000/svg" version="1.1" 
    width="4.04876cm" height="12.8676cm" viewBox="0 0 15940 50660 ">
<title>SVG Picture created as Dixie_BnG_Panel-brd.svg date 2019/09/25 17:50:43 </title>
  <desc>Picture generated by PCBNEW </desc>
<g style="fill:#000000; fill-opacity:1;stroke:#000000; stroke-opacity:1;
stroke-linecap:round; stroke-linejoin:round; "
 transform="translate(0 0) scale(1 1)">
</g>
<g style="fill:#000000; fill-opacity:0.0; 
stroke:#000000; stroke-width:-0.000393701; stroke-opacity:1; 
stroke-linecap:round; stroke-linejoin:round;">
</g>
<g style="fill:#C25106; fill-opacity:0.0; 
stroke:#C25106; stroke-width:-0.000393701; stroke-opacity:1; 
stroke-linecap:round; stroke-linejoin:round;">
</g>
<g style="fill:#C25106; fill-opacity:0.0; 
stroke:#C25106; stroke-width:78.7402; stroke-opacity:1; 
stroke-linecap:round; stroke-linejoin:round;">
<circle cx="2992.13" cy="49448.8" r="631.15" /> 
<circle cx="2992.13" cy="1220.47" r="631.15" /> 
<circle cx="7972.44" cy="44586.6" r="1279.53" /> 
<circle cx="7972.44" cy="39468.5" r="1279.53" /> 
<circle cx="7972.44" cy="34389.8" r="1279.53" /> 
<circle cx="7972.44" cy="29271.7" r="1279.53" /> 
<circle cx="13090.6" cy="44586.6" r="1279.53" /> 
<circle cx="2854.33" cy="44586.6" r="1279.53" /> 
<circle cx="13090.6" cy="39468.5" r="1279.53" /> 
<circle cx="2854.33" cy="39468.5" r="1279.53" /> 
<circle cx="13090.6" cy="34389.8" r="1279.53" /> 
<circle cx="2854.33" cy="34389.8" r="1279.53" /> 
<circle cx="13090.6" cy="29271.7" r="1279.53" /> 
<circle cx="2854.33" cy="29271.7" r="1279.53" /> 
<circle cx="2913.39" cy="17460.6" r="1279.53" /> 
<circle cx="13090.6" cy="17460.6" r="1279.53" /> 
<circle cx="11535.4" cy="7637.8" r="629.921" /> 
<circle cx="4488.19" cy="7637.8" r="629.921" /> 
<circle cx="7992.13" cy="21378" r="1771.65" /> 
<path d="M13543 10551
L13543 12598
" />
<path d="M15039 12598
L15039 10551
" />
<path d="M13543 12598
L15039 12598
" />
<path d="M2440 10551
L944 10551
" />
<path d="M15039 10551
L13543 10551
" />
<path d="M2440 12598
L2440 10551
" />
<path d="M944 12598
L2440 12598
" />
<path d="M944 10551
L944 12598
" />
<circle cx="7992.13" cy="11574.8" r="1771.65" /> 
<path d="M13228 6181
L13228 4409
" />
<path d="M2795 6181
L13228 6181
" />
<path d="M2795 4409
L2795 6181
" />
<path d="M13228 4409
L2795 4409
" />
<path d="M39 50629
L39 39
" />
<path d="M15905 50629
L39 50629
" />
<path d="M15905 39
L15905 50629
" />
<path d="M39 39
L15905 39
" />
</g> 
</svg>
