<?xml version="1.0" encoding="UTF-8" standalone="no"?>
<svg
   xmlns:dc="http://purl.org/dc/elements/1.1/"
   xmlns:cc="http://creativecommons.org/ns#"
   xmlns:rdf="http://www.w3.org/1999/02/22-rdf-syntax-ns#"
   xmlns:svg="http://www.w3.org/2000/svg"
   xmlns="http://www.w3.org/2000/svg"
   xml:space="preserve"
   enable-background="new 0 0 171.779 364.25"
   viewBox="0 0 229.03903 486.04756"
   height="128.60008mm"
   width="60.599911mm"
   y="0px"
   x="0px"
   id="CAD"
   version="1.1"><metadata
   id="metadata45"><rdf:RDF><cc:Work
       rdf:about=""><dc:format>image/svg+xml</dc:format><dc:type
         rdf:resource="http://purl.org/dc/dcmitype/StillImage" /><dc:title></dc:title></cc:Work></rdf:RDF></metadata><defs
   id="defs43" />



















<g
   transform="translate(0.15610067,121.64116)"
   style="display:inline"
   id="layer1"><g
     transform="matrix(1.0648295,0,0,1.0667504,0.06600736,-24.379904)"
     style="fill:none;stroke:#0a00ff;stroke-width:0.3546223;stroke-miterlimit:4;stroke-dasharray:none;stroke-opacity:1"
     id="g4632"><rect
       style="fill:none;stroke:#0a00ff;stroke-width:0.3546223;stroke-miterlimit:4;stroke-dasharray:none;stroke-opacity:1"
       y="-90.997955"
       x="-0.031274382"
       stroke-miterlimit="10"
       width="214.73993"
       height="455.27921"
       id="rect3" /><circle
       style="fill:none;stroke:#0a00ff;stroke-width:0.28369835;stroke-linejoin:round;stroke-miterlimit:4;stroke-dasharray:none;stroke-opacity:1"
       transform="matrix(1.2500941,0,0,1.2499017,-0.03127633,-90.997958)"
       cx="35.787998"
       cy="68.134003"
       r="12.756"
       id="circle5" /><circle
       style="fill:none;stroke:#0a00ff;stroke-width:0.28369835;stroke-linejoin:round;stroke-miterlimit:4;stroke-dasharray:none;stroke-opacity:1"
       transform="matrix(1.2500941,0,0,1.2499017,-0.03127633,-90.997958)"
       cx="47.130001"
       cy="145.16701"
       r="12.756"
       id="circle7" /><circle
       style="fill:none;stroke:#0a00ff;stroke-width:0.28369835;stroke-linejoin:round;stroke-miterlimit:4;stroke-dasharray:none;stroke-opacity:1"
       transform="matrix(1.2500941,0,0,1.2499017,-0.03127633,-90.997958)"
       cx="135.71201"
       cy="68.134003"
       r="12.756"
       id="circle9" /><circle
       style="fill:none;stroke:#0a00ff;stroke-width:0.28369835;stroke-linejoin:round;stroke-miterlimit:4;stroke-dasharray:none;stroke-opacity:1"
       transform="matrix(1.2500941,0,0,1.2499017,-0.03127633,-90.997958)"
       cx="124.38"
       cy="145.255"
       r="12.756"
       id="circle11" /><circle
       style="fill:none;stroke:#0a00ff;stroke-width:0.28369835;stroke-linejoin:round;stroke-miterlimit:4;stroke-dasharray:none;stroke-opacity:1"
       transform="matrix(1.2500941,0,0,1.2499017,-0.03127633,-90.997958)"
       cx="107.384"
       cy="219.688"
       r="9.6379995"
       id="circle13" /><circle
       style="fill:none;stroke:#0a00ff;stroke-width:0.28369835;stroke-linejoin:round;stroke-miterlimit:4;stroke-dasharray:none;stroke-opacity:1"
       transform="matrix(1.2500941,0,0,1.2499017,-0.03127633,-90.997958)"
       cx="64.396004"
       cy="219.688"
       r="9.6379995"
       id="circle15" /><circle
       style="fill:none;stroke:#0a00ff;stroke-width:0.28369835;stroke-linejoin:round;stroke-miterlimit:4;stroke-dasharray:none;stroke-opacity:1"
       transform="matrix(1.2500941,0,0,1.2499017,-0.93542339,-90.997958)"
       cx="150.37199"
       cy="211.465"
       r="9.6379995"
       id="circle17" /><circle
       style="fill:none;stroke:#0a00ff;stroke-width:0.28369835;stroke-linejoin:round;stroke-miterlimit:4;stroke-dasharray:none;stroke-opacity:1"
       transform="matrix(1.2500941,0,0,1.2499017,0.89045886,-90.997958)"
       cx="21.409"
       cy="211.465"
       r="9.6379995"
       id="circle19" /><circle
       style="fill:none;stroke:#0a00ff;stroke-width:0.28369835;stroke-linejoin:round;stroke-miterlimit:4;stroke-dasharray:none;stroke-opacity:1"
       transform="matrix(1.2500941,0,0,1.2499017,-0.03127633,-90.997958)"
       cx="20.355"
       cy="265.98901"
       r="8.7880001"
       id="circle21" /><circle
       style="fill:none;stroke:#0a00ff;stroke-width:0.28369835;stroke-linejoin:round;stroke-miterlimit:4;stroke-dasharray:none;stroke-opacity:1"
       transform="matrix(1.2500941,0,0,1.2499017,-0.03127633,-90.997958)"
       cx="20.355"
       cy="319.67499"
       r="8.7880001"
       id="circle23" /><circle
       style="fill:none;stroke:#0a00ff;stroke-width:0.28369835;stroke-linejoin:round;stroke-miterlimit:4;stroke-dasharray:none;stroke-opacity:1"
       transform="matrix(1.2500941,0,0,1.2499017,-0.03127633,-90.997958)"
       cx="53.307999"
       cy="265.98901"
       r="8.7880001"
       id="circle25" /><circle
       style="fill:none;stroke:#0a00ff;stroke-width:0.28369835;stroke-linejoin:round;stroke-miterlimit:4;stroke-dasharray:none;stroke-opacity:1"
       transform="matrix(1.2500941,0,0,1.2499017,-0.03127633,-90.997958)"
       cx="53.307999"
       cy="319.67499"
       r="8.7880001"
       id="circle27" /><circle
       style="fill:none;stroke:#0a00ff;stroke-width:0.28369835;stroke-linejoin:round;stroke-miterlimit:4;stroke-dasharray:none;stroke-opacity:1"
       transform="matrix(1.2500941,0,0,1.2499017,-0.03127633,-90.997958)"
       cx="86.261002"
       cy="319.67499"
       r="8.7880001"
       id="circle29" /><circle
       style="fill:none;stroke:#0a00ff;stroke-width:0.28369835;stroke-linejoin:round;stroke-miterlimit:4;stroke-dasharray:none;stroke-opacity:1"
       transform="matrix(1.2500941,0,0,1.2499017,-0.03127633,-90.997958)"
       cx="119.209"
       cy="319.67499"
       r="8.7880001"
       id="circle31" /><circle
       style="fill:none;stroke:#0a00ff;stroke-width:0.28369835;stroke-linejoin:round;stroke-miterlimit:4;stroke-dasharray:none;stroke-opacity:1"
       transform="matrix(1.2500941,0,0,1.2499017,-0.03127633,-90.997958)"
       cx="86.261002"
       cy="265.98901"
       r="8.7880001"
       id="circle33" /><circle
       style="fill:none;stroke:#0a00ff;stroke-width:0.28369835;stroke-linejoin:round;stroke-miterlimit:4;stroke-dasharray:none;stroke-opacity:1"
       transform="matrix(1.2500941,0,0,1.2499017,-0.03127633,-90.997958)"
       cx="119.209"
       cy="265.98901"
       r="8.7880001"
       id="circle35" /><circle
       style="fill:none;stroke:#0a00ff;stroke-width:0.28369835;stroke-linejoin:round;stroke-miterlimit:4;stroke-dasharray:none;stroke-opacity:1"
       transform="matrix(1.2500941,0,0,1.2499017,-0.03127633,-90.997958)"
       cx="152.161"
       cy="265.98901"
       r="8.7880001"
       id="circle37" /><circle
       style="fill:none;stroke:#0a00ff;stroke-width:0.28369835;stroke-linejoin:round;stroke-miterlimit:4;stroke-dasharray:none;stroke-opacity:1"
       transform="matrix(1.2500941,0,0,1.2499017,-0.03127633,-90.997958)"
       cx="152.161"
       cy="319.67499"
       r="8.7880001"
       id="circle39" /><circle
       r="4.5"
       cy="589.5"
       cx="76.5"
       transform="matrix(1.2598425,0,0,1.2598425,-69.959482,-822.95469)"
       id="path3166"
       style="display:inline;fill:none;stroke:#0a00ff;stroke-width:0.28148147;stroke-linecap:round;stroke-linejoin:round;stroke-miterlimit:4;stroke-dasharray:none;stroke-dashoffset:0;stroke-opacity:1" /><circle
       r="4.5"
       cy="589.5"
       cx="76.5"
       style="display:inline;fill:none;stroke:#0a00ff;stroke-width:0.28148147;stroke-linecap:round;stroke-linejoin:round;stroke-miterlimit:4;stroke-dasharray:none;stroke-dashoffset:0;stroke-opacity:1"
       id="path3790"
       transform="matrix(1.2598425,0,0,1.2598425,-69.959482,-388.89957)" /><circle
       r="4.5"
       cy="589.5"
       cx="76.5"
       style="display:inline;fill:none;stroke:#0a00ff;stroke-width:0.28148147;stroke-linecap:round;stroke-linejoin:round;stroke-miterlimit:4;stroke-dasharray:none;stroke-dashoffset:0;stroke-opacity:1"
       id="path3792"
       transform="matrix(1.2598425,0,0,1.2598425,92.040518,-822.95469)" /><circle
       r="4.5"
       cy="589.5"
       cx="76.5"
       transform="matrix(1.2598425,0,0,1.2598425,92.040518,-388.89957)"
       id="path3794"
       style="display:inline;fill:none;stroke:#0a00ff;stroke-width:0.28148147;stroke-linecap:round;stroke-linejoin:round;stroke-miterlimit:4;stroke-dasharray:none;stroke-dashoffset:0;stroke-opacity:1" /></g></g></svg>