<?xml version="1.0" standalone="no"?>
 <!DOCTYPE svg PUBLIC "-//W3C//DTD SVG 1.1//EN" 
 "http://www.w3.org/Graphics/SVG/1.1/DTD/svg11.dtd"> 
<svg xmlns="http://www.w3.org/2000/svg" version="1.1" 
    width="4.04876cm" height="13.3579cm" viewBox="0 0 15940 52590 ">
<title>SVG Picture created as Steppy_BnG_Panel-brd.svg date 2019/10/23 18:26:48 </title>
  <desc>Picture generated by PCBNEW </desc>
<g style="fill:#000000; fill-opacity:1;stroke:#000000; stroke-opacity:1;
stroke-linecap:round; stroke-linejoin:round; "
 transform="translate(0 0) scale(1 1)">
</g>
<g style="fill:#000000; fill-opacity:0.0; 
stroke:#000000; stroke-width:-0.000393701; stroke-opacity:1; 
stroke-linecap:round; stroke-linejoin:round;">
</g>
<g style="fill:#C25106; fill-opacity:0.0; 
stroke:#C25106; stroke-width:-0.000393701; stroke-opacity:1; 
stroke-linecap:round; stroke-linejoin:round;">
</g>
<g style="fill:#C25106; fill-opacity:0.0; 
stroke:#C25106; stroke-width:78.7402; stroke-opacity:1; 
stroke-linecap:round; stroke-linejoin:round;">
<path d="M7027 45728
L7027 51456
" />
</g>
<g style="fill:#C25106; fill-opacity:0.0; 
stroke:#C25106; stroke-width:118.11; stroke-opacity:1; 
stroke-linecap:round; stroke-linejoin:round;">
<path d="M3473 52005
L3276 52005
" />
<path d="M3276 52314
L3276 51723
L3557 51723
" />
<path d="M3782 52314
L3782 51920
" />
<path d="M3782 52033
L3810 51976
L3838 51948
L3894 51920
L3951 51920
" />
<path d="M4232 52314
L4176 52286
L4147 52258
L4119 52201
L4119 52033
L4147 51976
L4176 51948
L4232 51920
L4316 51920
L4372 51948
L4401 51976
L4429 52033
L4429 52201
L4401 52258
L4372 52286
L4316 52314
L4232 52314
" />
<path d="M4682 51920
L4682 52314
" />
<path d="M4682 51976
L4710 51948
L4766 51920
L4850 51920
L4907 51948
L4935 52005
L4935 52314
" />
<path d="M5132 51920
L5357 51920
" />
<path d="M5216 51723
L5216 52230
L5244 52286
L5300 52314
L5357 52314
" />
<path d="M6341 52258
L6313 52286
L6228 52314
L6172 52314
L6088 52286
L6032 52230
L6003 52173
L5975 52061
L5975 51976
L6003 51864
L6032 51808
L6088 51751
L6172 51723
L6228 51723
L6313 51751
L6341 51780
" />
<path d="M6678 52314
L6622 52286
L6594 52258
L6566 52201
L6566 52033
L6594 51976
L6622 51948
L6678 51920
L6763 51920
L6819 51948
L6847 51976
L6875 52033
L6875 52201
L6847 52258
L6819 52286
L6763 52314
L6678 52314
" />
<path d="M7381 51920
L7381 52314
" />
<path d="M7128 51920
L7128 52230
L7156 52286
L7213 52314
L7297 52314
L7353 52286
L7381 52258
" />
<path d="M7663 51920
L7663 52314
" />
<path d="M7663 51976
L7691 51948
L7747 51920
L7831 51920
L7888 51948
L7916 52005
L7916 52314
" />
<path d="M8113 51920
L8338 51920
" />
<path d="M8197 51723
L8197 52230
L8225 52286
L8281 52314
L8338 52314
" />
<path d="M8759 52286
L8703 52314
L8591 52314
L8534 52286
L8506 52230
L8506 52005
L8534 51948
L8591 51920
L8703 51920
L8759 51948
L8787 52005
L8787 52061
L8506 52117
" />
<path d="M9041 52314
L9041 51920
" />
<path d="M9041 52033
L9069 51976
L9097 51948
L9153 51920
L9209 51920
" />
<path d="M9378 52286
L9434 52314
L9547 52314
L9603 52286
L9631 52230
L9631 52201
L9603 52145
L9547 52117
L9462 52117
L9406 52089
L9378 52033
L9378 52005
L9406 51948
L9462 51920
L9547 51920
L9603 51948
" />
<path d="M9884 52314
L9884 51920
" />
<path d="M9884 51723
L9856 51751
L9884 51780
L9912 51751
L9884 51723
L9884 51780
" />
<path d="M10165 51920
L10165 52314
" />
<path d="M10165 51976
L10194 51948
L10250 51920
L10334 51920
L10390 51948
L10419 52005
L10419 52314
" />
<path d="M10700 52314
L10700 51723
" />
<path d="M10756 52089
L10925 52314
" />
<path d="M10925 51920
L10700 52145
" />
</g>
<g style="fill:#C25106; fill-opacity:0.0; 
stroke:#C25106; stroke-width:78.7402; stroke-opacity:1; 
stroke-linecap:round; stroke-linejoin:round;">
<circle cx="7913.39" cy="45689" r="885.827" /> 
<circle cx="7913.39" cy="45689" r="610.236" /> 
<circle cx="13878" cy="45689" r="629.921" /> 
<circle cx="2066.93" cy="45689" r="629.921" /> 
<circle cx="11102.4" cy="39192.9" r="1003.94" /> 
<circle cx="11102.4" cy="35807.1" r="1003.94" /> 
<circle cx="11102.4" cy="32480.3" r="1003.94" /> 
<circle cx="11102.4" cy="29133.9" r="1003.94" /> 
<circle cx="11102.4" cy="25787.4" r="1003.94" /> 
<circle cx="11102.4" cy="22480.3" r="1003.94" /> 
<circle cx="11102.4" cy="45689" r="1003.94" /> 
<circle cx="11102.4" cy="42500" r="1003.94" /> 
<circle cx="11102.4" cy="19114.2" r="1003.94" /> 
<circle cx="4822.84" cy="45689" r="1003.94" /> 
<circle cx="4822.84" cy="42500" r="1003.94" /> 
<circle cx="4822.84" cy="39192.9" r="1003.94" /> 
<circle cx="4822.84" cy="35807.1" r="1003.94" /> 
<circle cx="4822.84" cy="32480.3" r="1003.94" /> 
<circle cx="4822.84" cy="29133.9" r="1003.94" /> 
<circle cx="4822.84" cy="25787.4" r="1003.94" /> 
<circle cx="4822.84" cy="22480.3" r="1003.94" /> 
<circle cx="4822.84" cy="19114.2" r="1003.94" /> 
<circle cx="13070.9" cy="16535.4" r="629.921" /> 
<circle cx="7972.44" cy="16535.4" r="629.921" /> 
<circle cx="2874.02" cy="16535.4" r="629.921" /> 
<circle cx="13070.9" cy="9862.21" r="629.921" /> 
<circle cx="7972.44" cy="9862.21" r="629.921" /> 
<circle cx="2874.02" cy="9862.21" r="629.921" /> 
<circle cx="13070.9" cy="12834.6" r="1259.84" /> 
<circle cx="7972.44" cy="12815" r="1259.84" /> 
<circle cx="13070.9" cy="6141.73" r="1259.84" /> 
<circle cx="7972.44" cy="6141.73" r="1259.84" /> 
<circle cx="2854.33" cy="12815" r="1259.84" /> 
<circle cx="2854.33" cy="6141.73" r="1259.84" /> 
<path d="M15905 50629
L15905 39
" />
<circle cx="2992.13" cy="49448.8" r="629.921" /> 
<circle cx="2992.13" cy="1220.47" r="629.921" /> 
<path d="M39 50629
L39 39
" />
<path d="M15905 50629
L39 50629
" />
<path d="M39 39
L15905 39
" />
</g> 
</svg>
