<?xml version="1.0" standalone="no"?>
 <!DOCTYPE svg PUBLIC "-//W3C//DTD SVG 1.1//EN" 
 "http://www.w3.org/Graphics/SVG/1.1/DTD/svg11.dtd"> 
<svg xmlns="http://www.w3.org/2000/svg" version="1.1" 
    width="6.07822cm" height="12.8676cm" viewBox="0 0 23930 50660 ">
<title>SVG Picture created as Intellijel_QuadraExpMK2_Template-brd.svg date 2019/04/03 19:48:18 </title>
  <desc>Picture generated by PCBNEW </desc>
<g style="fill:#000000; fill-opacity:1;stroke:#000000; stroke-opacity:1;
stroke-linecap:round; stroke-linejoin:round; "
 transform="translate(0 0) scale(1 1)">
</g>
<g style="fill:#000000; fill-opacity:0.0; 
stroke:#000000; stroke-width:-0.000393701; stroke-opacity:1; 
stroke-linecap:round; stroke-linejoin:round;">
</g>
<g style="fill:#C25106; fill-opacity:0.0; 
stroke:#C25106; stroke-width:-0.000393701; stroke-opacity:1; 
stroke-linecap:round; stroke-linejoin:round;">
</g>
<g style="fill:#C25106; fill-opacity:0.0; 
stroke:#C25106; stroke-width:78.7402; stroke-opacity:1; 
stroke-linecap:round; stroke-linejoin:round;">
<path d="M21181 30196
L19133 30196
" />
<path d="M21181 30157
L21181 28661
" />
<path d="M19133 28661
L21181 28661
" />
<path d="M19133 28661
L19133 30157
" />
<path d="M21220 12834
L19173 12834
" />
<path d="M21220 12834
L21220 11338
" />
<path d="M19173 11338
L21220 11338
" />
<path d="M19173 11338
L19173 12834
" />
<circle cx="14704.7" cy="43149.6" r="1240.16" /> 
<circle cx="9212.6" cy="43149.6" r="1240.16" /> 
<circle cx="20944.9" cy="41141.7" r="610.236" /> 
<circle cx="20944.9" cy="44685" r="1240.16" /> 
<circle cx="2952.76" cy="41102.4" r="610.236" /> 
<circle cx="2913.39" cy="44645.7" r="1240.16" /> 
<circle cx="21043.3" cy="33307.1" r="1240.16" /> 
<circle cx="15098.4" cy="33287.4" r="1240.16" /> 
<circle cx="6850.39" cy="35610.2" r="1240.16" /> 
<circle cx="6850.39" cy="31712.6" r="1240.16" /> 
<circle cx="2578.74" cy="30492.1" r="610.236" /> 
<circle cx="2519.69" cy="33287.4" r="1240.16" /> 
<circle cx="21043.3" cy="24685" r="1240.16" /> 
<circle cx="15098.4" cy="24665.4" r="1240.16" /> 
<circle cx="6850.39" cy="26988.2" r="1240.16" /> 
<circle cx="6850.39" cy="23090.6" r="1240.16" /> 
<circle cx="2578.74" cy="21870.1" r="610.236" /> 
<circle cx="2519.69" cy="24665.4" r="1240.16" /> 
<circle cx="21043.3" cy="16023.6" r="1240.16" /> 
<circle cx="15098.4" cy="16003.9" r="1240.16" /> 
<circle cx="6850.39" cy="18326.8" r="1240.16" /> 
<circle cx="6850.39" cy="14429.1" r="1240.16" /> 
<circle cx="2578.74" cy="13208.7" r="610.236" /> 
<circle cx="2519.69" cy="16003.9" r="1240.16" /> 
<circle cx="21043.3" cy="7401.58" r="1240.16" /> 
<circle cx="15098.4" cy="7381.89" r="1240.16" /> 
<circle cx="6850.39" cy="9704.72" r="1240.16" /> 
<circle cx="6850.39" cy="5807.09" r="1240.16" /> 
<circle cx="2578.74" cy="4586.61" r="610.236" /> 
<circle cx="2519.69" cy="7381.89" r="1240.16" /> 
<path d="M23897 50629
L39 50629
" />
<path d="M23897 39
L23897 50629
" />
<path d="M39 39
L23897 39
" />
<path d="M39 50629
L39 39
" />
<circle cx="2992.13" cy="49448.8" r="631.15" /> 
<circle cx="20984.3" cy="49448.8" r="631.15" /> 
<circle cx="20984.3" cy="1220.47" r="631.15" /> 
<circle cx="2992.13" cy="1220.47" r="631.15" /> 
</g> 
</svg>
