<?xml version="1.0" standalone="no"?>
 <!DOCTYPE svg PUBLIC "-//W3C//DTD SVG 1.1//EN" 
 "http://www.w3.org/Graphics/SVG/1.1/DTD/svg11.dtd"> 
<svg xmlns="http://www.w3.org/2000/svg" version="1.1" 
    width="6.07822cm" height="12.8676cm" viewBox="0 0 23930 50660 ">
<title>SVG Picture created as Intellijel_Quadra_Template-brd.svg date 2019/04/02 18:46:16 </title>
  <desc>Picture generated by PCBNEW </desc>
<g style="fill:#000000; fill-opacity:1;stroke:#000000; stroke-opacity:1;
stroke-linecap:round; stroke-linejoin:round; "
 transform="translate(0 0) scale(1 1)">
</g>
<g style="fill:#000000; fill-opacity:0.0; 
stroke:#000000; stroke-width:-0.000393701; stroke-opacity:1; 
stroke-linecap:round; stroke-linejoin:round;">
</g>
<g style="fill:#C25106; fill-opacity:0.0; 
stroke:#C25106; stroke-width:-0.000393701; stroke-opacity:1; 
stroke-linecap:round; stroke-linejoin:round;">
</g>
<g style="fill:#C25106; fill-opacity:0.0; 
stroke:#C25106; stroke-width:78.7402; stroke-opacity:1; 
stroke-linecap:round; stroke-linejoin:round;">
<circle cx="3740.16" cy="44606.3" r="1250" /> 
<circle cx="20196.9" cy="44606.3" r="1250" /> 
<circle cx="9212.6" cy="44606.3" r="1250" /> 
<circle cx="14724.4" cy="44606.3" r="1250" /> 
<circle cx="20196.9" cy="39527.6" r="1250" /> 
<circle cx="14724.4" cy="39527.6" r="1250" /> 
<circle cx="9212.6" cy="39527.6" r="1250" /> 
<circle cx="3740.16" cy="39527.6" r="1250" /> 
<circle cx="11968.5" cy="24566.9" r="629.921" /> 
<circle cx="11968.5" cy="33189" r="629.921" /> 
<circle cx="18661.4" cy="33189" r="1771.65" /> 
<circle cx="5275.59" cy="33189" r="1771.65" /> 
<path d="M10511 34763
L10511 36338
" />
<path d="M13464 36338
L10511 36338
" />
<path d="M13464 34763
L13464 36338
" />
<path d="M10511 34763
L13464 34763
" />
<path d="M10787 30039
L10787 31614
" />
<path d="M13149 31614
L10787 31614
" />
<path d="M13149 30039
L13149 31614
" />
<path d="M10787 30039
L13149 30039
" />
<circle cx="11968.5" cy="24566.9" r="629.921" /> 
<circle cx="18661.4" cy="24566.9" r="1771.65" /> 
<circle cx="5275.59" cy="24566.9" r="1771.65" /> 
<path d="M10511 26141
L10511 27716
" />
<path d="M13464 27716
L10511 27716
" />
<path d="M13464 26141
L13464 27716
" />
<path d="M10511 26141
L13464 26141
" />
<path d="M10787 21417
L10787 22992
" />
<path d="M13149 22992
L10787 22992
" />
<path d="M13149 21417
L13149 22992
" />
<path d="M10787 21417
L13149 21417
" />
<path d="M13464 19055
L10511 19055
" />
<circle cx="11968.5" cy="15905.5" r="629.921" /> 
<circle cx="18661.4" cy="15905.5" r="1771.65" /> 
<circle cx="5275.59" cy="15905.5" r="1771.65" /> 
<path d="M10511 17480
L10511 19055
" />
<path d="M13464 17480
L13464 19055
" />
<path d="M10511 17480
L13464 17480
" />
<path d="M10787 12755
L10787 14330
" />
<path d="M13149 14330
L10787 14330
" />
<path d="M13149 12755
L13149 14330
" />
<path d="M10787 12755
L13149 12755
" />
<circle cx="18661.4" cy="7283.46" r="1771.65" /> 
<circle cx="5275.59" cy="7283.46" r="1771.65" /> 
<circle cx="11968.5" cy="7283.46" r="629.921" /> 
<path d="M10511 8858
L10511 10433
" />
<path d="M13464 10433
L10511 10433
" />
<path d="M13464 8858
L13464 10433
" />
<path d="M10511 8858
L13464 8858
" />
<path d="M10787 4133
L10787 5708
" />
<path d="M13149 5708
L10787 5708
" />
<path d="M13149 4133
L13149 5708
" />
<path d="M10787 4133
L13149 4133
" />
<circle cx="20984.3" cy="49448.8" r="631.15" /> 
<circle cx="20984.3" cy="1220.47" r="631.15" /> 
<circle cx="2992.13" cy="49448.8" r="631.15" /> 
<circle cx="2992.13" cy="1220.47" r="631.15" /> 
<path d="M39 50629
L39 39
" />
<path d="M23897 50629
L39 50629
" />
<path d="M23897 39
L23897 50629
" />
<path d="M39 39
L23897 39
" />
</g> 
</svg>
