<?xml version="1.0" standalone="no"?>
 <!DOCTYPE svg PUBLIC "-//W3C//DTD SVG 1.1//EN" 
 "http://www.w3.org/Graphics/SVG/1.1/DTD/svg11.dtd"> 
<svg xmlns="http://www.w3.org/2000/svg" version="1.1" 
    width="7.0993cm" height="3.98272cm" viewBox="0 0 27950 15680 ">
<title>SVG Picture created as Duatt_BnG_Panel-Eco2.User.svg date 2020/05/22 19:06:34 </title>
  <desc>Picture generated by PCBNEW </desc>
<g style="fill:#000000; fill-opacity:1;stroke:#000000; stroke-opacity:1;
stroke-linecap:round; stroke-linejoin:round; "
 transform="translate(0 0) scale(1 1)">
</g>
<g style="fill:#000000; fill-opacity:0.0; 
stroke:#000000; stroke-width:-0.000393701; stroke-opacity:1; 
stroke-linecap:round; stroke-linejoin:round;">
</g>
<g style="fill:#D35517; fill-opacity:0.0; 
stroke:#D35517; stroke-width:-0.000393701; stroke-opacity:1; 
stroke-linecap:round; stroke-linejoin:round;">
</g>
<g style="fill:#D35517; fill-opacity:0.0; 
stroke:#D35517; stroke-width:78.7402; stroke-opacity:1; 
stroke-linecap:round; stroke-linejoin:round;">
<path d="M9035 7066
L9035 5885
" />
<path d="M9035.43 5885.83 A984.252 984.252 0.0 0 0 7460.63 5885.83 " />
<path d="M7460.63 7066.93 A984.252 984.252 0.0 0 0 9035.43 7066.93 " />
<path d="M7460 5885
L7460 7066
" />
<path d="M12007 5275
L13188 5275
" />
<path d="M13189 5275.59 A984.252 984.252 0.0 0 0 13189 3700.79 " />
<path d="M13188 3700
L12007 3700
" />
<path d="M12007.9 3700.79 A984.252 984.252 0.0 0 0 12007.9 5275.59 " />
<circle cx="24862.2" cy="10157.5" r="1240.16" /> 
<circle cx="24763.8" cy="5472.44" r="1240.16" /> 
<circle cx="19232.3" cy="5472.44" r="1240.16" /> 
<circle cx="12598.4" cy="8838.58" r="1771.65" /> 
<circle cx="3937.01" cy="8838.58" r="1771.65" /> 
<circle cx="19252" cy="10157.5" r="1240.16" /> 
<circle cx="2992.13" cy="14468.5" r="634.824" /> 
<circle cx="24980.3" cy="14468.5" r="634.824" /> 
<circle cx="24980.3" cy="1220.47" r="634.824" /> 
<circle cx="2992.13" cy="1220.47" r="634.824" /> 
<path d="M27913 39
L27913 15649
" />
<path d="M39 39
L27913 39
" />
<path d="M39 15649
L27913 15649
" />
<path d="M39 39
L39 15649
" />
<path d="M3346 5275
L4527 5275
" />
<path d="M4527.56 5275.59 A984.252 984.252 0.0 0 0 4527.56 3700.79 " />
<path d="M3346.46 3700.79 A984.252 984.252 0.0 0 0 3346.46 5275.59 " />
<path d="M4527 3700
L3346 3700
" />
</g> 
</svg>
