<?xml version="1.0" standalone="no"?>
 <!DOCTYPE svg PUBLIC "-//W3C//DTD SVG 1.1//EN" 
 "http://www.w3.org/Graphics/SVG/1.1/DTD/svg11.dtd"> 
<svg xmlns="http://www.w3.org/2000/svg" version="1.1" 
    width="13.2867cm" height="3.98272cm" viewBox="0 0 52310 15680 ">
<title>SVG Picture created as uMidi_BnG_Panel-brd.svg date 2019/10/23 19:58:32 </title>
  <desc>Picture generated by PCBNEW </desc>
<g style="fill:#000000; fill-opacity:1;stroke:#000000; stroke-opacity:1;
stroke-linecap:round; stroke-linejoin:round; "
 transform="translate(0 0) scale(1 1)">
</g>
<g style="fill:#000000; fill-opacity:0.0; 
stroke:#000000; stroke-width:-0.000393701; stroke-opacity:1; 
stroke-linecap:round; stroke-linejoin:round;">
</g>
<g style="fill:#C25106; fill-opacity:0.0; 
stroke:#C25106; stroke-width:-0.000393701; stroke-opacity:1; 
stroke-linecap:round; stroke-linejoin:round;">
</g>
<g style="fill:#C25106; fill-opacity:0.0; 
stroke:#C25106; stroke-width:78.7402; stroke-opacity:1; 
stroke-linecap:round; stroke-linejoin:round;">
<path d="M37106 5846
L44251 7440
" />
</g>
<g style="fill:#C25106; fill-opacity:0.0; 
stroke:#C25106; stroke-width:118.11; stroke-opacity:1; 
stroke-linecap:round; stroke-linejoin:round;">
<path d="M44693 7418
L44496 7418
" />
<path d="M44496 7727
L44496 7137
L44777 7137
" />
<path d="M45002 7727
L45002 7334
" />
<path d="M45002 7446
L45030 7390
L45059 7362
L45115 7334
L45171 7334
" />
<path d="M45452 7727
L45396 7699
L45368 7671
L45340 7615
L45340 7446
L45368 7390
L45396 7362
L45452 7334
L45537 7334
L45593 7362
L45621 7390
L45649 7446
L45649 7615
L45621 7671
L45593 7699
L45537 7727
L45452 7727
" />
<path d="M45902 7334
L45902 7727
" />
<path d="M45902 7390
L45930 7362
L45987 7334
L46071 7334
L46127 7362
L46155 7418
L46155 7727
" />
<path d="M46352 7334
L46577 7334
" />
<path d="M46437 7137
L46437 7643
L46465 7699
L46521 7727
L46577 7727
" />
<path d="M47561 7671
L47533 7699
L47449 7727
L47393 7727
L47308 7699
L47252 7643
L47224 7587
L47196 7474
L47196 7390
L47224 7277
L47252 7221
L47308 7165
L47393 7137
L47449 7137
L47533 7165
L47561 7193
" />
<path d="M47899 7727
L47843 7699
L47814 7671
L47786 7615
L47786 7446
L47814 7390
L47843 7362
L47899 7334
L47983 7334
L48039 7362
L48068 7390
L48096 7446
L48096 7615
L48068 7671
L48039 7699
L47983 7727
L47899 7727
" />
<path d="M48602 7334
L48602 7727
" />
<path d="M48349 7334
L48349 7643
L48377 7699
L48433 7727
L48517 7727
L48574 7699
L48602 7671
" />
<path d="M48883 7334
L48883 7727
" />
<path d="M48883 7390
L48911 7362
L48967 7334
L49052 7334
L49108 7362
L49136 7418
L49136 7727
" />
<path d="M49333 7334
L49558 7334
" />
<path d="M49417 7137
L49417 7643
L49446 7699
L49502 7727
L49558 7727
" />
<path d="M49980 7699
L49924 7727
L49811 7727
L49755 7699
L49727 7643
L49727 7418
L49755 7362
L49811 7334
L49924 7334
L49980 7362
L50008 7418
L50008 7474
L49727 7530
" />
<path d="M50261 7727
L50261 7334
" />
<path d="M50261 7446
L50289 7390
L50317 7362
L50374 7334
L50430 7334
" />
<path d="M50598 7699
L50655 7727
L50767 7727
L50823 7699
L50852 7643
L50852 7615
L50823 7559
L50767 7530
L50683 7530
L50627 7502
L50598 7446
L50598 7418
L50627 7362
L50683 7334
L50767 7334
L50823 7362
" />
<path d="M51105 7727
L51105 7334
" />
<path d="M51105 7137
L51077 7165
L51105 7193
L51133 7165
L51105 7137
L51105 7193
" />
<path d="M51386 7334
L51386 7727
" />
<path d="M51386 7390
L51414 7362
L51470 7334
L51555 7334
L51611 7362
L51639 7418
L51639 7727
" />
<path d="M51920 7727
L51920 7137
" />
<path d="M51976 7502
L52145 7727
" />
<path d="M52145 7334
L51920 7559
" />
</g>
<g style="fill:#C25106; fill-opacity:0.0; 
stroke:#C25106; stroke-width:78.7402; stroke-opacity:1; 
stroke-linecap:round; stroke-linejoin:round;">
<circle cx="37106.3" cy="4842.52" r="1003.94" /> 
<circle cx="37106.3" cy="4842.52" r="610.236" /> 
<circle cx="41417.3" cy="4645.67" r="1023.62" /> 
<circle cx="32775.6" cy="4645.67" r="1023.62" /> 
<circle cx="41417.3" cy="10137.8" r="1240.16" /> 
<circle cx="37126" cy="10137.8" r="1240.16" /> 
<circle cx="32795.3" cy="10137.8" r="1240.16" /> 
<circle cx="28464.6" cy="10137.8" r="1240.16" /> 
<circle cx="24114.2" cy="10137.8" r="1240.16" /> 
<circle cx="24114.2" cy="6418.55" r="631.15" /> 
<circle cx="19783.5" cy="10137.8" r="1240.16" /> 
<circle cx="19783.5" cy="6418.55" r="631.15" /> 
<circle cx="15472.4" cy="10137.8" r="1240.16" /> 
<circle cx="15472.4" cy="6418.55" r="631.15" /> 
<circle cx="11141.7" cy="6417.32" r="631.15" /> 
<circle cx="11141.7" cy="10137.8" r="1240.16" /> 
<circle cx="6811.02" cy="6417.32" r="631.15" /> 
<circle cx="6830.71" cy="10137.8" r="1240.16" /> 
<circle cx="2519.69" cy="6417.32" r="631.15" /> 
<circle cx="2539.37" cy="10137.8" r="1240.16" /> 
<circle cx="40984.3" cy="1220.47" r="629.921" /> 
<circle cx="40984.3" cy="14468.5" r="629.921" /> 
<circle cx="2992.13" cy="14468.5" r="629.921" /> 
<circle cx="2992.13" cy="1220.47" r="629.921" /> 
<path d="M43897 39
L43897 15649
" />
<path d="M39 39
L43897 39
" />
<path d="M39 15649
L43897 15649
" />
<path d="M39 39
L39 15649
" />
</g> 
</svg>
