<?xml version="1.0" standalone="no"?>
 <!DOCTYPE svg PUBLIC "-//W3C//DTD SVG 1.1//EN" 
 "http://www.w3.org/Graphics/SVG/1.1/DTD/svg11.dtd"> 
<svg xmlns="http://www.w3.org/2000/svg" version="1.1" 
    width="29.7231cm" height="12.8778cm" viewBox="0 0 117020 50700 ">
<title>SVG Picture created as Cwejman_VCA-4MX_Template-brd.svg date 2019/04/01 09:15:03 </title>
  <desc>Picture generated by PCBNEW </desc>
<g style="fill:#000000; fill-opacity:1;stroke:#000000; stroke-opacity:1;
stroke-linecap:round; stroke-linejoin:round; "
 transform="translate(0 0) scale(1 1)">
</g>
<g style="fill:#000000; fill-opacity:0.0; 
stroke:#000000; stroke-width:-0.000393701; stroke-opacity:1; 
stroke-linecap:round; stroke-linejoin:round;">
</g>
<g style="fill:#C25106; fill-opacity:0.0; 
stroke:#C25106; stroke-width:-0.000393701; stroke-opacity:1; 
stroke-linecap:round; stroke-linejoin:round;">
</g>
<g style="fill:#C25106; fill-opacity:0.0; 
stroke:#C25106; stroke-width:78.7402; stroke-opacity:1; 
stroke-linecap:round; stroke-linejoin:round;">
<circle cx="2972.44" cy="49468.5" r="649.606" /> 
<circle cx="16948.8" cy="49468.5" r="649.606" /> 
<circle cx="16948.8" cy="1279.53" r="649.606" /> 
<circle cx="3011.81" cy="1240.16" r="649.606" /> 
</g>
<g style="fill:#C25106; fill-opacity:0.0; 
stroke:#C25106; stroke-width:118.11; stroke-opacity:1; 
stroke-linecap:round; stroke-linejoin:round;">
<circle cx="17539.4" cy="44665.4" r="1555.12" /> 
<circle cx="12519.7" cy="44665.4" r="1555.12" /> 
<circle cx="7500" cy="44665.4" r="1555.12" /> 
<circle cx="2480.32" cy="44685" r="1555.12" /> 
<circle cx="17539.4" cy="37893.7" r="1555.12" /> 
<circle cx="12519.7" cy="37893.7" r="1555.12" /> 
<circle cx="7500" cy="37893.7" r="1555.12" /> 
<circle cx="2480.32" cy="37913.4" r="1555.12" /> 
<circle cx="17519.7" cy="32126" r="1555.12" /> 
<circle cx="12519.7" cy="32126" r="1555.12" /> 
<circle cx="7500" cy="32126" r="1555.12" /> 
<circle cx="2480.32" cy="32126" r="1555.12" /> 
<circle cx="17519.7" cy="25669.3" r="1555.12" /> 
<circle cx="12519.7" cy="25669.3" r="1555.12" /> 
<circle cx="7500" cy="25669.3" r="1555.12" /> 
<circle cx="2480.32" cy="25649.6" r="1555.12" /> 
<circle cx="15236.2" cy="17500" r="1870.08" /> 
<circle cx="4685.04" cy="17500" r="1870.08" /> 
<circle cx="15236.2" cy="8523.62" r="1870.08" /> 
<circle cx="4685.04" cy="8523.62" r="1870.08" /> 
<path d="M59 50649
L59 59
" />
<path d="M19940 50649
L59 50649
" />
<path d="M19940 59
L19940 50649
" />
<path d="M59 59
L19940 59
" />
</g> 
</svg>
