<?xml version="1.0" standalone="no"?>
 <!DOCTYPE svg PUBLIC "-//W3C//DTD SVG 1.1//EN" 
 "http://www.w3.org/Graphics/SVG/1.1/DTD/svg11.dtd"> 
<svg xmlns="http://www.w3.org/2000/svg" version="1.1" 
    width="12.1793cm" height="3.98272cm" viewBox="0 0 47950 15680 ">
<title>SVG Picture created as Mutli-FX_1U_Panel-Eco2.User.svg date 2020/05/22 19:08:50 </title>
  <desc>Picture generated by PCBNEW </desc>
<g style="fill:#000000; fill-opacity:1;stroke:#000000; stroke-opacity:1;
stroke-linecap:round; stroke-linejoin:round; "
 transform="translate(0 0) scale(1 1)">
</g>
<g style="fill:#000000; fill-opacity:0.0; 
stroke:#000000; stroke-width:-0.000393701; stroke-opacity:1; 
stroke-linecap:round; stroke-linejoin:round;">
</g>
<g style="fill:#D35517; fill-opacity:0.0; 
stroke:#D35517; stroke-width:-0.000393701; stroke-opacity:1; 
stroke-linecap:round; stroke-linejoin:round;">
</g>
<g style="fill:#D35517; fill-opacity:0.0; 
stroke:#D35517; stroke-width:19.685; stroke-opacity:1; 
stroke-linecap:round; stroke-linejoin:round;">
<circle cx="45277" cy="10198.2" r="1261.23" /> 
</g>
<g style="fill:#D35517; fill-opacity:0.0; 
stroke:#D35517; stroke-width:78.7402; stroke-opacity:1; 
stroke-linecap:round; stroke-linejoin:round;">
<circle cx="40551.2" cy="10196.9" r="1261.23" /> 
</g>
<g style="fill:#D35517; fill-opacity:0.0; 
stroke:#D35517; stroke-width:19.685; stroke-opacity:1; 
stroke-linecap:round; stroke-linejoin:round;">
<circle cx="45295.3" cy="5452.76" r="1261.23" /> 
</g>
<g style="fill:#D35517; fill-opacity:0.0; 
stroke:#D35517; stroke-width:78.7402; stroke-opacity:1; 
stroke-linecap:round; stroke-linejoin:round;">
<circle cx="40551.2" cy="5492.13" r="1261.23" /> 
<circle cx="33878" cy="7854.33" r="1397.64" /> 
<circle cx="2618.11" cy="10196.9" r="1259.84" /> 
<circle cx="25216.5" cy="7854.33" r="1771.65" /> 
<circle cx="16555.1" cy="7854.33" r="1771.65" /> 
<circle cx="7913.39" cy="7854.33" r="1771.65" /> 
<circle cx="2598.43" cy="7381.89" r="629.921" /> 
<circle cx="2618.11" cy="4881.89" r="1043.31" /> 
<circle cx="44980.3" cy="1220.47" r="631.15" /> 
<circle cx="44981.5" cy="14468.5" r="631.15" /> 
<circle cx="2972.44" cy="14468.5" r="631.15" /> 
<circle cx="2992.13" cy="1220.47" r="631.15" /> 
<path d="M39 39
L47913 39
" />
<path d="M47913 39
L47913 15649
" />
<path d="M39 15649
L47913 15649
" />
<path d="M39 39
L39 15649
" />
<path d="M21496.1 5314.96 A984.252 984.252 0.0 0 0 21496.1 3740.16 " />
<path d="M20315 3740.16 A984.252 984.252 0.0 0 0 20315 5314.96 " />
<path d="M20314 5314
L21496 5314
" />
<path d="M21496 3740
L20314 3740
" />
</g> 
</svg>
