<?xml version="1.0" standalone="no"?>
 <!DOCTYPE svg PUBLIC "-//W3C//DTD SVG 1.1//EN" 
 "http://www.w3.org/Graphics/SVG/1.1/DTD/svg11.dtd"> 
<svg xmlns="http://www.w3.org/2000/svg" version="1.1" 
    width="4.04876cm" height="12.8676cm" viewBox="0 0 15940 50660 ">
<title>SVG Picture created as Optomix_BnG_Panel-brd.svg date 2019/05/29 20:34:54 </title>
  <desc>Picture generated by PCBNEW </desc>
<g style="fill:#000000; fill-opacity:1;stroke:#000000; stroke-opacity:1;
stroke-linecap:round; stroke-linejoin:round; "
 transform="translate(0 0) scale(1 1)">
</g>
<g style="fill:#000000; fill-opacity:0.0; 
stroke:#000000; stroke-width:-0.000393701; stroke-opacity:1; 
stroke-linecap:round; stroke-linejoin:round;">
</g>
<g style="fill:#C25106; fill-opacity:0.0; 
stroke:#C25106; stroke-width:-0.000393701; stroke-opacity:1; 
stroke-linecap:round; stroke-linejoin:round;">
</g>
<g style="fill:#C25106; fill-opacity:0.0; 
stroke:#C25106; stroke-width:78.7402; stroke-opacity:1; 
stroke-linecap:round; stroke-linejoin:round;">
<circle cx="8090.55" cy="44901.6" r="1299.21" /> 
<circle cx="2795.28" cy="44507.9" r="1299.21" /> 
<circle cx="6732.28" cy="40216.5" r="1299.21" /> 
<circle cx="13228.3" cy="39015.7" r="1299.21" /> 
<circle cx="12204.7" cy="32322.8" r="1555.12" /> 
<circle cx="3759.84" cy="32322.8" r="1555.12" /> 
<circle cx="13189" cy="25885.8" r="1299.21" /> 
<circle cx="8051.18" cy="25866.1" r="1299.21" /> 
<circle cx="2972.44" cy="26279.5" r="1299.21" /> 
<circle cx="6692.91" cy="20216.5" r="1299.21" /> 
<circle cx="13208.7" cy="19015.7" r="1299.21" /> 
<circle cx="12185" cy="12303.1" r="1555.12" /> 
<circle cx="3759.84" cy="12322.8" r="1555.12" /> 
<circle cx="13149.6" cy="5629.92" r="1299.21" /> 
<circle cx="8031.5" cy="5649.61" r="1299.21" /> 
<circle cx="2952.76" cy="6043.31" r="1299.21" /> 
<path d="M39 50629
L39 39
" />
<path d="M15905 50629
L39 50629
" />
<path d="M15905 39
L15905 50629
" />
<path d="M39 39
L15905 39
" />
</g> 
</svg>
