<?xml version="1.0" standalone="no"?>
 <!DOCTYPE svg PUBLIC "-//W3C//DTD SVG 1.1//EN" 
 "http://www.w3.org/Graphics/SVG/1.1/DTD/svg11.dtd"> 
<svg xmlns="http://www.w3.org/2000/svg" version="1.1" 
    width="4.05892cm" height="12.8676cm" viewBox="0 0 15980 50660 ">
<title>SVG Picture created as STO_BnG_Panel-brd.svg date 2019/05/29 19:41:20 </title>
  <desc>Picture generated by PCBNEW </desc>
<g style="fill:#000000; fill-opacity:1;stroke:#000000; stroke-opacity:1;
stroke-linecap:round; stroke-linejoin:round; "
 transform="translate(0 0) scale(1 1)">
</g>
<g style="fill:#000000; fill-opacity:0.0; 
stroke:#000000; stroke-width:-0.000393701; stroke-opacity:1; 
stroke-linecap:round; stroke-linejoin:round;">
</g>
<g style="fill:#C25106; fill-opacity:0.0; 
stroke:#C25106; stroke-width:-0.000393701; stroke-opacity:1; 
stroke-linecap:round; stroke-linejoin:round;">
</g>
<g style="fill:#C25106; fill-opacity:0.0; 
stroke:#C25106; stroke-width:78.7402; stroke-opacity:1; 
stroke-linecap:round; stroke-linejoin:round;">
<circle cx="3208.66" cy="44606.3" r="1279.53" /> 
<circle cx="8090.55" cy="44606.3" r="1279.53" /> 
<circle cx="12815" cy="44606.3" r="1279.53" /> 
<circle cx="12815" cy="39901.6" r="1279.53" /> 
<circle cx="12815" cy="30492.1" r="1279.53" /> 
<circle cx="12815" cy="35236.2" r="1279.53" /> 
<circle cx="4547.24" cy="35944.9" r="1555.12" /> 
<circle cx="4547.24" cy="28110.2" r="1555.12" /> 
<circle cx="10826.8" cy="23582.7" r="1456.69" /> 
<circle cx="3779.53" cy="20708.7" r="688.976" /> 
<circle cx="7283.46" cy="15531.5" r="1555.12" /> 
<circle cx="12775.6" cy="6141.73" r="1279.53" /> 
<circle cx="8051.18" cy="6122.05" r="1279.53" /> 
<circle cx="3129.92" cy="6122.05" r="1279.53" /> 
<path d="M39 50629
L39 39
" />
<path d="M15944 50629
L39 50629
" />
<path d="M15944 39
L15944 50629
" />
<path d="M39 39
L15944 39
" />
</g> 
</svg>
