<?xml version="1.0" standalone="no"?>
 <!DOCTYPE svg PUBLIC "-//W3C//DTD SVG 1.1//EN" 
 "http://www.w3.org/Graphics/SVG/1.1/DTD/svg11.dtd"> 
<svg xmlns="http://www.w3.org/2000/svg" version="1.1" 
    width="8.10768cm" height="3.98272cm" viewBox="0 0 31920 15680 ">
<title>SVG Picture created as Zeroscope1U_BnG_Panel-brd.svg date 2019/10/17 19:32:46 </title>
  <desc>Picture generated by PCBNEW </desc>
<g style="fill:#000000; fill-opacity:1;stroke:#000000; stroke-opacity:1;
stroke-linecap:round; stroke-linejoin:round; "
 transform="translate(0 0) scale(1 1)">
</g>
<g style="fill:#000000; fill-opacity:0.0; 
stroke:#000000; stroke-width:-0.000393701; stroke-opacity:1; 
stroke-linecap:round; stroke-linejoin:round;">
</g>
<g style="fill:#C25106; fill-opacity:0.0; 
stroke:#C25106; stroke-width:-0.000393701; stroke-opacity:1; 
stroke-linecap:round; stroke-linejoin:round;">
</g>
<g style="fill:#C25106; fill-opacity:0.0; 
stroke:#C25106; stroke-width:78.7402; stroke-opacity:1; 
stroke-linecap:round; stroke-linejoin:round;">
<circle cx="26535.4" cy="6870.08" r="1378.09" /> 
<path d="M21377 9232
L21377 4153
" />
<path d="M12027 9232
L21377 9232
" />
<path d="M12027 4153
L12027 9232
" />
<path d="M21377 4153
L12027 4153
" />
<path d="M31889 39
L31889 15649
" />
<circle cx="2992.13" cy="14468.5" r="634.824" /> 
<circle cx="28937" cy="14468.5" r="634.824" /> 
<circle cx="28937" cy="1220.47" r="634.824" /> 
<circle cx="2992.13" cy="1220.47" r="634.824" /> 
<circle cx="7854.33" cy="10157.5" r="1240.16" /> 
<circle cx="7854.33" cy="5452.76" r="1240.16" /> 
<circle cx="2952.76" cy="10157.5" r="1240.16" /> 
<circle cx="2952.76" cy="5452.76" r="1240.16" /> 
<path d="M39 39
L31889 39
" />
<path d="M39 15649
L31889 15649
" />
<path d="M39 39
L39 15649
" />
</g> 
</svg>
