<?xml version="1.0" standalone="no"?>
 <!DOCTYPE svg PUBLIC "-//W3C//DTD SVG 1.1//EN" 
 "http://www.w3.org/Graphics/SVG/1.1/DTD/svg11.dtd"> 
<svg xmlns="http://www.w3.org/2000/svg" version="1.1" 
    width="6.06298cm" height="12.8549cm" viewBox="0 0 23870 50610 ">
<title>SVG Picture created as Filter8_BnG_Panel-Eco2.User.svg date 2020/05/22 19:17:06 </title>
  <desc>Picture generated by PCBNEW </desc>
<g style="fill:#000000; fill-opacity:1;stroke:#000000; stroke-opacity:1;
stroke-linecap:round; stroke-linejoin:round; "
 transform="translate(0 0) scale(1 1)">
</g>
<g style="fill:#000000; fill-opacity:0.0; 
stroke:#000000; stroke-width:-0.000393701; stroke-opacity:1; 
stroke-linecap:round; stroke-linejoin:round;">
</g>
<g style="fill:#D35517; fill-opacity:0.0; 
stroke:#D35517; stroke-width:-0.000393701; stroke-opacity:1; 
stroke-linecap:round; stroke-linejoin:round;">
</g>
<g style="fill:#D35517; fill-opacity:0.0; 
stroke:#D35517; stroke-width:19.685; stroke-opacity:1; 
stroke-linecap:round; stroke-linejoin:round;">
<circle cx="21820.9" cy="38592.5" r="1259.84" /> 
<circle cx="21820.9" cy="43907.5" r="1259.84" /> 
<circle cx="17805.1" cy="43907.5" r="1259.84" /> 
<circle cx="13946.9" cy="43907.5" r="1259.84" /> 
<circle cx="10009.8" cy="43907.5" r="1259.84" /> 
<circle cx="2135.83" cy="43907.5" r="1259.84" /> 
<circle cx="2135.83" cy="38592.5" r="1259.84" /> 
<circle cx="6112.21" cy="43907.5" r="1259.84" /> 
<circle cx="17765.7" cy="35915.4" r="1259.84" /> 
<circle cx="13907.5" cy="35915.4" r="1259.84" /> 
<circle cx="9970.47" cy="35915.4" r="1259.84" /> 
<circle cx="6072.84" cy="35915.4" r="1259.84" /> 
<circle cx="17883.9" cy="25305.1" r="1259.84" /> 
<circle cx="11939" cy="27962.6" r="1259.84" /> 
<circle cx="6033.46" cy="25305.1" r="1259.84" /> 
<circle cx="2116.14" cy="31919.3" r="1318.9" /> 
<circle cx="21801.2" cy="31919.3" r="1318.9" /> 
<circle cx="21801.2" cy="25305.1" r="1318.9" /> 
<circle cx="19813" cy="17332.7" r="1417.32" /> 
<circle cx="11939" cy="21387.8" r="1417.32" /> 
<circle cx="4064.96" cy="17332.7" r="1417.32" /> 
<circle cx="11939" cy="13395.7" r="1417.32" /> 
<circle cx="19813" cy="9379.92" r="1417.32" /> 
<circle cx="17805.1" cy="39931.1" r="649.606" /> 
<circle cx="13946.9" cy="39931.1" r="649.606" /> 
<circle cx="10009.8" cy="39931.1" r="649.606" /> 
<circle cx="6112.21" cy="39931.1" r="649.606" /> 
<circle cx="17765.7" cy="31939" r="649.606" /> 
<circle cx="13907.5" cy="31939" r="649.606" /> 
<circle cx="9970.47" cy="31939" r="649.606" /> 
<circle cx="6072.84" cy="31939" r="649.606" /> 
<circle cx="14911.4" cy="29360.2" r="551.181" /> 
<circle cx="9005.91" cy="29360.2" r="551.181" /> 
<circle cx="2135.83" cy="25305.1" r="1259.84" /> 
<circle cx="11958.7" cy="6722.44" r="1318.9" /> 
<circle cx="4064.96" cy="9379.92" r="1417.32" /> 
<circle cx="2962.6" cy="49419.3" r="631.15" /> 
<circle cx="20954.7" cy="49419.3" r="631.15" /> 
<circle cx="20954.7" cy="1190.95" r="631.15" /> 
<circle cx="2962.6" cy="1190.95" r="631.15" /> 
<path d="M9 50600
L9 9
" />
<path d="M23868 50600
L9 50600
" />
<path d="M23868 9
L23868 50600
" />
<path d="M9 9
L23868 9
" />
</g> 
</svg>
