<?xml version="1.0" encoding="UTF-8" standalone="no"?>
<svg
   xmlns:dc="http://purl.org/dc/elements/1.1/"
   xmlns:cc="http://creativecommons.org/ns#"
   xmlns:rdf="http://www.w3.org/1999/02/22-rdf-syntax-ns#"
   xmlns:svg="http://www.w3.org/2000/svg"
   xmlns="http://www.w3.org/2000/svg"
   version="1.1"
   id="svg2"
   height="128.5mm"
   width="50.500412mm">
  <defs
     id="defs4">
    <clipPath
       clipPathUnits="userSpaceOnUse"
       id="clipPath2999">
      <path
         d="M 0.617,0.48 H 143.151 V 247.864 H 0.617 Z"
         id="path3001" />
    </clipPath>
    <clipPath
       clipPathUnits="userSpaceOnUse"
       id="clipPath3079">
      <path
         d="M 0,364.25 H 143.15 V 0 H 0 Z"
         id="path3081" />
    </clipPath>
    <clipPath
       clipPathUnits="userSpaceOnUse"
       id="clipPath3427">
      <path
         d="M 0,364.25 H 143.15 V 0 H 0 Z"
         id="path3429" />
    </clipPath>
    <clipPath
       clipPathUnits="userSpaceOnUse"
       id="clipPath3849">
      <path
         d="M 0,364.25 H 143.15 V 0 H 0 Z"
         id="path3851" />
    </clipPath>
  </defs>
  <metadata
     id="metadata7">
    <rdf:RDF>
      <cc:Work
         rdf:about="">
        <dc:format>image/svg+xml</dc:format>
        <dc:type
           rdf:resource="http://purl.org/dc/dcmitype/StillImage" />
        <dc:title></dc:title>
      </cc:Work>
    </rdf:RDF>
  </metadata>
  <g
     transform="translate(0,-504.32727)"
     style="display:inline;opacity:1"
     id="layer5">
    <path
       id="path3843"
       style="fill:none;stroke:#e43232;stroke-width:0.3125;stroke-linecap:butt;stroke-linejoin:round;stroke-miterlimit:4;stroke-dasharray:none;stroke-opacity:1"
       d="M 151.5875,799.37905 H 139.185 v -17.715 h 12.4025 z" />
    <g
       transform="matrix(1.3333405,0,0,-1.3333405,0,989.99655)"
       id="g3845">
      <g
         clip-path="url(#clipPath3849)"
         id="g3847">
        <g
           transform="translate(26.6826,44.8926)"
           id="g3853">
          <path
             id="path3855"
             style="fill:none;stroke:#e43232;stroke-width:0.25;stroke-linecap:butt;stroke-linejoin:miter;stroke-miterlimit:4;stroke-dasharray:none;stroke-opacity:1"
             d="m 0,0 c 0,-4.854 -3.935,-8.787 -8.787,-8.787 -4.854,0 -8.787,3.933 -8.787,8.787 0,4.854 3.933,8.787 8.787,8.787 C -3.935,8.787 0,4.854 0,0 Z" />
        </g>
        <g
           transform="translate(62.4707,44.8926)"
           id="g3857">
          <path
             id="path3859"
             style="fill:none;stroke:#e43232;stroke-width:0.25;stroke-linecap:butt;stroke-linejoin:miter;stroke-miterlimit:4;stroke-dasharray:none;stroke-opacity:1"
             d="m 0,0 c 0,-4.854 -3.935,-8.787 -8.789,-8.787 -4.852,0 -8.786,3.933 -8.786,8.787 0,4.854 3.934,8.787 8.786,8.787 C -3.935,8.787 0,4.854 0,0 Z" />
        </g>
        <g
           transform="translate(98.2578,44.8926)"
           id="g3861">
          <path
             id="path3863"
             style="fill:none;stroke:#e43232;stroke-width:0.25;stroke-linecap:butt;stroke-linejoin:miter;stroke-miterlimit:4;stroke-dasharray:none;stroke-opacity:1"
             d="m 0,0 c 0,-4.854 -3.934,-8.787 -8.787,-8.787 -4.854,0 -8.787,3.933 -8.787,8.787 0,4.854 3.933,8.787 8.787,8.787 C -3.934,8.787 0,4.854 0,0 Z" />
        </g>
        <g
           transform="translate(134.043,44.8926)"
           id="g3865">
          <path
             id="path3867"
             style="fill:none;stroke:#e43232;stroke-width:0.25;stroke-linecap:butt;stroke-linejoin:miter;stroke-miterlimit:4;stroke-dasharray:none;stroke-opacity:1"
             d="m 0,0 c 0,-4.854 -3.935,-8.787 -8.788,-8.787 -4.853,0 -8.787,3.933 -8.787,8.787 0,4.854 3.934,8.787 8.787,8.787 C -3.935,8.787 0,4.854 0,0 Z" />
        </g>
        <g
           transform="translate(26.6826,98.5791)"
           id="g3869">
          <path
             id="path3871"
             style="fill:none;stroke:#e43232;stroke-width:0.25;stroke-linecap:butt;stroke-linejoin:miter;stroke-miterlimit:4;stroke-dasharray:none;stroke-opacity:1"
             d="m 0,0 c 0,-4.854 -3.935,-8.788 -8.787,-8.788 -4.854,0 -8.787,3.934 -8.787,8.788 0,4.853 3.933,8.786 8.787,8.786 C -3.935,8.786 0,4.853 0,0 Z" />
        </g>
        <g
           transform="translate(62.4707,98.5791)"
           id="g3873">
          <path
             id="path3875"
             style="fill:none;stroke:#e43232;stroke-width:0.25;stroke-linecap:butt;stroke-linejoin:miter;stroke-miterlimit:4;stroke-dasharray:none;stroke-opacity:1"
             d="m 0,0 c 0,-4.854 -3.935,-8.788 -8.789,-8.788 -4.852,0 -8.786,3.934 -8.786,8.788 0,4.853 3.934,8.786 8.786,8.786 C -3.935,8.786 0,4.853 0,0 Z" />
        </g>
        <g
           transform="translate(98.2578,98.5791)"
           id="g3877">
          <path
             id="path3879"
             style="fill:none;stroke:#e43232;stroke-width:0.25;stroke-linecap:butt;stroke-linejoin:miter;stroke-miterlimit:4;stroke-dasharray:none;stroke-opacity:1"
             d="m 0,0 c 0,-4.854 -3.934,-8.788 -8.787,-8.788 -4.854,0 -8.787,3.934 -8.787,8.788 0,4.853 3.933,8.786 8.787,8.786 C -3.934,8.786 0,4.853 0,0 Z" />
        </g>
        <g
           transform="translate(134.043,98.5791)"
           id="g3881">
          <path
             id="path3883"
             style="fill:none;stroke:#e43232;stroke-width:0.25;stroke-linecap:butt;stroke-linejoin:miter;stroke-miterlimit:4;stroke-dasharray:none;stroke-opacity:1"
             d="m 0,0 c 0,-4.854 -3.935,-8.788 -8.788,-8.788 -4.853,0 -8.787,3.934 -8.787,8.788 0,4.853 3.934,8.786 8.787,8.786 C -3.935,8.786 0,4.853 0,0 Z" />
        </g>
        <g
           transform="translate(34.0713,142.2988)"
           id="g3885">
          <path
             id="path3887"
             style="fill:none;stroke:#e43232;stroke-width:0.25;stroke-linecap:butt;stroke-linejoin:miter;stroke-miterlimit:4;stroke-dasharray:none;stroke-opacity:1"
             d="m 0,0 c 0,-3.992 -3.237,-7.229 -7.229,-7.229 -3.993,0 -7.23,3.237 -7.23,7.229 0,3.992 3.237,7.229 7.23,7.229 C -3.237,7.229 0,3.992 0,0 Z" />
        </g>
        <g
           transform="translate(48.5439,218.9941)"
           id="g3889">
          <path
             id="path3891"
             style="fill:none;stroke:#e43232;stroke-width:0.25;stroke-linecap:butt;stroke-linejoin:round;stroke-miterlimit:4;stroke-dasharray:none;stroke-opacity:1"
             d="m 0,0 c 0,-7.045 -5.711,-12.756 -12.756,-12.756 -7.045,0 -12.757,5.711 -12.757,12.756 0,7.045 5.712,12.756 12.757,12.756 C -5.711,12.756 0,7.045 0,0 Z" />
        </g>
        <g
           transform="translate(120.1191,218.9941)"
           id="g3893">
          <path
             id="path3895"
             style="fill:none;stroke:#e43232;stroke-width:0.25;stroke-linecap:butt;stroke-linejoin:round;stroke-miterlimit:4;stroke-dasharray:none;stroke-opacity:1"
             d="m 0,0 c 0,-7.045 -5.711,-12.756 -12.756,-12.756 -7.046,0 -12.757,5.711 -12.757,12.756 0,7.045 5.711,12.756 12.757,12.756 C -5.711,12.756 0,7.045 0,0 Z" />
        </g>
        <g
           transform="translate(48.5439,290.4473)"
           id="g3897">
          <path
             id="path3899"
             style="fill:none;stroke:#e43232;stroke-width:0.25;stroke-linecap:butt;stroke-linejoin:round;stroke-miterlimit:4;stroke-dasharray:none;stroke-opacity:1"
             d="m 0,0 c 0,-7.045 -5.711,-12.757 -12.756,-12.757 -7.045,0 -12.757,5.712 -12.757,12.757 0,7.045 5.712,12.756 12.757,12.756 C -5.711,12.756 0,7.045 0,0 Z" />
        </g>
        <g
           transform="translate(120.1191,290.4473)"
           id="g3901">
          <path
             id="path3903"
             style="fill:none;stroke:#e43232;stroke-width:0.25;stroke-linecap:butt;stroke-linejoin:round;stroke-miterlimit:4;stroke-dasharray:none;stroke-opacity:1"
             d="m 0,0 c 0,-7.045 -5.711,-12.757 -12.756,-12.757 -7.046,0 -12.757,5.712 -12.757,12.757 0,7.045 5.711,12.756 12.757,12.756 C -5.711,12.756 0,7.045 0,0 Z" />
        </g>
        <path
           id="path3905"
           style="fill:none;stroke:#e43232;stroke-width:0.25;stroke-linecap:butt;stroke-linejoin:round;stroke-miterlimit:4;stroke-dasharray:none;stroke-opacity:1"
           d="m 76.536,152.494 h -9.923 v 14.172 h 9.923 z" />
        <g
           transform="translate(75.9688,308.5918)"
           id="g3907">
          <path
             id="path3909"
             style="fill:none;stroke:#e43232;stroke-width:0.25;stroke-linecap:butt;stroke-linejoin:miter;stroke-miterlimit:4;stroke-dasharray:none;stroke-opacity:1"
             d="m 0,0 c 0,-2.427 -1.967,-4.394 -4.394,-4.394 -2.426,0 -4.393,1.967 -4.393,4.394 0,2.427 1.967,4.394 4.393,4.394 C -1.967,4.394 0,2.427 0,0 Z" />
        </g>
        <g
           transform="translate(31.2354,175.6797)"
           id="g3911">
          <path
             id="path3913"
             style="fill:none;stroke:#e43232;stroke-width:0.25;stroke-linecap:butt;stroke-linejoin:miter;stroke-miterlimit:4;stroke-dasharray:none;stroke-opacity:1"
             d="m 0,0 c 0,-2.427 -1.967,-4.394 -4.394,-4.394 -2.427,0 -4.393,1.967 -4.393,4.394 0,2.427 1.966,4.394 4.393,4.394 C -1.967,4.394 0,2.427 0,0 Z" />
        </g>
        <path
           id="path3915"
           style="fill:none;stroke:#e43232;stroke-width:0.25;stroke-linecap:round;stroke-linejoin:round;stroke-miterlimit:4;stroke-dasharray:none;stroke-opacity:1"
           d="M 0,364.25 H 143.15 V -0.002 H 0 Z" />
        <g
           transform="translate(25.7949,8.501)"
           id="g3917">
          <path
             id="path3919"
             style="fill:none;stroke:#e43232;stroke-width:0.25;stroke-linecap:round;stroke-linejoin:round;stroke-miterlimit:4;stroke-dasharray:none;stroke-opacity:1"
             d="m 0,0 c 0,-2.505 -2.031,-4.535 -4.534,-4.535 -2.505,0 -4.536,2.03 -4.536,4.535 0,2.506 2.031,4.536 4.536,4.536 C -2.031,4.536 0,2.506 0,0 Z" />
        </g>
        <g
           transform="translate(25.7949,355.7461)"
           id="g3921">
          <path
             id="path3923"
             style="fill:none;stroke:#e43232;stroke-width:0.25;stroke-linecap:round;stroke-linejoin:round;stroke-miterlimit:4;stroke-dasharray:none;stroke-opacity:1"
             d="m 0,0 c 0,-2.505 -2.031,-4.536 -4.534,-4.536 -2.505,0 -4.536,2.031 -4.536,4.536 0,2.505 2.031,4.536 4.536,4.536 C -2.031,4.536 0,2.505 0,0 Z" />
        </g>
        <g
           transform="translate(126.5947,8.501)"
           id="g3925">
          <path
             id="path3927"
             style="fill:none;stroke:#e43232;stroke-width:0.25;stroke-linecap:round;stroke-linejoin:round;stroke-miterlimit:4;stroke-dasharray:none;stroke-opacity:1"
             d="m 0,0 c 0,-2.505 -2.03,-4.535 -4.534,-4.535 -2.505,0 -4.536,2.03 -4.536,4.535 0,2.506 2.031,4.536 4.536,4.536 C -2.03,4.536 0,2.506 0,0 Z" />
        </g>
        <g
           transform="translate(126.5947,355.7461)"
           id="g3929">
          <path
             id="path3931"
             style="fill:none;stroke:#e43232;stroke-width:0.25;stroke-linecap:round;stroke-linejoin:round;stroke-miterlimit:4;stroke-dasharray:none;stroke-opacity:1"
             d="m 0,0 c 0,-2.505 -2.03,-4.536 -4.534,-4.536 -2.505,0 -4.536,2.031 -4.536,4.536 0,2.505 2.031,4.536 4.536,4.536 C -2.03,4.536 0,2.505 0,0 Z" />
        </g>
      </g>
    </g>
  </g>
</svg>
