<?xml version="1.0" standalone="no"?>
 <!DOCTYPE svg PUBLIC "-//W3C//DTD SVG 1.1//EN" 
 "http://www.w3.org/Graphics/SVG/1.1/DTD/svg11.dtd"> 
<svg xmlns="http://www.w3.org/2000/svg" version="1.1" 
    width="8.57758cm" height="12.8676cm" viewBox="0 0 33770 50660 ">
<title>SVG Picture created as Eurorack BnG Panel Template-brd.svg date 2019/10/22 19:51:47 </title>
  <desc>Picture generated by PCBNEW </desc>
<g style="fill:#000000; fill-opacity:1;stroke:#000000; stroke-opacity:1;
stroke-linecap:round; stroke-linejoin:round; "
 transform="translate(0 0) scale(1 1)">
</g>
<g style="fill:#000000; fill-opacity:0.0; 
stroke:#000000; stroke-width:-0.000393701; stroke-opacity:1; 
stroke-linecap:round; stroke-linejoin:round;">
</g>
<g style="fill:#C25106; fill-opacity:0.0; 
stroke:#C25106; stroke-width:-0.000393701; stroke-opacity:1; 
stroke-linecap:round; stroke-linejoin:round;">
</g>
<g style="fill:#C25106; fill-opacity:0.0; 
stroke:#C25106; stroke-width:78.7402; stroke-opacity:1; 
stroke-linecap:round; stroke-linejoin:round;">
<path d="M15433 39586
L16692 39586
" />
<path d="M15433 45492
L15433 39586
" />
<path d="M16692 45492
L15433 45492
" />
<path d="M16692 39586
L16692 45492
" />
<circle cx="30787.4" cy="1220.47" r="629.921" /> 
<circle cx="30787.4" cy="49448.8" r="629.921" /> 
<circle cx="2795.28" cy="49448.8" r="629.921" /> 
<circle cx="2795.28" cy="1220.47" r="629.921" /> 
<circle cx="29389.8" cy="43385.8" r="1318.9" /> 
<circle cx="24881.9" cy="43385.8" r="1318.9" /> 
<circle cx="20393.7" cy="43385.8" r="1318.9" /> 
<circle cx="30610.2" cy="37066.9" r="1476.38" /> 
<circle cx="24901.6" cy="37066.9" r="1476.38" /> 
<circle cx="19429.1" cy="37066.9" r="1476.38" /> 
<circle cx="11220.5" cy="43385.8" r="1318.9" /> 
<circle cx="7007.87" cy="43385.8" r="1318.9" /> 
<circle cx="2716.54" cy="43366.1" r="1318.9" /> 
<circle cx="11299.2" cy="37815" r="1318.9" /> 
<circle cx="7066.93" cy="37815" r="1318.9" /> 
<circle cx="2657.48" cy="37815" r="1318.9" /> 
<circle cx="2342.52" cy="33523.6" r="1318.9" /> 
<circle cx="20433.1" cy="13563" r="1318.9" /> 
<circle cx="11063" cy="18759.8" r="1318.9" /> 
<circle cx="6751.97" cy="18759.8" r="1318.9" /> 
<circle cx="2401.58" cy="18759.8" r="1318.9" /> 
<circle cx="2401.58" cy="14586.6" r="1318.9" /> 
<circle cx="12578.7" cy="32165.4" r="1476.38" /> 
<circle cx="7618.11" cy="32165.4" r="1476.38" /> 
<circle cx="19035.4" cy="28385.8" r="1279.53" /> 
<circle cx="15925.2" cy="28385.8" r="1279.53" /> 
<circle cx="17460.6" cy="25413.4" r="1279.53" /> 
<circle cx="11476.4" cy="26240.2" r="1476.38" /> 
<circle cx="3996.06" cy="26122" r="1476.38" /> 
<path d="M30098 18582
L31318 18582
" />
<path d="M31318 33149
L30098 33149
" />
<path d="M31318 18582
L31318 33149
" />
<path d="M25866 18582
L27086 18582
" />
<path d="M27086 33149
L25866 33149
" />
<path d="M27086 18582
L27086 33149
" />
<path d="M30098 33149
L30098 18582
" />
<path d="M25866 33149
L25866 18582
" />
<path d="M21712 18582
L22933 18582
" />
<path d="M21712 33149
L21712 18582
" />
<path d="M22933 33149
L21712 33149
" />
<path d="M22933 18582
L22933 33149
" />
<circle cx="29822.9" cy="14035.4" r="1870.18" /> 
<circle cx="24626" cy="14015.7" r="1476.38" /> 
<circle cx="17007.9" cy="14133.9" r="1279.53" /> 
<circle cx="15708.7" cy="18878" r="1476.38" /> 
<circle cx="8149.61" cy="13917.3" r="1279.53" /> 
<circle cx="18444.9" cy="8149.61" r="1279.53" /> 
<path d="M20314 5944
L20314 9960
" />
<path d="M31043 9960
L31043 5944
" />
<path d="M20314 9960
L31043 9960
" />
<path d="M31043 5944
L20314 5944
" />
<circle cx="13149.6" cy="13287.4" r="1476.38" /> 
<circle cx="12244.1" cy="7401.58" r="1476.38" /> 
<circle cx="4881.89" cy="7401.58" r="1476.38" /> 
<path d="M39 50629
L39 39
" />
<path d="M33740 50629
L39 50629
" />
<path d="M33740 39
L33740 50629
" />
<path d="M39 39
L33740 39
" />
</g> 
</svg>
