<?xml version="1.0" standalone="no"?>
 <!DOCTYPE svg PUBLIC "-//W3C//DTD SVG 1.1//EN" 
 "http://www.w3.org/Graphics/SVG/1.1/DTD/svg11.dtd"> 
<svg xmlns="http://www.w3.org/2000/svg" version="1.1" 
    width="14.2088cm" height="3.98272cm" viewBox="0 0 55940 15680 ">
<title>SVG Picture created as Steppy_1U_Panel-Eco2.User.svg date 2020/05/22 19:12:13 </title>
  <desc>Picture generated by PCBNEW </desc>
<g style="fill:#000000; fill-opacity:1;stroke:#000000; stroke-opacity:1;
stroke-linecap:round; stroke-linejoin:round; "
 transform="translate(0 0) scale(1 1)">
</g>
<g style="fill:#000000; fill-opacity:0.0; 
stroke:#000000; stroke-width:-0.000393701; stroke-opacity:1; 
stroke-linecap:round; stroke-linejoin:round;">
</g>
<g style="fill:#D35517; fill-opacity:0.0; 
stroke:#D35517; stroke-width:-0.000393701; stroke-opacity:1; 
stroke-linecap:round; stroke-linejoin:round;">
</g>
<g style="fill:#D35517; fill-opacity:0.0; 
stroke:#D35517; stroke-width:78.7402; stroke-opacity:1; 
stroke-linecap:round; stroke-linejoin:round;">
<circle cx="52972.4" cy="1220.47" r="631.15" /> 
<circle cx="52992.1" cy="14468.5" r="631.15" /> 
<circle cx="2972.44" cy="14468.5" r="631.15" /> 
<circle cx="2992.13" cy="1220.47" r="631.15" /> 
</g>
<g style="fill:#D35517; fill-opacity:0.0; 
stroke:#D35517; stroke-width:19.685; stroke-opacity:1; 
stroke-linecap:round; stroke-linejoin:round;">
<circle cx="52716.5" cy="10275.6" r="1240.16" /> 
<circle cx="52736.2" cy="5531.5" r="1240.16" /> 
<circle cx="46456.7" cy="10275.6" r="1240.16" /> 
<circle cx="46456.7" cy="5551.18" r="1240.16" /> 
</g>
<g style="fill:#D35517; fill-opacity:0.0; 
stroke:#D35517; stroke-width:78.7402; stroke-opacity:1; 
stroke-linecap:round; stroke-linejoin:round;">
<circle cx="49606.3" cy="10295.3" r="610.236" /> 
<circle cx="49626" cy="5590.55" r="610.236" /> 
<circle cx="43326.8" cy="10275.6" r="610.236" /> 
<circle cx="43326.8" cy="5551.18" r="610.236" /> 
<circle cx="10098.4" cy="7795.28" r="610.236" /> 
<circle cx="8110.24" cy="7775.59" r="610.236" /> 
<circle cx="40531.5" cy="10216.5" r="1003.94" /> 
<circle cx="36614.2" cy="10196.9" r="1003.94" /> 
<circle cx="32677.2" cy="10196.9" r="1003.94" /> 
<circle cx="28799.2" cy="10196.9" r="1003.94" /> 
<circle cx="24822.8" cy="10177.2" r="1003.94" /> 
<circle cx="40531.5" cy="5492.13" r="1003.94" /> 
<circle cx="36614.2" cy="5472.44" r="1003.94" /> 
<circle cx="32677.2" cy="5472.44" r="1003.94" /> 
<circle cx="28759.8" cy="5472.44" r="1003.94" /> 
<circle cx="24822.8" cy="5452.76" r="1003.94" /> 
<circle cx="20846.5" cy="10177.2" r="1003.94" /> 
<circle cx="16948.8" cy="10177.2" r="1003.94" /> 
<circle cx="16929.1" cy="5452.76" r="1003.94" /> 
<circle cx="20846.5" cy="5452.76" r="1003.94" /> 
<circle cx="12972.4" cy="10177.2" r="1003.94" /> 
<circle cx="12992.1" cy="5452.76" r="1003.94" /> 
<circle cx="9055.12" cy="10177.2" r="1003.94" /> 
<circle cx="9094.49" cy="5452.76" r="1003.94" /> 
<circle cx="6338.58" cy="10137.8" r="610.236" /> 
<circle cx="6318.9" cy="5413.39" r="610.236" /> 
<circle cx="3188.98" cy="10098.4" r="1240.16" /> 
<circle cx="3188.98" cy="5374.02" r="1240.16" /> 
<path d="M39 39
L55905 39
" />
<path d="M55905 39
L55905 15649
" />
<path d="M39 15649
L55905 15649
" />
<path d="M39 39
L39 15649
" />
</g> 
</svg>
