<?xml version="1.0" standalone="no"?>
 <!DOCTYPE svg PUBLIC "-//W3C//DTD SVG 1.1//EN" 
 "http://www.w3.org/Graphics/SVG/1.1/DTD/svg11.dtd"> 
<svg xmlns="http://www.w3.org/2000/svg" version="1.1" 
    width="14.2189cm" height="3.98272cm" viewBox="0 0 55980 15680 ">
<title>SVG Picture created as Quadratt_1U_BnG_Panel-brd.svg date 2019/10/17 21:41:12 </title>
  <desc>Picture generated by PCBNEW </desc>
<g style="fill:#000000; fill-opacity:1;stroke:#000000; stroke-opacity:1;
stroke-linecap:round; stroke-linejoin:round; "
 transform="translate(0 0) scale(1 1)">
</g>
<g style="fill:#000000; fill-opacity:0.0; 
stroke:#000000; stroke-width:-0.000393701; stroke-opacity:1; 
stroke-linecap:round; stroke-linejoin:round;">
</g>
<g style="fill:#C25106; fill-opacity:0.0; 
stroke:#C25106; stroke-width:-0.000393701; stroke-opacity:1; 
stroke-linecap:round; stroke-linejoin:round;">
</g>
<g style="fill:#C25106; fill-opacity:0.0; 
stroke:#C25106; stroke-width:78.7402; stroke-opacity:1; 
stroke-linecap:round; stroke-linejoin:round;">
<path d="M30590.6 5275.59 A984.252 984.252 0.0 0 0 30590.6 3700.79 " />
<path d="M29409.4 3700.79 A984.252 984.252 0.0 0 0 29409.4 5275.59 " />
<path d="M29409 5275
L30590 5275
" />
<path d="M30590 3700
L29409 3700
" />
<path d="M21929.1 5275.59 A984.252 984.252 0.0 0 0 21929.1 3700.79 " />
<path d="M20748 3700.79 A984.252 984.252 0.0 0 0 20748 5275.59 " />
<path d="M20748 5275
L21929 5275
" />
<path d="M21929 3700
L20748 3700
" />
<path d="M13267.7 5275.59 A984.252 984.252 0.0 0 0 13267.7 3700.79 " />
<path d="M12086.6 3700.79 A984.252 984.252 0.0 0 0 12086.6 5275.59 " />
<path d="M13267 3700
L12086 3700
" />
<path d="M12086 5275
L13267 5275
" />
<path d="M3405 5275
L4586 5275
" />
<path d="M4586.61 5275.59 A984.252 984.252 0.0 0 0 4586.61 3700.79 " />
<path d="M3405.51 3700.79 A984.252 984.252 0.0 0 0 3405.51 5275.59 " />
<path d="M4586 3700
L3405 3700
" />
<circle cx="53366.1" cy="10177.2" r="1240.16" /> 
<circle cx="47854.3" cy="10177.2" r="1240.16" /> 
<circle cx="42362.2" cy="10177.2" r="1240.16" /> 
<circle cx="53366.1" cy="5452.76" r="1240.16" /> 
<circle cx="47854.3" cy="5452.76" r="1240.16" /> 
<circle cx="42362.2" cy="5452.76" r="1240.16" /> 
<circle cx="36870.1" cy="10177.2" r="1240.16" /> 
<circle cx="29980.3" cy="8818.9" r="1751.97" /> 
<circle cx="21318.9" cy="8818.9" r="1751.97" /> 
<circle cx="12657.5" cy="8818.9" r="1751.97" /> 
<circle cx="4015.75" cy="8818.9" r="1751.97" /> 
<circle cx="53011.8" cy="1220.47" r="634.824" /> 
<circle cx="53011.8" cy="14468.5" r="634.824" /> 
<path d="M55944 39
L55944 15649
" />
<circle cx="2992.13" cy="14468.5" r="634.824" /> 
<circle cx="2992.13" cy="1220.47" r="634.824" /> 
<circle cx="36870.1" cy="5452.76" r="1240.16" /> 
<path d="M39 39
L55944 39
" />
<path d="M39 15649
L55944 15649
" />
<path d="M39 39
L39 15649
" />
</g> 
</svg>
