<?xml version="1.0" standalone="no"?>
 <!DOCTYPE svg PUBLIC "-//W3C//DTD SVG 1.1//EN" 
 "http://www.w3.org/Graphics/SVG/1.1/DTD/svg11.dtd"> 
<svg xmlns="http://www.w3.org/2000/svg" version="1.1" 
    width="5.06984cm" height="12.8676cm" viewBox="0 0 19960 50660 ">
<title>SVG Picture created as Mannequins_ThreeSisters_Template-brd.svg date 2019/04/01 19:56:45 </title>
  <desc>Picture generated by PCBNEW </desc>
<g style="fill:#000000; fill-opacity:1;stroke:#000000; stroke-opacity:1;
stroke-linecap:round; stroke-linejoin:round; "
 transform="translate(0 0) scale(1 1)">
</g>
<g style="fill:#000000; fill-opacity:0.0; 
stroke:#000000; stroke-width:-0.000393701; stroke-opacity:1; 
stroke-linecap:round; stroke-linejoin:round;">
</g>
<g style="fill:#C25106; fill-opacity:0.0; 
stroke:#C25106; stroke-width:-0.000393701; stroke-opacity:1; 
stroke-linecap:round; stroke-linejoin:round;">
</g>
<g style="fill:#C25106; fill-opacity:0.0; 
stroke:#C25106; stroke-width:78.7402; stroke-opacity:1; 
stroke-linecap:round; stroke-linejoin:round;">
<circle cx="2992.13" cy="49448.8" r="631.15" /> 
<circle cx="16968.5" cy="49448.8" r="631.15" /> 
<circle cx="16968.5" cy="1220.47" r="631.15" /> 
<circle cx="2992.13" cy="1220.47" r="631.15" /> 
<path d="M39 50629
L39 39
" />
<path d="M19921 50629
L39 50629
" />
<path d="M19921 39
L19921 50629
" />
<path d="M39 39
L19921 39
" />
<circle cx="16614.2" cy="39114.2" r="1240.16" /> 
<circle cx="12126" cy="39114.2" r="1240.16" /> 
<circle cx="16614.2" cy="44429.1" r="1240.16" /> 
<circle cx="12126" cy="44429.1" r="1240.16" /> 
<circle cx="3149.61" cy="44429.1" r="1240.16" /> 
<circle cx="3149.61" cy="39114.2" r="1240.16" /> 
<circle cx="7618.11" cy="44429.1" r="1240.16" /> 
<circle cx="7618.11" cy="39114.2" r="1240.16" /> 
<circle cx="3110.24" cy="31181.1" r="1240.16" /> 
<circle cx="7618.11" cy="33858.3" r="1240.16" /> 
<circle cx="12086.6" cy="31181.1" r="1240.16" /> 
<circle cx="16614.2" cy="33858.3" r="1240.16" /> 
<circle cx="16614.2" cy="28543.3" r="885.827" /> 
<circle cx="5393.7" cy="24645.7" r="1397.64" /> 
<circle cx="14370.1" cy="19311" r="1397.64" /> 
<circle cx="7637.8" cy="10472.4" r="1397.64" /> 
<circle cx="15984.3" cy="5866.14" r="1397.64" /> 
</g> 
</svg>
