<?xml version="1.0" standalone="no"?>
 <!DOCTYPE svg PUBLIC "-//W3C//DTD SVG 1.1//EN" 
 "http://www.w3.org/Graphics/SVG/1.1/DTD/svg11.dtd"> 
<svg xmlns="http://www.w3.org/2000/svg" version="1.1" 
    width="7.5692cm" height="12.8676cm" viewBox="0 0 29800 50660 ">
<title>SVG Picture created as OTool_Plus_BnG_Panel-Eco2.User.svg date 2020/05/22 18:58:41 </title>
  <desc>Picture generated by PCBNEW </desc>
<g style="fill:#000000; fill-opacity:1;stroke:#000000; stroke-opacity:1;
stroke-linecap:round; stroke-linejoin:round; "
 transform="translate(0 0) scale(1 1)">
</g>
<g style="fill:#000000; fill-opacity:0.0; 
stroke:#000000; stroke-width:-0.000393701; stroke-opacity:1; 
stroke-linecap:round; stroke-linejoin:round;">
</g>
<g style="fill:#D35517; fill-opacity:0.0; 
stroke:#D35517; stroke-width:-0.000393701; stroke-opacity:1; 
stroke-linecap:round; stroke-linejoin:round;">
</g>
<g style="fill:#D35517; fill-opacity:0.0; 
stroke:#D35517; stroke-width:118.11; stroke-opacity:1; 
stroke-linecap:round; stroke-linejoin:round;">
<circle cx="18945.4" cy="43838.6" r="1259.84" /> 
<circle cx="10894.3" cy="43838.6" r="1259.84" /> 
<circle cx="18945.4" cy="38582.7" r="1259.84" /> 
<circle cx="10894.3" cy="38582.7" r="1259.84" /> 
<circle cx="18945.4" cy="33346.5" r="1259.84" /> 
<circle cx="10894.3" cy="33346.5" r="1259.84" /> 
<circle cx="19949.4" cy="27106.3" r="787.402" /> 
<circle cx="16602.9" cy="27106.3" r="787.402" /> 
<circle cx="13197.4" cy="27106.3" r="787.402" /> 
<circle cx="9831.27" cy="27106.3" r="787.402" /> 
<path d="M25044 28990
L25016 29018
L24932 29046
L24876 29046
L24791 29018
L24735 28962
L24707 28906
L24679 28793
L24679 28709
L24707 28596
L24735 28540
L24791 28484
L24876 28456
L24932 28456
L25016 28484
L25044 28512
" />
<path d="M25382 29046
L25326 29018
L25298 28990
L25269 28934
L25269 28765
L25298 28709
L25326 28681
L25382 28652
L25466 28652
L25523 28681
L25551 28709
L25579 28765
L25579 28934
L25551 28990
L25523 29018
L25466 29046
L25382 29046
" />
<path d="M26085 28652
L26085 29046
" />
<path d="M25832 28652
L25832 28962
L25860 29018
L25916 29046
L26001 29046
L26057 29018
L26085 28990
" />
<path d="M26366 28652
L26366 29046
" />
<path d="M26366 28709
L26394 28681
L26451 28652
L26535 28652
L26591 28681
L26619 28737
L26619 29046
" />
<path d="M26816 28652
L27041 28652
" />
<path d="M26901 28456
L26901 28962
L26929 29018
L26985 29046
L27041 29046
" />
<path d="M27463 29018
L27407 29046
L27294 29046
L27238 29018
L27210 28962
L27210 28737
L27238 28681
L27294 28652
L27407 28652
L27463 28681
L27491 28737
L27491 28793
L27210 28849
" />
<path d="M27744 29046
L27744 28652
" />
<path d="M27744 28765
L27772 28709
L27800 28681
L27857 28652
L27913 28652
" />
<path d="M28082 29018
L28138 29046
L28250 29046
L28307 29018
L28335 28962
L28335 28934
L28307 28877
L28250 28849
L28166 28849
L28110 28821
L28082 28765
L28082 28737
L28110 28681
L28166 28652
L28250 28652
L28307 28681
" />
<path d="M28588 29046
L28588 28652
" />
<path d="M28588 28456
L28560 28484
L28588 28512
L28616 28484
L28588 28456
L28588 28512
" />
<path d="M28869 28652
L28869 29046
" />
<path d="M28869 28709
L28897 28681
L28953 28652
L29038 28652
L29094 28681
L29122 28737
L29122 29046
" />
<path d="M29403 29046
L29403 28456
" />
<path d="M29460 28821
L29628 29046
" />
<path d="M29628 28652
L29403 28877
" />
<path d="M21130 28740
L24398 28740
" />
<path d="M537 28872
L508 28900
L424 28928
L368 28928
L284 28900
L227 28844
L199 28787
L171 28675
L171 28591
L199 28478
L227 28422
L284 28366
L368 28338
L424 28338
L508 28366
L537 28394
" />
<path d="M874 28928
L818 28900
L790 28872
L762 28816
L762 28647
L790 28591
L818 28562
L874 28534
L958 28534
L1015 28562
L1043 28591
L1071 28647
L1071 28816
L1043 28872
L1015 28900
L958 28928
L874 28928
" />
<path d="M1577 28534
L1577 28928
" />
<path d="M1324 28534
L1324 28844
L1352 28900
L1408 28928
L1493 28928
L1549 28900
L1577 28872
" />
<path d="M1858 28534
L1858 28928
" />
<path d="M1858 28591
L1886 28562
L1943 28534
L2027 28534
L2083 28562
L2111 28619
L2111 28928
" />
<path d="M2308 28534
L2533 28534
" />
<path d="M2393 28338
L2393 28844
L2421 28900
L2477 28928
L2533 28928
" />
<path d="M2955 28900
L2899 28928
L2786 28928
L2730 28900
L2702 28844
L2702 28619
L2730 28562
L2786 28534
L2899 28534
L2955 28562
L2983 28619
L2983 28675
L2702 28731
" />
<path d="M3236 28928
L3236 28534
" />
<path d="M3236 28647
L3264 28591
L3293 28562
L3349 28534
L3405 28534
" />
<path d="M3574 28900
L3630 28928
L3742 28928
L3799 28900
L3827 28844
L3827 28816
L3799 28759
L3742 28731
L3658 28731
L3602 28703
L3574 28647
L3574 28619
L3602 28562
L3658 28534
L3742 28534
L3799 28562
" />
<path d="M4080 28928
L4080 28534
" />
<path d="M4080 28338
L4052 28366
L4080 28394
L4108 28366
L4080 28338
L4080 28394
" />
<path d="M4361 28534
L4361 28928
" />
<path d="M4361 28591
L4389 28562
L4446 28534
L4530 28534
L4586 28562
L4614 28619
L4614 28928
" />
<path d="M4895 28928
L4895 28338
" />
<path d="M4952 28703
L5120 28928
" />
<path d="M5120 28534
L4895 28759
" />
<path d="M5382 28740
L8650 28740
" />
<circle cx="21150.2" cy="29606.3" r="866.142" /> 
<circle cx="8669.85" cy="29606.3" r="866.142" /> 
<circle cx="21150.2" cy="29606.3" r="472.441" /> 
<circle cx="8669.85" cy="29606.3" r="472.441" /> 
<path d="M20894 22086
L20894 7283
" />
<path d="M20894 22086
L8886 22086
" />
<path d="M8886 7283
L8886 22086
" />
<path d="M8886 7283
L20894 7283
" />
<path d="M537 4659
L508 4687
L424 4715
L368 4715
L284 4687
L227 4631
L199 4575
L171 4462
L171 4378
L199 4266
L227 4209
L284 4153
L368 4125
L424 4125
L508 4153
L537 4181
" />
<path d="M874 4715
L818 4687
L790 4659
L762 4603
L762 4434
L790 4378
L818 4350
L874 4322
L958 4322
L1015 4350
L1043 4378
L1071 4434
L1071 4603
L1043 4659
L1015 4687
L958 4715
L874 4715
" />
<path d="M1577 4322
L1577 4715
" />
<path d="M1324 4322
L1324 4631
L1352 4687
L1408 4715
L1493 4715
L1549 4687
L1577 4659
" />
<path d="M1858 4322
L1858 4715
" />
<path d="M1858 4378
L1886 4350
L1943 4322
L2027 4322
L2083 4350
L2111 4406
L2111 4715
" />
<path d="M2308 4322
L2533 4322
" />
<path d="M2393 4125
L2393 4631
L2421 4687
L2477 4715
L2533 4715
" />
<path d="M2955 4687
L2899 4715
L2786 4715
L2730 4687
L2702 4631
L2702 4406
L2730 4350
L2786 4322
L2899 4322
L2955 4350
L2983 4406
L2983 4462
L2702 4519
" />
<path d="M3236 4715
L3236 4322
" />
<path d="M3236 4434
L3264 4378
L3293 4350
L3349 4322
L3405 4322
" />
<path d="M3574 4687
L3630 4715
L3742 4715
L3799 4687
L3827 4631
L3827 4603
L3799 4547
L3742 4519
L3658 4519
L3602 4491
L3574 4434
L3574 4406
L3602 4350
L3658 4322
L3742 4322
L3799 4350
" />
<path d="M4080 4715
L4080 4322
" />
<path d="M4080 4125
L4052 4153
L4080 4181
L4108 4153
L4080 4125
L4080 4181
" />
<path d="M4361 4322
L4361 4715
" />
<path d="M4361 4378
L4389 4350
L4446 4322
L4530 4322
L4586 4350
L4614 4406
L4614 4715
" />
<path d="M4895 4715
L4895 4125
" />
<path d="M4952 4491
L5120 4715
" />
<path d="M5120 4322
L4895 4547
" />
<path d="M5402 4527
L8669 4527
" />
<path d="M21130 4527
L24398 4527
" />
<path d="M25044 4777
L25016 4805
L24932 4834
L24876 4834
L24791 4805
L24735 4749
L24707 4693
L24679 4580
L24679 4496
L24707 4384
L24735 4327
L24791 4271
L24876 4243
L24932 4243
L25016 4271
L25044 4299
" />
<path d="M25382 4834
L25326 4805
L25298 4777
L25269 4721
L25269 4552
L25298 4496
L25326 4468
L25382 4440
L25466 4440
L25523 4468
L25551 4496
L25579 4552
L25579 4721
L25551 4777
L25523 4805
L25466 4834
L25382 4834
" />
<path d="M26085 4440
L26085 4834
" />
<path d="M25832 4440
L25832 4749
L25860 4805
L25916 4834
L26001 4834
L26057 4805
L26085 4777
" />
<path d="M26366 4440
L26366 4834
" />
<path d="M26366 4496
L26394 4468
L26451 4440
L26535 4440
L26591 4468
L26619 4524
L26619 4834
" />
<path d="M26816 4440
L27041 4440
" />
<path d="M26901 4243
L26901 4749
L26929 4805
L26985 4834
L27041 4834
" />
<path d="M27463 4805
L27407 4834
L27294 4834
L27238 4805
L27210 4749
L27210 4524
L27238 4468
L27294 4440
L27407 4440
L27463 4468
L27491 4524
L27491 4580
L27210 4637
" />
<path d="M27744 4834
L27744 4440
" />
<path d="M27744 4552
L27772 4496
L27800 4468
L27857 4440
L27913 4440
" />
<path d="M28082 4805
L28138 4834
L28250 4834
L28307 4805
L28335 4749
L28335 4721
L28307 4665
L28250 4637
L28166 4637
L28110 4609
L28082 4552
L28082 4524
L28110 4468
L28166 4440
L28250 4440
L28307 4468
" />
<path d="M28588 4834
L28588 4440
" />
<path d="M28588 4243
L28560 4271
L28588 4299
L28616 4271
L28588 4243
L28588 4299
" />
<path d="M28869 4440
L28869 4834
" />
<path d="M28869 4496
L28897 4468
L28953 4440
L29038 4440
L29094 4468
L29122 4524
L29122 4834
" />
<path d="M29403 4834
L29403 4243
" />
<path d="M29460 4609
L29628 4834
" />
<path d="M29628 4440
L29403 4665
" />
<circle cx="21150.2" cy="5393.7" r="866.142" /> 
<circle cx="8669.85" cy="5393.7" r="866.142" /> 
<circle cx="21150.2" cy="5393.7" r="472.441" /> 
<circle cx="8669.85" cy="5393.7" r="472.441" /> 
</g>
<g style="fill:#D35517; fill-opacity:0.0; 
stroke:#D35517; stroke-width:78.7402; stroke-opacity:1; 
stroke-linecap:round; stroke-linejoin:round;">
<circle cx="9910.01" cy="49448.8" r="631.15" /> 
<circle cx="9910.01" cy="1220.47" r="631.15" /> 
<path d="M6957 50629
L6957 39
" />
<path d="M22823 50629
L6957 50629
" />
<path d="M22823 39
L22823 50629
" />
<path d="M6957 39
L22823 39
" />
</g> 
</svg>
