<?xml version="1.0" standalone="no"?>
 <!DOCTYPE svg PUBLIC "-//W3C//DTD SVG 1.1//EN" 
 "http://www.w3.org/Graphics/SVG/1.1/DTD/svg11.dtd"> 
<svg xmlns="http://www.w3.org/2000/svg" version="1.1" 
    width="10.1397cm" height="12.8575cm" viewBox="0 0 39920 50620 ">
<title>SVG Picture created as Maths_BnG_Panel-brd.svg date 2019/07/21 15:17:11 </title>
  <desc>Picture generated by PCBNEW </desc>
<g style="fill:#000000; fill-opacity:1;stroke:#000000; stroke-opacity:1;
stroke-linecap:round; stroke-linejoin:round; "
 transform="translate(0 0) scale(1 1)">
</g>
<g style="fill:#000000; fill-opacity:0.0; 
stroke:#000000; stroke-width:-0.000393701; stroke-opacity:1; 
stroke-linecap:round; stroke-linejoin:round;">
</g>
<g style="fill:#36498A; fill-opacity:0.0; 
stroke:#36498A; stroke-width:-0.000393701; stroke-opacity:1; 
stroke-linecap:round; stroke-linejoin:round;">
</g>
<g style="fill:#36498A; fill-opacity:0.0; 
stroke:#36498A; stroke-width:39.3701; stroke-opacity:1; 
stroke-linecap:round; stroke-linejoin:round;">
<path d="M19 50610
L19 19
" />
<path d="M39901 50610
L19 50610
" />
<path d="M39901 19
L39901 50610
" />
<path d="M19 19
L39901 19
" />
<circle cx="36870.1" cy="1200.79" r="634.824" /> 
<circle cx="36870.1" cy="49429.1" r="634.824" /> 
<circle cx="2972.44" cy="49429.1" r="634.824" /> 
<circle cx="2972.44" cy="1200.79" r="634.824" /> 
<circle cx="3976.38" cy="12736.2" r="1968.5" /> 
<circle cx="35984.3" cy="12736.2" r="1968.5" /> 
<circle cx="28149.6" cy="13326.8" r="1574.8" /> 
<circle cx="28169.3" cy="21948.8" r="1574.8" /> 
<circle cx="28189" cy="31555.1" r="1574.8" /> 
<circle cx="11870.1" cy="31515.7" r="1574.8" /> 
<circle cx="11889.8" cy="21948.8" r="1574.8" /> 
<circle cx="11870.1" cy="13287.4" r="1574.8" /> 
<circle cx="19901.6" cy="9153.54" r="1574.8" /> 
<circle cx="19901.6" cy="17066.9" r="1574.8" /> 
<circle cx="19901.6" cy="24665.4" r="1574.8" /> 
<circle cx="19901.6" cy="32342.5" r="1574.8" /> 
<circle cx="36988.2" cy="19980.3" r="1280.12" /> 
<circle cx="36003.9" cy="24468.5" r="1280.12" /> 
<circle cx="36988.2" cy="29192.9" r="1280.12" /> 
<circle cx="36043.3" cy="33878" r="1280.12" /> 
<circle cx="37047.2" cy="44665.4" r="1280.12" /> 
<circle cx="32322.8" cy="44665.4" r="1280.12" /> 
<circle cx="24448.8" cy="44685" r="1280.12" /> 
<circle cx="20000" cy="44685" r="1280.12" /> 
<circle cx="15413.4" cy="44685" r="1280.12" /> 
<circle cx="7755.91" cy="44685" r="1280.12" /> 
<circle cx="3031.5" cy="44685" r="1280.12" /> 
<circle cx="26968.5" cy="39980.3" r="1280.12" /> 
<circle cx="22283.5" cy="39980.3" r="1280.12" /> 
<circle cx="17755.9" cy="39980.3" r="1280.12" /> 
<circle cx="13031.5" cy="39960.6" r="1280.12" /> 
<circle cx="4015.75" cy="33897.6" r="1280.12" /> 
<circle cx="3051.18" cy="29192.9" r="1280.12" /> 
<circle cx="3996.06" cy="24468.5" r="1280.12" /> 
<circle cx="3011.81" cy="19940.9" r="1280.12" /> 
<circle cx="36968.5" cy="6181.1" r="1280.12" /> 
<circle cx="32440.9" cy="6181.1" r="1280.12" /> 
<circle cx="7519.69" cy="6200.79" r="1280.12" /> 
<circle cx="25767.7" cy="6181.1" r="1280.12" /> 
<circle cx="13956.7" cy="6181.1" r="1280.12" /> 
<circle cx="2991.53" cy="6200.79" r="1280.12" /> 
</g> 
</svg>
