<?xml version="1.0" standalone="no"?>
 <!DOCTYPE svg PUBLIC "-//W3C//DTD SVG 1.1//EN" 
 "http://www.w3.org/Graphics/SVG/1.1/DTD/svg11.dtd"> 
<svg xmlns="http://www.w3.org/2000/svg" version="1.1" 
    width="6.08838cm" height="12.8778cm" viewBox="0 0 23970 50700 ">
<title>SVG Picture created as Malekko_VG4+_Template-brd.svg date 2019/04/01 09:59:34 </title>
  <desc>Picture generated by PCBNEW </desc>
<g style="fill:#000000; fill-opacity:1;stroke:#000000; stroke-opacity:1;
stroke-linecap:round; stroke-linejoin:round; "
 transform="translate(0 0) scale(1 1)">
</g>
<g style="fill:#000000; fill-opacity:0.0; 
stroke:#000000; stroke-width:-0.000393701; stroke-opacity:1; 
stroke-linecap:round; stroke-linejoin:round;">
</g>
<g style="fill:#C25106; fill-opacity:0.0; 
stroke:#C25106; stroke-width:-0.000393701; stroke-opacity:1; 
stroke-linecap:round; stroke-linejoin:round;">
</g>
<g style="fill:#C25106; fill-opacity:0.0; 
stroke:#C25106; stroke-width:118.11; stroke-opacity:1; 
stroke-linecap:round; stroke-linejoin:round;">
<circle cx="2381.89" cy="44114.2" r="1574.68" /> 
<circle cx="7460.63" cy="44114.2" r="1574.68" /> 
<circle cx="12539.4" cy="44114.2" r="1574.68" /> 
<circle cx="17618.1" cy="44114.2" r="1574.68" /> 
<circle cx="21515.7" cy="44153.5" r="1574.68" /> 
<circle cx="21476.4" cy="38759.8" r="1574.68" /> 
<circle cx="21476.4" cy="33444.9" r="1574.68" /> 
<circle cx="21476.4" cy="28090.6" r="1574.68" /> 
<circle cx="21496.1" cy="22696.9" r="1574.68" /> 
<circle cx="21476.5" cy="17381.9" r="1574.68" /> 
<circle cx="21476.5" cy="12027.6" r="1574.68" /> 
<circle cx="21476.5" cy="6673.23" r="1574.68" /> 
<circle cx="2440.95" cy="22519.7" r="1279.53" /> 
<circle cx="2440.95" cy="17224.4" r="1279.53" /> 
<circle cx="2440.95" cy="11909.4" r="1279.53" /> 
<circle cx="17578.7" cy="6673.23" r="1279.53" /> 
<circle cx="12578.7" cy="6673.23" r="1279.53" /> 
<circle cx="7460.63" cy="6673.23" r="1279.53" /> 
<circle cx="2440.95" cy="6673.23" r="1279.53" /> 
<path d="M1437 40807
L1437 32933
" />
<path d="M3405 40807
L1437 40807
" />
<path d="M3405 32933
L3405 40807
" />
<path d="M1437 32933
L3405 32933
" />
<path d="M1633 30610
L1633 27066
" />
<path d="M3208 30610
L1633 30610
" />
<path d="M3208 27066
L3208 30610
" />
<path d="M1633 27066
L3208 27066
" />
<circle cx="1318.9" cy="24822.8" r="590.551" /> 
<circle cx="1318.9" cy="14232.3" r="590.551" /> 
<circle cx="16515.7" cy="8996.06" r="590.551" /> 
<circle cx="11437" cy="8996.06" r="590.551" /> 
<circle cx="6397.64" cy="8996.06" r="590.551" /> 
<circle cx="1318.9" cy="8996.06" r="590.551" /> 
<circle cx="15098.4" cy="44114.2" r="492.126" /> 
<path d="M6988 40137
L6988 39153
" />
<path d="M18011 40137
L6988 40137
" />
<path d="M18011 39153
L18011 40137
" />
<path d="M6988 39153
L18011 39153
" />
<path d="M6988 36200
L6988 35216
" />
<path d="M18011 36200
L6988 36200
" />
<path d="M18011 35216
L18011 36200
" />
<path d="M6988 35216
L18011 35216
" />
<path d="M6988 32145
L6988 31161
" />
<path d="M18011 32145
L6988 32145
" />
<path d="M18011 31161
L18011 32145
" />
<path d="M6988 31161
L18011 31161
" />
<path d="M6988 28129
L6988 27145
" />
<path d="M18011 28129
L6988 28129
" />
<path d="M18011 27145
L18011 28129
" />
<path d="M6988 27145
L18011 27145
" />
<path d="M6988 24153
L6988 23169
" />
<path d="M18011 24153
L6988 24153
" />
<path d="M18011 23169
L18011 24153
" />
<path d="M6988 23169
L18011 23169
" />
<path d="M6988 20137
L6988 19153
" />
<path d="M18011 20137
L6988 20137
" />
<path d="M18011 19153
L18011 20137
" />
<path d="M6988 19153
L18011 19153
" />
<path d="M6988 16161
L6988 15177
" />
<path d="M18011 16161
L6988 16161
" />
<path d="M18011 15177
L18011 16161
" />
<path d="M6988 15177
L18011 15177
" />
<path d="M6988 12185
L6988 11200
" />
<path d="M18011 12185
L6988 12185
" />
<path d="M18011 11200
L18011 12185
" />
<path d="M6988 11200
L18011 11200
" />
<circle cx="20925.2" cy="1240.16" r="629.921" /> 
<circle cx="20925.2" cy="49468.5" r="629.921" /> 
<circle cx="2972.44" cy="49468.5" r="629.921" /> 
<circle cx="3011.81" cy="1240.16" r="629.921" /> 
<path d="M59 50649
L59 59
" />
<path d="M23917 50649
L59 50649
" />
<path d="M23917 59
L23917 50649
" />
<path d="M59 59
L23917 59
" />
</g> 
</svg>
