<?xml version="1.0" standalone="no"?>
 <!DOCTYPE svg PUBLIC "-//W3C//DTD SVG 1.1//EN" 
 "http://www.w3.org/Graphics/SVG/1.1/DTD/svg11.dtd"> 
<svg xmlns="http://www.w3.org/2000/svg" version="1.1" 
    width="13.9675cm" height="14.6406cm" viewBox="0 0 54990 57640 ">
<title>SVG Picture created as ColdMac_BnG_Panel-Eco2.User.svg date 2020/05/22 19:24:47 </title>
  <desc>Picture generated by PCBNEW </desc>
<g style="fill:#000000; fill-opacity:1;stroke:#000000; stroke-opacity:1;
stroke-linecap:round; stroke-linejoin:round; "
 transform="translate(0 0) scale(1 1)">
</g>
<g style="fill:#000000; fill-opacity:0.0; 
stroke:#000000; stroke-width:-0.000393701; stroke-opacity:1; 
stroke-linecap:round; stroke-linejoin:round;">
</g>
<g style="fill:#D35517; fill-opacity:0.0; 
stroke:#D35517; stroke-width:-0.000393701; stroke-opacity:1; 
stroke-linecap:round; stroke-linejoin:round;">
</g>
<g style="fill:#D35517; fill-opacity:0.0; 
stroke:#D35517; stroke-width:78.7402; stroke-opacity:1; 
stroke-linecap:round; stroke-linejoin:round;">
<circle cx="13538.6" cy="8231.16" r="630.229" /> 
<circle cx="13538.6" cy="56459.5" r="630.229" /> 
</g>
<g style="fill:#D35517; fill-opacity:0.0; 
stroke:#D35517; stroke-width:19.685; stroke-opacity:1; 
stroke-linecap:round; stroke-linejoin:round;">
<circle cx="23341.8" cy="51498.9" r="1299.36" /> 
<circle cx="18538.6" cy="49097.3" r="1299.36" /> 
<circle cx="23341.8" cy="46695.7" r="1299.36" /> 
<circle cx="18538.6" cy="44294.2" r="1299.36" /> 
<circle cx="23341.8" cy="41892.6" r="1299.36" /> 
<circle cx="23341.8" cy="37089.4" r="1299.36" /> 
<circle cx="23341.8" cy="32286.3" r="1299.36" /> 
<circle cx="23341.8" cy="27483.1" r="1299.36" /> 
<circle cx="23341.8" cy="22680" r="1299.36" /> 
</g>
<g style="fill:#D35517; fill-opacity:0.0; 
stroke:#D35517; stroke-width:78.7402; stroke-opacity:1; 
stroke-linecap:round; stroke-linejoin:round;">
<circle cx="13735.5" cy="51498.9" r="1299.36" /> 
<circle cx="13735.5" cy="46695.7" r="1299.36" /> 
<circle cx="13735.5" cy="41892.6" r="1299.36" /> 
<circle cx="18538.6" cy="39491" r="1299.36" /> 
<circle cx="13735.5" cy="37089.4" r="1299.36" /> 
<circle cx="18538.6" cy="34687.9" r="1299.36" /> 
<circle cx="13735.5" cy="32286.3" r="1299.36" /> 
<circle cx="18538.6" cy="29884.7" r="1299.36" /> 
<circle cx="13735.5" cy="27483.1" r="1299.36" /> 
<circle cx="18538.6" cy="25081.6" r="1299.36" /> 
<circle cx="13735.3" cy="22680" r="1299.36" /> 
<path d="M10585 57601
L10585 7010
" />
<path d="M26452 57601
L10585 57601
" />
<path d="M26452 7010
L26452 57601
" />
<path d="M10585 7010
L26452 7010
" />
<circle cx="18538.5" cy="14884.7" r="1417.46" /> 
</g> 
</svg>
