<?xml version="1.0" standalone="no"?>
 <!DOCTYPE svg PUBLIC "-//W3C//DTD SVG 1.1//EN" 
 "http://www.w3.org/Graphics/SVG/1.1/DTD/svg11.dtd"> 
<svg xmlns="http://www.w3.org/2000/svg" version="1.1" 
    width="4.04876cm" height="12.8676cm" viewBox="0 0 15940 50660 ">
<title>SVG Picture created as TangleQuartet_BnG_Panel-Eco2.User.svg date 2020/05/22 19:02:55 </title>
  <desc>Picture generated by PCBNEW </desc>
<g style="fill:#000000; fill-opacity:1;stroke:#000000; stroke-opacity:1;
stroke-linecap:round; stroke-linejoin:round; "
 transform="translate(0 0) scale(1 1)">
</g>
<g style="fill:#000000; fill-opacity:0.0; 
stroke:#000000; stroke-width:-0.000393701; stroke-opacity:1; 
stroke-linecap:round; stroke-linejoin:round;">
</g>
<g style="fill:#D35517; fill-opacity:0.0; 
stroke:#D35517; stroke-width:-0.000393701; stroke-opacity:1; 
stroke-linecap:round; stroke-linejoin:round;">
</g>
<g style="fill:#D35517; fill-opacity:0.0; 
stroke:#D35517; stroke-width:78.7402; stroke-opacity:1; 
stroke-linecap:round; stroke-linejoin:round;">
<circle cx="11948.8" cy="37539.4" r="1338.58" /> 
<circle cx="13267.7" cy="31496.1" r="1830.71" /> 
<circle cx="13267.7" cy="23700.8" r="1830.71" /> 
<circle cx="13267.7" cy="16102.4" r="1830.71" /> 
<circle cx="13267.7" cy="8366.14" r="1830.71" /> 
<circle cx="5925.2" cy="30315" r="629.921" /> 
<circle cx="5944.88" cy="22440.9" r="629.921" /> 
<circle cx="5905.51" cy="14960.6" r="629.921" /> 
<circle cx="5944.88" cy="7185.04" r="629.921" /> 
<circle cx="8523.62" cy="31456.7" r="1338.58" /> 
<circle cx="8523.62" cy="23661.4" r="1338.58" /> 
<circle cx="8562.99" cy="16102.4" r="1338.58" /> 
<circle cx="8523.62" cy="8267.72" r="1338.58" /> 
<circle cx="13976.4" cy="42677.2" r="1338.58" /> 
<circle cx="9862.21" cy="42677.2" r="1338.58" /> 
<circle cx="5787.4" cy="42677.2" r="1338.58" /> 
<circle cx="1791.34" cy="42677.2" r="1338.58" /> 
<circle cx="2027.56" cy="31456.7" r="1338.58" /> 
<circle cx="1988.19" cy="23700.8" r="1338.58" /> 
<circle cx="1968.5" cy="16063" r="1338.58" /> 
<circle cx="1968.5" cy="8267.72" r="1338.58" /> 
<path d="M15905 50629
L15905 39
" />
<circle cx="3011.81" cy="49448.8" r="629.921" /> 
<circle cx="2992.13" cy="1220.47" r="629.921" /> 
<path d="M39 50629
L39 39
" />
<path d="M15905 50629
L39 50629
" />
<path d="M39 39
L15905 39
" />
</g> 
</svg>
