<?xml version="1.0" standalone="no"?>
 <!DOCTYPE svg PUBLIC "-//W3C//DTD SVG 1.1//EN" 
 "http://www.w3.org/Graphics/SVG/1.1/DTD/svg11.dtd"> 
<svg xmlns="http://www.w3.org/2000/svg" version="1.1" 
    width="6.07822cm" height="12.8676cm" viewBox="0 0 23930 50660 ">
<title>SVG Picture created as AlrightDevices_Chronoblob2_Template-brd.svg date 2019/04/04 18:06:37 </title>
  <desc>Picture generated by PCBNEW </desc>
<g style="fill:#000000; fill-opacity:1;stroke:#000000; stroke-opacity:1;
stroke-linecap:round; stroke-linejoin:round; "
 transform="translate(0 0) scale(1 1)">
</g>
<g style="fill:#000000; fill-opacity:0.0; 
stroke:#000000; stroke-width:-0.000393701; stroke-opacity:1; 
stroke-linecap:round; stroke-linejoin:round;">
</g>
<g style="fill:#C25106; fill-opacity:0.0; 
stroke:#C25106; stroke-width:-0.000393701; stroke-opacity:1; 
stroke-linecap:round; stroke-linejoin:round;">
</g>
<g style="fill:#C25106; fill-opacity:0.0; 
stroke:#C25106; stroke-width:78.7402; stroke-opacity:1; 
stroke-linecap:round; stroke-linejoin:round;">
<path d="M21561 1347
L21574 1220
" />
<path d="M21525 1465
L21561 1347
" />
<path d="M21467 1572
L21525 1465
" />
<path d="M21390 1666
L21467 1572
" />
<path d="M21296 1742
L21390 1666
" />
<path d="M21189 1801
L21296 1742
" />
<path d="M21071 1837
L21189 1801
" />
<path d="M20944 1850
L21071 1837
" />
<path d="M20817 1837
L20944 1850
" />
<path d="M20699 1801
L20817 1837
" />
<path d="M20592 1742
L20699 1801
" />
<path d="M20499 1666
L20592 1742
" />
<path d="M20422 1572
L20499 1666
" />
<path d="M20364 1465
L20422 1572
" />
<path d="M20327 1347
L20364 1465
" />
<path d="M20314 1220
L20327 1347
" />
<path d="M20314 49448
L20314 49448
" />
<path d="M20327 49321
L20314 49448
" />
<path d="M20364 49203
L20327 49321
" />
<path d="M20422 49096
L20364 49203
" />
<path d="M20499 49003
L20422 49096
" />
<path d="M20592 48926
L20499 49003
" />
<path d="M20699 48868
L20592 48926
" />
<path d="M20817 48831
L20699 48868
" />
<path d="M20944 48818
L20817 48831
" />
<path d="M21071 48831
L20944 48818
" />
<path d="M21189 48868
L21071 48831
" />
<path d="M21296 48926
L21189 48868
" />
<path d="M21390 49003
L21296 48926
" />
<path d="M21467 49096
L21390 49003
" />
<path d="M21525 49203
L21467 49096
" />
<path d="M21561 49321
L21525 49203
" />
<path d="M21574 49448
L21561 49321
" />
<path d="M21561 49575
L21574 49448
" />
<path d="M21525 49694
L21561 49575
" />
<path d="M21467 49801
L21525 49694
" />
<path d="M21390 49894
L21467 49801
" />
<path d="M21296 49971
L21390 49894
" />
<path d="M21189 50029
L21296 49971
" />
<path d="M21071 50066
L21189 50029
" />
<path d="M20944 50078
L21071 50066
" />
<path d="M20817 50066
L20944 50078
" />
<path d="M20699 50029
L20817 50066
" />
<path d="M20592 49971
L20699 50029
" />
<path d="M20499 49894
L20592 49971
" />
<path d="M20422 49801
L20499 49894
" />
<path d="M20364 49694
L20422 49801
" />
<path d="M20327 49575
L20364 49694
" />
<path d="M20314 49448
L20327 49575
" />
<path d="M3621 1220
L3621 1220
" />
<path d="M3609 1093
L3621 1220
" />
<path d="M3572 975
L3609 1093
" />
<path d="M3514 868
L3572 975
" />
<path d="M3437 775
L3514 868
" />
<path d="M3344 698
L3437 775
" />
<path d="M3237 640
L3344 698
" />
<path d="M3119 603
L3237 640
" />
<path d="M2992 590
L3119 603
" />
<path d="M2865 603
L2992 590
" />
<path d="M2747 640
L2865 603
" />
<path d="M2640 698
L2747 640
" />
<path d="M2546 775
L2640 698
" />
<path d="M2469 868
L2546 775
" />
<path d="M2411 975
L2469 868
" />
<path d="M2375 1093
L2411 975
" />
<path d="M2362 1220
L2375 1093
" />
<path d="M2375 1347
L2362 1220
" />
<path d="M2411 1465
L2375 1347
" />
<path d="M2469 1572
L2411 1465
" />
<path d="M2546 1666
L2469 1572
" />
<path d="M2640 1743
L2546 1666
" />
<path d="M2747 1801
L2640 1743
" />
<path d="M2865 1837
L2747 1801
" />
<path d="M2992 1850
L2865 1837
" />
<path d="M3119 1837
L2992 1850
" />
<path d="M3237 1801
L3119 1837
" />
<path d="M3344 1743
L3237 1801
" />
<path d="M3437 1666
L3344 1743
" />
<path d="M3514 1572
L3437 1666
" />
<path d="M3572 1465
L3514 1572
" />
<path d="M3609 1347
L3572 1465
" />
<path d="M3621 1220
L3609 1347
" />
<path d="M3621 49449
L3621 49449
" />
<path d="M3609 49322
L3621 49449
" />
<path d="M3572 49203
L3609 49322
" />
<path d="M3514 49096
L3572 49203
" />
<path d="M3437 49003
L3514 49096
" />
<path d="M3344 48926
L3437 49003
" />
<path d="M3237 48868
L3344 48926
" />
<path d="M3119 48831
L3237 48868
" />
<path d="M2992 48819
L3119 48831
" />
<path d="M2865 48831
L2992 48819
" />
<path d="M2747 48868
L2865 48831
" />
<path d="M2640 48926
L2747 48868
" />
<path d="M2546 49003
L2640 48926
" />
<path d="M2469 49096
L2546 49003
" />
<path d="M2411 49203
L2469 49096
" />
<path d="M2375 49322
L2411 49203
" />
<path d="M2362 49449
L2375 49322
" />
<path d="M2375 49576
L2362 49449
" />
<path d="M2411 49694
L2375 49576
" />
<path d="M2469 49801
L2411 49694
" />
<path d="M2546 49894
L2469 49801
" />
<path d="M2640 49971
L2546 49894
" />
<path d="M2747 50029
L2640 49971
" />
<path d="M2865 50066
L2747 50029
" />
<path d="M2992 50078
L2865 50066
" />
<path d="M3119 50066
L2992 50078
" />
<path d="M3237 50029
L3119 50066
" />
<path d="M3344 49971
L3237 50029
" />
<path d="M3437 49894
L3344 49971
" />
<path d="M3514 49801
L3437 49894
" />
<path d="M3572 49694
L3514 49801
" />
<path d="M3609 49576
L3572 49694
" />
<path d="M3621 49449
L3609 49576
" />
<path d="M4899 21465
L4899 22843
" />
<path d="M2930 21465
L4899 21465
" />
<path d="M2930 22843
L2930 21465
" />
<path d="M4899 22843
L2930 22843
" />
<path d="M23897 39
L23897 50629
" />
<path d="M39 39
L23897 39
" />
<path d="M39 50629
L39 39
" />
<path d="M23897 50629
L39 50629
" />
<path d="M5036 17181
L5036 17181
" />
<path d="M5014 16954
L5036 17181
" />
<path d="M4948 16744
L5014 16954
" />
<path d="M4845 16553
L4948 16744
" />
<path d="M4708 16387
L4845 16553
" />
<path d="M4542 16250
L4708 16387
" />
<path d="M4351 16146
L4542 16250
" />
<path d="M4140 16081
L4351 16146
" />
<path d="M3914 16058
L4140 16081
" />
<path d="M3688 16081
L3914 16058
" />
<path d="M3478 16146
L3688 16081
" />
<path d="M3287 16250
L3478 16146
" />
<path d="M3121 16387
L3287 16250
" />
<path d="M2984 16553
L3121 16387
" />
<path d="M2881 16744
L2984 16553
" />
<path d="M2815 16954
L2881 16744
" />
<path d="M2793 17181
L2815 16954
" />
<path d="M2815 17407
L2793 17181
" />
<path d="M2881 17617
L2815 17407
" />
<path d="M2984 17808
L2881 17617
" />
<path d="M3121 17974
L2984 17808
" />
<path d="M3287 18111
L3121 17974
" />
<path d="M3478 18214
L3287 18111
" />
<path d="M3688 18280
L3478 18214
" />
<path d="M3914 18303
L3688 18280
" />
<path d="M4140 18280
L3914 18303
" />
<path d="M4351 18214
L4140 18280
" />
<path d="M4542 18111
L4351 18214
" />
<path d="M4708 17974
L4542 18111
" />
<path d="M4845 17808
L4708 17974
" />
<path d="M4948 17617
L4845 17808
" />
<path d="M5014 17407
L4948 17617
" />
<path d="M5036 17181
L5014 17407
" />
<path d="M21341 15079
L21341 15079
" />
<path d="M21328 14956
L21341 15079
" />
<path d="M21293 14842
L21328 14956
" />
<path d="M21236 14738
L21293 14842
" />
<path d="M21162 14648
L21236 14738
" />
<path d="M21071 14573
L21162 14648
" />
<path d="M20968 14517
L21071 14573
" />
<path d="M20853 14481
L20968 14517
" />
<path d="M20730 14469
L20853 14481
" />
<path d="M20607 14481
L20730 14469
" />
<path d="M20493 14517
L20607 14481
" />
<path d="M20389 14573
L20493 14517
" />
<path d="M20299 14648
L20389 14573
" />
<path d="M20224 14738
L20299 14648
" />
<path d="M20168 14842
L20224 14738
" />
<path d="M20132 14956
L20168 14842
" />
<path d="M20120 15079
L20132 14956
" />
<path d="M20132 15202
L20120 15079
" />
<path d="M20168 15317
L20132 15202
" />
<path d="M20224 15420
L20168 15317
" />
<path d="M20299 15511
L20224 15420
" />
<path d="M20389 15585
L20299 15511
" />
<path d="M20493 15641
L20389 15585
" />
<path d="M20607 15677
L20493 15641
" />
<path d="M20730 15689
L20607 15677
" />
<path d="M20853 15677
L20730 15689
" />
<path d="M20968 15641
L20853 15677
" />
<path d="M21071 15585
L20968 15641
" />
<path d="M21162 15511
L21071 15585
" />
<path d="M21236 15420
L21162 15511
" />
<path d="M21293 15317
L21236 15420
" />
<path d="M21328 15202
L21293 15317
" />
<path d="M21341 15079
L21328 15202
" />
<path d="M21341 17141
L21341 17141
" />
<path d="M21328 17018
L21341 17141
" />
<path d="M21293 16903
L21328 17018
" />
<path d="M21236 16799
L21293 16903
" />
<path d="M21162 16709
L21236 16799
" />
<path d="M21071 16635
L21162 16709
" />
<path d="M20968 16578
L21071 16635
" />
<path d="M20853 16543
L20968 16578
" />
<path d="M20730 16530
L20853 16543
" />
<path d="M20607 16543
L20730 16530
" />
<path d="M20493 16578
L20607 16543
" />
<path d="M20389 16635
L20493 16578
" />
<path d="M20299 16709
L20389 16635
" />
<path d="M20224 16799
L20299 16709
" />
<path d="M20168 16903
L20224 16799
" />
<path d="M20132 17018
L20168 16903
" />
<path d="M20120 17141
L20132 17018
" />
<path d="M20132 17264
L20120 17141
" />
<path d="M20168 17378
L20132 17264
" />
<path d="M20224 17482
L20168 17378
" />
<path d="M20299 17572
L20224 17482
" />
<path d="M20389 17647
L20299 17572
" />
<path d="M20493 17703
L20389 17647
" />
<path d="M20607 17739
L20493 17703
" />
<path d="M20730 17751
L20607 17739
" />
<path d="M20853 17739
L20730 17751
" />
<path d="M20968 17703
L20853 17739
" />
<path d="M21071 17647
L20968 17703
" />
<path d="M21162 17572
L21071 17647
" />
<path d="M21236 17482
L21162 17572
" />
<path d="M21293 17378
L21236 17482
" />
<path d="M21328 17264
L21293 17378
" />
<path d="M21341 17141
L21328 17264
" />
<path d="M21341 19202
L21341 19202
" />
<path d="M21328 19079
L21341 19202
" />
<path d="M21293 18965
L21328 19079
" />
<path d="M21236 18861
L21293 18965
" />
<path d="M21162 18771
L21236 18861
" />
<path d="M21071 18696
L21162 18771
" />
<path d="M20968 18640
L21071 18696
" />
<path d="M20853 18604
L20968 18640
" />
<path d="M20730 18592
L20853 18604
" />
<path d="M20607 18604
L20730 18592
" />
<path d="M20493 18640
L20607 18604
" />
<path d="M20389 18696
L20493 18640
" />
<path d="M20299 18771
L20389 18696
" />
<path d="M20224 18861
L20299 18771
" />
<path d="M20168 18965
L20224 18861
" />
<path d="M20132 19079
L20168 18965
" />
<path d="M20120 19202
L20132 19079
" />
<path d="M20132 19325
L20120 19202
" />
<path d="M20168 19440
L20132 19325
" />
<path d="M20224 19543
L20168 19440
" />
<path d="M20299 19634
L20224 19543
" />
<path d="M20389 19708
L20299 19634
" />
<path d="M20493 19764
L20389 19708
" />
<path d="M20607 19800
L20493 19764
" />
<path d="M20730 19812
L20607 19800
" />
<path d="M20853 19800
L20730 19812
" />
<path d="M20968 19764
L20853 19800
" />
<path d="M21071 19708
L20968 19764
" />
<path d="M21162 19634
L21071 19708
" />
<path d="M21236 19543
L21162 19634
" />
<path d="M21293 19440
L21236 19543
" />
<path d="M21328 19325
L21293 19440
" />
<path d="M21341 19202
L21328 19325
" />
<path d="M21341 21264
L21341 21264
" />
<path d="M21328 21141
L21341 21264
" />
<path d="M21293 21026
L21328 21141
" />
<path d="M21236 20922
L21293 21026
" />
<path d="M21162 20832
L21236 20922
" />
<path d="M21071 20758
L21162 20832
" />
<path d="M20968 20701
L21071 20758
" />
<path d="M20853 20666
L20968 20701
" />
<path d="M20730 20653
L20853 20666
" />
<path d="M20607 20666
L20730 20653
" />
<path d="M20493 20701
L20607 20666
" />
<path d="M20389 20758
L20493 20701
" />
<path d="M20299 20832
L20389 20758
" />
<path d="M20224 20922
L20299 20832
" />
<path d="M20168 21026
L20224 20922
" />
<path d="M20132 21141
L20168 21026
" />
<path d="M20120 21264
L20132 21141
" />
<path d="M20132 21387
L20120 21264
" />
<path d="M20168 21501
L20132 21387
" />
<path d="M20224 21605
L20168 21501
" />
<path d="M20299 21695
L20224 21605
" />
<path d="M20389 21770
L20299 21695
" />
<path d="M20493 21826
L20389 21770
" />
<path d="M20607 21861
L20493 21826
" />
<path d="M20730 21874
L20607 21861
" />
<path d="M20853 21861
L20730 21874
" />
<path d="M20968 21826
L20853 21861
" />
<path d="M21071 21770
L20968 21826
" />
<path d="M21162 21695
L21071 21770
" />
<path d="M21236 21605
L21162 21695
" />
<path d="M21293 21501
L21236 21605
" />
<path d="M21328 21387
L21293 21501
" />
<path d="M21341 21264
L21328 21387
" />
<path d="M21734 23963
L21734 23963
" />
<path d="M21714 23761
L21734 23963
" />
<path d="M21655 23572
L21714 23761
" />
<path d="M21563 23402
L21655 23572
" />
<path d="M21440 23253
L21563 23402
" />
<path d="M21292 23130
L21440 23253
" />
<path d="M21121 23038
L21292 23130
" />
<path d="M20933 22979
L21121 23038
" />
<path d="M20730 22959
L20933 22979
" />
<path d="M20528 22979
L20730 22959
" />
<path d="M20340 23038
L20528 22979
" />
<path d="M20169 23130
L20340 23038
" />
<path d="M20020 23253
L20169 23130
" />
<path d="M19898 23402
L20020 23253
" />
<path d="M19805 23572
L19898 23402
" />
<path d="M19747 23761
L19805 23572
" />
<path d="M19726 23963
L19747 23761
" />
<path d="M19747 24165
L19726 23963
" />
<path d="M19805 24354
L19747 24165
" />
<path d="M19898 24524
L19805 24354
" />
<path d="M20020 24673
L19898 24524
" />
<path d="M20169 24796
L20020 24673
" />
<path d="M20340 24888
L20169 24796
" />
<path d="M20528 24947
L20340 24888
" />
<path d="M20730 24967
L20528 24947
" />
<path d="M20933 24947
L20730 24967
" />
<path d="M21121 24888
L20933 24947
" />
<path d="M21292 24796
L21121 24888
" />
<path d="M21440 24673
L21292 24796
" />
<path d="M21563 24524
L21440 24673
" />
<path d="M21655 24354
L21563 24524
" />
<path d="M21714 24165
L21655 24354
" />
<path d="M21734 23963
L21714 24165
" />
<path d="M7244 25946
L7244 25946
" />
<path d="M7232 25823
L7244 25946
" />
<path d="M7196 25709
L7232 25823
" />
<path d="M7140 25605
L7196 25709
" />
<path d="M7065 25515
L7140 25605
" />
<path d="M6975 25440
L7065 25515
" />
<path d="M6871 25384
L6975 25440
" />
<path d="M6757 25349
L6871 25384
" />
<path d="M6634 25336
L6757 25349
" />
<path d="M6511 25349
L6634 25336
" />
<path d="M6396 25384
L6511 25349
" />
<path d="M6293 25440
L6396 25384
" />
<path d="M6202 25515
L6293 25440
" />
<path d="M6128 25605
L6202 25515
" />
<path d="M6071 25709
L6128 25605
" />
<path d="M6036 25823
L6071 25709
" />
<path d="M6024 25946
L6036 25823
" />
<path d="M6036 26069
L6024 25946
" />
<path d="M6071 26184
L6036 26069
" />
<path d="M6128 26288
L6071 26184
" />
<path d="M6202 26378
L6128 26288
" />
<path d="M6293 26452
L6202 26378
" />
<path d="M6396 26509
L6293 26452
" />
<path d="M6511 26544
L6396 26509
" />
<path d="M6634 26557
L6511 26544
" />
<path d="M6757 26544
L6634 26557
" />
<path d="M6871 26509
L6757 26544
" />
<path d="M6975 26452
L6871 26509
" />
<path d="M7065 26378
L6975 26452
" />
<path d="M7140 26288
L7065 26378
" />
<path d="M7196 26184
L7140 26288
" />
<path d="M7232 26069
L7196 26184
" />
<path d="M7244 25946
L7232 26069
" />
<path d="M17913 25946
L17913 25946
" />
<path d="M17900 25823
L17913 25946
" />
<path d="M17865 25709
L17900 25823
" />
<path d="M17808 25605
L17865 25709
" />
<path d="M17734 25515
L17808 25605
" />
<path d="M17643 25440
L17734 25515
" />
<path d="M17540 25384
L17643 25440
" />
<path d="M17425 25349
L17540 25384
" />
<path d="M17302 25336
L17425 25349
" />
<path d="M17179 25349
L17302 25336
" />
<path d="M17065 25384
L17179 25349
" />
<path d="M16961 25440
L17065 25384
" />
<path d="M16871 25515
L16961 25440
" />
<path d="M16796 25605
L16871 25515
" />
<path d="M16740 25709
L16796 25605
" />
<path d="M16704 25823
L16740 25709
" />
<path d="M16692 25946
L16704 25823
" />
<path d="M16704 26069
L16692 25946
" />
<path d="M16740 26184
L16704 26069
" />
<path d="M16796 26288
L16740 26184
" />
<path d="M16871 26378
L16796 26288
" />
<path d="M16961 26452
L16871 26378
" />
<path d="M17065 26509
L16961 26452
" />
<path d="M17179 26544
L17065 26509
" />
<path d="M17302 26557
L17179 26544
" />
<path d="M17425 26544
L17302 26557
" />
<path d="M17540 26509
L17425 26544
" />
<path d="M17643 26452
L17540 26509
" />
<path d="M17734 26378
L17643 26452
" />
<path d="M17808 26288
L17734 26378
" />
<path d="M17865 26184
L17808 26288
" />
<path d="M17900 26069
L17865 26184
" />
<path d="M17913 25946
L17900 26069
" />
<path d="M19584 29151
L19558 29409
" />
<path d="M19658 28911
L19584 29151
" />
<path d="M19776 28694
L19658 28911
" />
<path d="M19931 28504
L19776 28694
" />
<path d="M20119 28348
L19931 28504
" />
<path d="M20336 28230
L20119 28348
" />
<path d="M20574 28156
L20336 28230
" />
<path d="M20831 28130
L20574 28156
" />
<path d="M21087 28156
L20831 28130
" />
<path d="M21326 28230
L21087 28156
" />
<path d="M21542 28348
L21326 28230
" />
<path d="M21731 28504
L21542 28348
" />
<path d="M21886 28694
L21731 28504
" />
<path d="M22003 28911
L21886 28694
" />
<path d="M22078 29151
L22003 28911
" />
<path d="M22103 29409
L22078 29151
" />
<path d="M22078 29667
L22103 29409
" />
<path d="M22003 29907
L22078 29667
" />
<path d="M21886 30125
L22003 29907
" />
<path d="M21731 30314
L21886 30125
" />
<path d="M21542 30470
L21731 30314
" />
<path d="M21326 30588
L21542 30470
" />
<path d="M21087 30663
L21326 30588
" />
<path d="M20831 30689
L21087 30663
" />
<path d="M20574 30663
L20831 30689
" />
<path d="M20335 30588
L20574 30663
" />
<path d="M20119 30471
L20335 30588
" />
<path d="M19929 30316
L20119 30471
" />
<path d="M19772 30128
L19929 30316
" />
<path d="M19652 29913
L19772 30128
" />
<path d="M19575 29677
L19652 29913
" />
<path d="M19544 29424
L19575 29677
" />
<path d="M13714 30293
L13688 30551
" />
<path d="M13788 30053
L13714 30293
" />
<path d="M13905 29836
L13788 30053
" />
<path d="M14061 29646
L13905 29836
" />
<path d="M14249 29490
L14061 29646
" />
<path d="M14465 29372
L14249 29490
" />
<path d="M14704 29298
L14465 29372
" />
<path d="M14960 29272
L14704 29298
" />
<path d="M15217 29298
L14960 29272
" />
<path d="M15456 29372
L15217 29298
" />
<path d="M15672 29490
L15456 29372
" />
<path d="M15860 29646
L15672 29490
" />
<path d="M16016 29836
L15860 29646
" />
<path d="M16133 30053
L16016 29836
" />
<path d="M16207 30293
L16133 30053
" />
<path d="M16233 30551
L16207 30293
" />
<path d="M16207 30809
L16233 30551
" />
<path d="M16133 31049
L16207 30809
" />
<path d="M16016 31267
L16133 31049
" />
<path d="M15860 31456
L16016 31267
" />
<path d="M15672 31612
L15860 31456
" />
<path d="M15456 31730
L15672 31612
" />
<path d="M15217 31805
L15456 31730
" />
<path d="M14960 31831
L15217 31805
" />
<path d="M14704 31805
L14960 31831
" />
<path d="M14465 31730
L14704 31805
" />
<path d="M14248 31613
L14465 31730
" />
<path d="M14059 31458
L14248 31613
" />
<path d="M13902 31270
L14059 31458
" />
<path d="M13782 31055
L13902 31270
" />
<path d="M13704 30819
L13782 31055
" />
<path d="M13674 30566
L13704 30819
" />
<path d="M7744 30293
L7718 30551
" />
<path d="M7818 30053
L7744 30293
" />
<path d="M7935 29836
L7818 30053
" />
<path d="M8090 29646
L7935 29836
" />
<path d="M8278 29490
L8090 29646
" />
<path d="M8495 29372
L8278 29490
" />
<path d="M8733 29298
L8495 29372
" />
<path d="M8990 29272
L8733 29298
" />
<path d="M9246 29298
L8990 29272
" />
<path d="M9485 29372
L9246 29298
" />
<path d="M9701 29490
L9485 29372
" />
<path d="M9890 29646
L9701 29490
" />
<path d="M10045 29836
L9890 29646
" />
<path d="M10162 30053
L10045 29836
" />
<path d="M10237 30293
L10162 30053
" />
<path d="M10262 30551
L10237 30293
" />
<path d="M10237 30809
L10262 30551
" />
<path d="M10162 31049
L10237 30809
" />
<path d="M10045 31267
L10162 31049
" />
<path d="M9890 31456
L10045 31267
" />
<path d="M9701 31612
L9890 31456
" />
<path d="M9485 31730
L9701 31612
" />
<path d="M9246 31805
L9485 31730
" />
<path d="M8990 31831
L9246 31805
" />
<path d="M8733 31805
L8990 31831
" />
<path d="M8494 31730
L8733 31805
" />
<path d="M8278 31613
L8494 31730
" />
<path d="M8088 31458
L8278 31613
" />
<path d="M7931 31270
L8088 31458
" />
<path d="M7812 31055
L7931 31270
" />
<path d="M7734 30819
L7812 31055
" />
<path d="M7703 30566
L7734 30819
" />
<path d="M1873 29151
L1847 29409
" />
<path d="M1947 28911
L1873 29151
" />
<path d="M2064 28694
L1947 28911
" />
<path d="M2220 28504
L2064 28694
" />
<path d="M2408 28348
L2220 28504
" />
<path d="M2624 28230
L2408 28348
" />
<path d="M2863 28156
L2624 28230
" />
<path d="M3120 28130
L2863 28156
" />
<path d="M3376 28156
L3120 28130
" />
<path d="M3615 28230
L3376 28156
" />
<path d="M3831 28348
L3615 28230
" />
<path d="M4019 28504
L3831 28348
" />
<path d="M4175 28694
L4019 28504
" />
<path d="M4292 28911
L4175 28694
" />
<path d="M4366 29151
L4292 28911
" />
<path d="M4392 29409
L4366 29151
" />
<path d="M4366 29667
L4392 29409
" />
<path d="M4292 29907
L4366 29667
" />
<path d="M4175 30125
L4292 29907
" />
<path d="M4019 30314
L4175 30125
" />
<path d="M3831 30470
L4019 30314
" />
<path d="M3615 30588
L3831 30470
" />
<path d="M3376 30663
L3615 30588
" />
<path d="M3120 30689
L3376 30663
" />
<path d="M2863 30663
L3120 30689
" />
<path d="M2624 30588
L2863 30663
" />
<path d="M2407 30471
L2624 30588
" />
<path d="M2218 30316
L2407 30471
" />
<path d="M2061 30128
L2218 30316
" />
<path d="M1941 29913
L2061 30128
" />
<path d="M1863 29677
L1941 29913
" />
<path d="M1833 29424
L1863 29677
" />
<path d="M22393 44438
L22393 44438
" />
<path d="M22368 44192
L22393 44438
" />
<path d="M22297 43963
L22368 44192
" />
<path d="M22184 43756
L22297 43963
" />
<path d="M22035 43575
L22184 43756
" />
<path d="M21855 43426
L22035 43575
" />
<path d="M21647 43314
L21855 43426
" />
<path d="M21418 43243
L21647 43314
" />
<path d="M21172 43218
L21418 43243
" />
<path d="M20926 43243
L21172 43218
" />
<path d="M20697 43314
L20926 43243
" />
<path d="M20490 43426
L20697 43314
" />
<path d="M20309 43575
L20490 43426
" />
<path d="M20160 43756
L20309 43575
" />
<path d="M20048 43963
L20160 43756
" />
<path d="M19977 44192
L20048 43963
" />
<path d="M19952 44438
L19977 44192
" />
<path d="M19977 44684
L19952 44438
" />
<path d="M20048 44913
L19977 44684
" />
<path d="M20160 45121
L20048 44913
" />
<path d="M20309 45301
L20160 45121
" />
<path d="M20490 45450
L20309 45301
" />
<path d="M20697 45563
L20490 45450
" />
<path d="M20926 45634
L20697 45563
" />
<path d="M21172 45659
L20926 45634
" />
<path d="M21418 45634
L21172 45659
" />
<path d="M21647 45563
L21418 45634
" />
<path d="M21855 45450
L21647 45563
" />
<path d="M22035 45301
L21855 45450
" />
<path d="M22184 45121
L22035 45301
" />
<path d="M22297 44913
L22184 45121
" />
<path d="M22368 44684
L22297 44913
" />
<path d="M22393 44438
L22368 44684
" />
<path d="M17816 44438
L17816 44438
" />
<path d="M17791 44192
L17816 44438
" />
<path d="M17720 43963
L17791 44192
" />
<path d="M17608 43756
L17720 43963
" />
<path d="M17459 43575
L17608 43756
" />
<path d="M17278 43426
L17459 43575
" />
<path d="M17071 43314
L17278 43426
" />
<path d="M16842 43243
L17071 43314
" />
<path d="M16596 43218
L16842 43243
" />
<path d="M16350 43243
L16596 43218
" />
<path d="M16121 43314
L16350 43243
" />
<path d="M15913 43426
L16121 43314
" />
<path d="M15733 43575
L15913 43426
" />
<path d="M15584 43756
L15733 43575
" />
<path d="M15471 43963
L15584 43756
" />
<path d="M15400 44192
L15471 43963
" />
<path d="M15375 44438
L15400 44192
" />
<path d="M15400 44684
L15375 44438
" />
<path d="M15471 44913
L15400 44684
" />
<path d="M15584 45121
L15471 44913
" />
<path d="M15733 45301
L15584 45121
" />
<path d="M15913 45450
L15733 45301
" />
<path d="M16121 45563
L15913 45450
" />
<path d="M16350 45634
L16121 45563
" />
<path d="M16596 45659
L16350 45634
" />
<path d="M16842 45634
L16596 45659
" />
<path d="M17071 45563
L16842 45634
" />
<path d="M17278 45450
L17071 45563
" />
<path d="M17459 45301
L17278 45450
" />
<path d="M17608 45121
L17459 45301
" />
<path d="M17720 44913
L17608 45121
" />
<path d="M17791 44684
L17720 44913
" />
<path d="M17816 44438
L17791 44684
" />
<path d="M13240 44438
L13240 44438
" />
<path d="M13215 44192
L13240 44438
" />
<path d="M13144 43963
L13215 44192
" />
<path d="M13031 43756
L13144 43963
" />
<path d="M12882 43575
L13031 43756
" />
<path d="M12702 43426
L12882 43575
" />
<path d="M12494 43314
L12702 43426
" />
<path d="M12265 43243
L12494 43314
" />
<path d="M12020 43218
L12265 43243
" />
<path d="M11774 43243
L12020 43218
" />
<path d="M11544 43314
L11774 43243
" />
<path d="M11337 43426
L11544 43314
" />
<path d="M11156 43575
L11337 43426
" />
<path d="M11007 43756
L11156 43575
" />
<path d="M10895 43963
L11007 43756
" />
<path d="M10824 44192
L10895 43963
" />
<path d="M10799 44438
L10824 44192
" />
<path d="M10824 44684
L10799 44438
" />
<path d="M10895 44913
L10824 44684
" />
<path d="M11007 45121
L10895 44913
" />
<path d="M11156 45301
L11007 45121
" />
<path d="M11337 45450
L11156 45301
" />
<path d="M11544 45563
L11337 45450
" />
<path d="M11774 45634
L11544 45563
" />
<path d="M12020 45659
L11774 45634
" />
<path d="M12265 45634
L12020 45659
" />
<path d="M12494 45563
L12265 45634
" />
<path d="M12702 45450
L12494 45563
" />
<path d="M12882 45301
L12702 45450
" />
<path d="M13031 45121
L12882 45301
" />
<path d="M13144 44913
L13031 45121
" />
<path d="M13215 44684
L13144 44913
" />
<path d="M13240 44438
L13215 44684
" />
<path d="M8663 44438
L8663 44438
" />
<path d="M8638 44192
L8663 44438
" />
<path d="M8567 43963
L8638 44192
" />
<path d="M8455 43756
L8567 43963
" />
<path d="M8306 43575
L8455 43756
" />
<path d="M8125 43426
L8306 43575
" />
<path d="M7918 43314
L8125 43426
" />
<path d="M7689 43243
L7918 43314
" />
<path d="M7443 43218
L7689 43243
" />
<path d="M7197 43243
L7443 43218
" />
<path d="M6968 43314
L7197 43243
" />
<path d="M6760 43426
L6968 43314
" />
<path d="M6580 43575
L6760 43426
" />
<path d="M6431 43756
L6580 43575
" />
<path d="M6318 43963
L6431 43756
" />
<path d="M6247 44192
L6318 43963
" />
<path d="M6222 44438
L6247 44192
" />
<path d="M6247 44684
L6222 44438
" />
<path d="M6318 44913
L6247 44684
" />
<path d="M6431 45121
L6318 44913
" />
<path d="M6580 45301
L6431 45121
" />
<path d="M6760 45450
L6580 45301
" />
<path d="M6968 45563
L6760 45450
" />
<path d="M7197 45634
L6968 45563
" />
<path d="M7443 45659
L7197 45634
" />
<path d="M7689 45634
L7443 45659
" />
<path d="M7918 45563
L7689 45634
" />
<path d="M8125 45450
L7918 45563
" />
<path d="M8306 45301
L8125 45450
" />
<path d="M8455 45121
L8306 45301
" />
<path d="M8567 44913
L8455 45121
" />
<path d="M8638 44684
L8567 44913
" />
<path d="M8663 44438
L8638 44684
" />
<path d="M4086 44438
L4086 44438
" />
<path d="M4062 44192
L4086 44438
" />
<path d="M3991 43963
L4062 44192
" />
<path d="M3878 43756
L3991 43963
" />
<path d="M3729 43575
L3878 43756
" />
<path d="M3548 43426
L3729 43575
" />
<path d="M3341 43314
L3548 43426
" />
<path d="M3112 43243
L3341 43314
" />
<path d="M2866 43218
L3112 43243
" />
<path d="M2620 43243
L2866 43218
" />
<path d="M2391 43314
L2620 43243
" />
<path d="M2184 43426
L2391 43314
" />
<path d="M2003 43575
L2184 43426
" />
<path d="M1854 43756
L2003 43575
" />
<path d="M1741 43963
L1854 43756
" />
<path d="M1670 44192
L1741 43963
" />
<path d="M1646 44438
L1670 44192
" />
<path d="M1670 44684
L1646 44438
" />
<path d="M1741 44913
L1670 44684
" />
<path d="M1854 45121
L1741 44913
" />
<path d="M2003 45301
L1854 45121
" />
<path d="M2184 45450
L2003 45301
" />
<path d="M2391 45563
L2184 45450
" />
<path d="M2620 45634
L2391 45563
" />
<path d="M2866 45659
L2620 45634
" />
<path d="M3112 45634
L2866 45659
" />
<path d="M3341 45563
L3112 45634
" />
<path d="M3548 45450
L3341 45563
" />
<path d="M3729 45301
L3548 45450
" />
<path d="M3878 45121
L3729 45301
" />
<path d="M3991 44913
L3878 45121
" />
<path d="M4062 44684
L3991 44913
" />
<path d="M4086 44438
L4062 44684
" />
<path d="M22393 36982
L22393 36982
" />
<path d="M22368 36736
L22393 36982
" />
<path d="M22297 36507
L22368 36736
" />
<path d="M22184 36300
L22297 36507
" />
<path d="M22035 36119
L22184 36300
" />
<path d="M21855 35970
L22035 36119
" />
<path d="M21647 35858
L21855 35970
" />
<path d="M21418 35786
L21647 35858
" />
<path d="M21172 35762
L21418 35786
" />
<path d="M20926 35786
L21172 35762
" />
<path d="M20697 35858
L20926 35786
" />
<path d="M20490 35970
L20697 35858
" />
<path d="M20309 36119
L20490 35970
" />
<path d="M20160 36300
L20309 36119
" />
<path d="M20048 36507
L20160 36300
" />
<path d="M19977 36736
L20048 36507
" />
<path d="M19952 36982
L19977 36736
" />
<path d="M19977 37228
L19952 36982
" />
<path d="M20048 37457
L19977 37228
" />
<path d="M20160 37664
L20048 37457
" />
<path d="M20309 37845
L20160 37664
" />
<path d="M20490 37994
L20309 37845
" />
<path d="M20697 38107
L20490 37994
" />
<path d="M20926 38178
L20697 38107
" />
<path d="M21172 38203
L20926 38178
" />
<path d="M21418 38178
L21172 38203
" />
<path d="M21647 38107
L21418 38178
" />
<path d="M21855 37994
L21647 38107
" />
<path d="M22035 37845
L21855 37994
" />
<path d="M22184 37664
L22035 37845
" />
<path d="M22297 37457
L22184 37664
" />
<path d="M22368 37228
L22297 37457
" />
<path d="M22393 36982
L22368 37228
" />
<path d="M17816 36982
L17816 36982
" />
<path d="M17791 36736
L17816 36982
" />
<path d="M17720 36507
L17791 36736
" />
<path d="M17608 36300
L17720 36507
" />
<path d="M17459 36119
L17608 36300
" />
<path d="M17278 35970
L17459 36119
" />
<path d="M17071 35858
L17278 35970
" />
<path d="M16842 35786
L17071 35858
" />
<path d="M16596 35762
L16842 35786
" />
<path d="M16350 35786
L16596 35762
" />
<path d="M16121 35858
L16350 35786
" />
<path d="M15913 35970
L16121 35858
" />
<path d="M15733 36119
L15913 35970
" />
<path d="M15584 36300
L15733 36119
" />
<path d="M15471 36507
L15584 36300
" />
<path d="M15400 36736
L15471 36507
" />
<path d="M15375 36982
L15400 36736
" />
<path d="M15400 37228
L15375 36982
" />
<path d="M15471 37457
L15400 37228
" />
<path d="M15584 37664
L15471 37457
" />
<path d="M15733 37845
L15584 37664
" />
<path d="M15913 37994
L15733 37845
" />
<path d="M16121 38107
L15913 37994
" />
<path d="M16350 38178
L16121 38107
" />
<path d="M16596 38203
L16350 38178
" />
<path d="M16842 38178
L16596 38203
" />
<path d="M17071 38107
L16842 38178
" />
<path d="M17278 37994
L17071 38107
" />
<path d="M17459 37845
L17278 37994
" />
<path d="M17608 37664
L17459 37845
" />
<path d="M17720 37457
L17608 37664
" />
<path d="M17791 37228
L17720 37457
" />
<path d="M17816 36982
L17791 37228
" />
<path d="M13240 36982
L13240 36982
" />
<path d="M13215 36736
L13240 36982
" />
<path d="M13144 36507
L13215 36736
" />
<path d="M13031 36300
L13144 36507
" />
<path d="M12882 36119
L13031 36300
" />
<path d="M12702 35970
L12882 36119
" />
<path d="M12494 35858
L12702 35970
" />
<path d="M12265 35786
L12494 35858
" />
<path d="M12020 35762
L12265 35786
" />
<path d="M11774 35786
L12020 35762
" />
<path d="M11544 35858
L11774 35786
" />
<path d="M11337 35970
L11544 35858
" />
<path d="M11156 36119
L11337 35970
" />
<path d="M11007 36300
L11156 36119
" />
<path d="M10895 36507
L11007 36300
" />
<path d="M10824 36736
L10895 36507
" />
<path d="M10799 36982
L10824 36736
" />
<path d="M10824 37228
L10799 36982
" />
<path d="M10895 37457
L10824 37228
" />
<path d="M11007 37664
L10895 37457
" />
<path d="M11156 37845
L11007 37664
" />
<path d="M11337 37994
L11156 37845
" />
<path d="M11544 38107
L11337 37994
" />
<path d="M11774 38178
L11544 38107
" />
<path d="M12020 38203
L11774 38178
" />
<path d="M12265 38178
L12020 38203
" />
<path d="M12494 38107
L12265 38178
" />
<path d="M12702 37994
L12494 38107
" />
<path d="M12882 37845
L12702 37994
" />
<path d="M13031 37664
L12882 37845
" />
<path d="M13144 37457
L13031 37664
" />
<path d="M13215 37228
L13144 37457
" />
<path d="M13240 36982
L13215 37228
" />
<path d="M8663 36982
L8663 36982
" />
<path d="M8638 36736
L8663 36982
" />
<path d="M8567 36507
L8638 36736
" />
<path d="M8455 36300
L8567 36507
" />
<path d="M8306 36119
L8455 36300
" />
<path d="M8125 35970
L8306 36119
" />
<path d="M7918 35858
L8125 35970
" />
<path d="M7689 35786
L7918 35858
" />
<path d="M7443 35762
L7689 35786
" />
<path d="M7197 35786
L7443 35762
" />
<path d="M6968 35858
L7197 35786
" />
<path d="M6760 35970
L6968 35858
" />
<path d="M6580 36119
L6760 35970
" />
<path d="M6431 36300
L6580 36119
" />
<path d="M6318 36507
L6431 36300
" />
<path d="M6247 36736
L6318 36507
" />
<path d="M6222 36982
L6247 36736
" />
<path d="M6247 37228
L6222 36982
" />
<path d="M6318 37457
L6247 37228
" />
<path d="M6431 37664
L6318 37457
" />
<path d="M6580 37845
L6431 37664
" />
<path d="M6760 37994
L6580 37845
" />
<path d="M6968 38107
L6760 37994
" />
<path d="M7197 38178
L6968 38107
" />
<path d="M7443 38203
L7197 38178
" />
<path d="M7689 38178
L7443 38203
" />
<path d="M7918 38107
L7689 38178
" />
<path d="M8125 37994
L7918 38107
" />
<path d="M8306 37845
L8125 37994
" />
<path d="M8455 37664
L8306 37845
" />
<path d="M8567 37457
L8455 37664
" />
<path d="M8638 37228
L8567 37457
" />
<path d="M8663 36982
L8638 37228
" />
<path d="M4086 36982
L4086 36982
" />
<path d="M4062 36736
L4086 36982
" />
<path d="M3991 36507
L4062 36736
" />
<path d="M3878 36300
L3991 36507
" />
<path d="M3729 36119
L3878 36300
" />
<path d="M3548 35970
L3729 36119
" />
<path d="M3341 35857
L3548 35970
" />
<path d="M3112 35786
L3341 35857
" />
<path d="M2866 35762
L3112 35786
" />
<path d="M2620 35786
L2866 35762
" />
<path d="M2391 35857
L2620 35786
" />
<path d="M2184 35970
L2391 35857
" />
<path d="M2003 36119
L2184 35970
" />
<path d="M1854 36300
L2003 36119
" />
<path d="M1741 36507
L1854 36300
" />
<path d="M1670 36736
L1741 36507
" />
<path d="M1646 36982
L1670 36736
" />
<path d="M1670 37228
L1646 36982
" />
<path d="M1741 37457
L1670 37228
" />
<path d="M1854 37664
L1741 37457
" />
<path d="M2003 37845
L1854 37664
" />
<path d="M2184 37994
L2003 37845
" />
<path d="M2391 38106
L2184 37994
" />
<path d="M2620 38178
L2391 38106
" />
<path d="M2866 38202
L2620 38178
" />
<path d="M3112 38178
L2866 38202
" />
<path d="M3341 38106
L3112 38178
" />
<path d="M3548 37994
L3341 38106
" />
<path d="M3729 37845
L3548 37994
" />
<path d="M3878 37664
L3729 37845
" />
<path d="M3991 37457
L3878 37664
" />
<path d="M4062 37228
L3991 37457
" />
<path d="M4086 36982
L4062 37228
" />
<path d="M13768 18440
L13768 18440
" />
<path d="M13731 18077
L13768 18440
" />
<path d="M13627 17740
L13731 18077
" />
<path d="M13461 17434
L13627 17740
" />
<path d="M13241 17167
L13461 17434
" />
<path d="M12974 16948
L13241 17167
" />
<path d="M12669 16782
L12974 16948
" />
<path d="M12331 16677
L12669 16782
" />
<path d="M11968 16640
L12331 16677
" />
<path d="M11605 16677
L11968 16640
" />
<path d="M11267 16782
L11605 16677
" />
<path d="M10962 16948
L11267 16782
" />
<path d="M10695 17167
L10962 16948
" />
<path d="M10475 17434
L10695 17167
" />
<path d="M10309 17740
L10475 17434
" />
<path d="M10205 18077
L10309 17740
" />
<path d="M10168 18440
L10205 18077
" />
<path d="M10205 18803
L10168 18440
" />
<path d="M10309 19141
L10205 18803
" />
<path d="M10475 19447
L10309 19141
" />
<path d="M10695 19713
L10475 19447
" />
<path d="M10962 19933
L10695 19713
" />
<path d="M11267 20099
L10962 19933
" />
<path d="M11605 20204
L11267 20099
" />
<path d="M11968 20240
L11605 20204
" />
<path d="M12331 20204
L11968 20240
" />
<path d="M12669 20099
L12331 20204
" />
<path d="M12974 19933
L12669 20099
" />
<path d="M13241 19713
L12974 19933
" />
<path d="M13461 19447
L13241 19713
" />
<path d="M13627 19141
L13461 19447
" />
<path d="M13731 18803
L13627 19141
" />
<path d="M13768 18440
L13731 18803
" />
<path d="M20688 9502
L20688 9502
" />
<path d="M20651 9139
L20688 9502
" />
<path d="M20546 8801
L20651 9139
" />
<path d="M20380 8496
L20546 8801
" />
<path d="M20161 8229
L20380 8496
" />
<path d="M19894 8010
L20161 8229
" />
<path d="M19588 7844
L19894 8010
" />
<path d="M19251 7739
L19588 7844
" />
<path d="M18888 7702
L19251 7739
" />
<path d="M18525 7739
L18888 7702
" />
<path d="M18187 7844
L18525 7739
" />
<path d="M17881 8010
L18187 7844
" />
<path d="M17615 8229
L17881 8010
" />
<path d="M17395 8496
L17615 8229
" />
<path d="M17229 8801
L17395 8496
" />
<path d="M17124 9139
L17229 8801
" />
<path d="M17088 9502
L17124 9139
" />
<path d="M17124 9865
L17088 9502
" />
<path d="M17229 10203
L17124 9865
" />
<path d="M17395 10508
L17229 10203
" />
<path d="M17615 10775
L17395 10508
" />
<path d="M17881 10995
L17615 10775
" />
<path d="M18187 11161
L17881 10995
" />
<path d="M18525 11265
L18187 11161
" />
<path d="M18888 11302
L18525 11265
" />
<path d="M19251 11265
L18888 11302
" />
<path d="M19588 11161
L19251 11265
" />
<path d="M19894 10995
L19588 11161
" />
<path d="M20161 10775
L19894 10995
" />
<path d="M20380 10508
L20161 10775
" />
<path d="M20546 10203
L20380 10508
" />
<path d="M20651 9865
L20546 10203
" />
<path d="M20688 9502
L20651 9865
" />
<path d="M6809 9502
L6809 9502
" />
<path d="M6773 9139
L6809 9502
" />
<path d="M6668 8801
L6773 9139
" />
<path d="M6502 8496
L6668 8801
" />
<path d="M6282 8229
L6502 8496
" />
<path d="M6016 8010
L6282 8229
" />
<path d="M5710 7844
L6016 8010
" />
<path d="M5372 7739
L5710 7844
" />
<path d="M5010 7702
L5372 7739
" />
<path d="M4647 7739
L5010 7702
" />
<path d="M4309 7844
L4647 7739
" />
<path d="M4003 8010
L4309 7844
" />
<path d="M3737 8229
L4003 8010
" />
<path d="M3517 8496
L3737 8229
" />
<path d="M3351 8801
L3517 8496
" />
<path d="M3246 9139
L3351 8801
" />
<path d="M3209 9502
L3246 9139
" />
<path d="M3246 9865
L3209 9502
" />
<path d="M3351 10203
L3246 9865
" />
<path d="M3517 10508
L3351 10203
" />
<path d="M3737 10775
L3517 10508
" />
<path d="M4003 10995
L3737 10775
" />
<path d="M4309 11161
L4003 10995
" />
<path d="M4647 11265
L4309 11161
" />
<path d="M5010 11302
L4647 11265
" />
<path d="M5372 11265
L5010 11302
" />
<path d="M5710 11161
L5372 11265
" />
<path d="M6016 10995
L5710 11161
" />
<path d="M6282 10775
L6016 10995
" />
<path d="M6502 10508
L6282 10775
" />
<path d="M6668 10203
L6502 10508
" />
<path d="M6773 9865
L6668 10203
" />
<path d="M6809 9502
L6773 9865
" />
<path d="M20314 1220
L20314 1220
" />
<path d="M20327 1093
L20314 1220
" />
<path d="M20364 975
L20327 1093
" />
<path d="M20422 868
L20364 975
" />
<path d="M20499 775
L20422 868
" />
<path d="M20592 698
L20499 775
" />
<path d="M20699 640
L20592 698
" />
<path d="M20817 603
L20699 640
" />
<path d="M20944 590
L20817 603
" />
<path d="M21071 603
L20944 590
" />
<path d="M21189 640
L21071 603
" />
<path d="M21296 698
L21189 640
" />
<path d="M21390 775
L21296 698
" />
<path d="M21467 868
L21390 775
" />
<path d="M21525 975
L21467 868
" />
<path d="M21561 1093
L21525 975
" />
<path d="M21574 1220
L21561 1093
" />
</g> 
</svg>
