<?xml version="1.0" standalone="no"?>
 <!DOCTYPE svg PUBLIC "-//W3C//DTD SVG 1.1//EN" 
 "http://www.w3.org/Graphics/SVG/1.1/DTD/svg11.dtd"> 
<svg xmlns="http://www.w3.org/2000/svg" version="1.1" 
    width="10.1498cm" height="12.8676cm" viewBox="0 0 39960 50660 ">
<title>SVG Picture created as VoltageBlock_BnG_Panel-brd.svg date 2019/04/30 21:33:56 </title>
  <desc>Picture generated by PCBNEW </desc>
<g style="fill:#000000; fill-opacity:1;stroke:#000000; stroke-opacity:1;
stroke-linecap:round; stroke-linejoin:round; "
 transform="translate(0 0) scale(1 1)">
</g>
<g style="fill:#000000; fill-opacity:0.0; 
stroke:#000000; stroke-width:-0.000393701; stroke-opacity:1; 
stroke-linecap:round; stroke-linejoin:round;">
</g>
<g style="fill:#C25106; fill-opacity:0.0; 
stroke:#C25106; stroke-width:-0.000393701; stroke-opacity:1; 
stroke-linecap:round; stroke-linejoin:round;">
</g>
<g style="fill:#C25106; fill-opacity:0.0; 
stroke:#C25106; stroke-width:78.7402; stroke-opacity:1; 
stroke-linecap:round; stroke-linejoin:round;">
<circle cx="34645.7" cy="41082.7" r="590.551" /> 
<circle cx="5472.44" cy="41082.7" r="590.551" /> 
<circle cx="36988.2" cy="43917.3" r="1870.08" /> 
<circle cx="36988.2" cy="40944.9" r="590.551" /> 
<circle cx="36988.2" cy="37933.1" r="1870.08" /> 
<circle cx="36988.2" cy="34921.3" r="590.551" /> 
<circle cx="32145.7" cy="43917.3" r="1870.08" /> 
<circle cx="32145.7" cy="40944.9" r="590.551" /> 
<circle cx="32145.7" cy="37933.1" r="1870.08" /> 
<circle cx="32145.7" cy="34921.3" r="590.551" /> 
<circle cx="27303.1" cy="43917.3" r="1870.08" /> 
<circle cx="27322.8" cy="40944.9" r="590.551" /> 
<circle cx="27303.1" cy="37933.1" r="1870.08" /> 
<circle cx="27322.8" cy="34921.3" r="590.551" /> 
<circle cx="22421.3" cy="43917.3" r="1870.08" /> 
<circle cx="22440.9" cy="40944.9" r="590.551" /> 
<circle cx="22421.3" cy="37933.1" r="1870.08" /> 
<circle cx="22440.9" cy="34921.3" r="590.551" /> 
<circle cx="17559.1" cy="43917.3" r="1870.08" /> 
<circle cx="17598.4" cy="40944.9" r="590.551" /> 
<circle cx="17559.1" cy="37933.1" r="1870.08" /> 
<circle cx="17598.4" cy="34921.3" r="590.551" /> 
<circle cx="12736.2" cy="43917.3" r="1870.08" /> 
<circle cx="12755.9" cy="40944.9" r="590.551" /> 
<circle cx="12736.2" cy="37933.1" r="1870.08" /> 
<circle cx="12755.9" cy="34921.3" r="590.551" /> 
<circle cx="7893.7" cy="43917.3" r="1870.08" /> 
<circle cx="7933.07" cy="40944.9" r="590.551" /> 
<circle cx="7893.7" cy="37933.1" r="1870.08" /> 
<circle cx="7933.07" cy="34921.3" r="590.551" /> 
<path d="M37480 32598
L37480 21574
" />
<path d="M36574 21574
L36574 32598
" />
<path d="M36574 21574
L37480 21574
" />
<path d="M32598 32598
L32598 21574
" />
<path d="M31692 21574
L31692 32598
" />
<path d="M31692 21574
L32598 21574
" />
<path d="M27755 32598
L27755 21574
" />
<path d="M26850 21574
L26850 32598
" />
<path d="M26850 21574
L27755 21574
" />
<path d="M22874 32598
L22874 21574
" />
<path d="M21968 21574
L21968 32598
" />
<path d="M21968 21574
L22874 21574
" />
<path d="M18070 32598
L18070 21574
" />
<path d="M17165 21574
L17165 32598
" />
<path d="M17165 21574
L18070 21574
" />
<path d="M13228 32598
L13228 21574
" />
<path d="M12322 21574
L12322 32598
" />
<path d="M12322 21574
L13228 21574
" />
<path d="M8346 32598
L8346 21574
" />
<path d="M7440 21574
L7440 32598
" />
<path d="M7440 21574
L8346 21574
" />
<circle cx="3011.81" cy="43917.3" r="1870.08" /> 
<circle cx="3031.5" cy="40944.9" r="590.551" /> 
<circle cx="3051.18" cy="34921.3" r="590.551" /> 
<circle cx="3011.81" cy="37933.1" r="1870.08" /> 
<path d="M37480 32598
L36574 32598
" />
<path d="M32598 32598
L31692 32598
" />
<path d="M27755 32598
L26850 32598
" />
<path d="M22874 32598
L21968 32598
" />
<path d="M18070 32598
L17165 32598
" />
<path d="M13228 32598
L12322 32598
" />
<path d="M8346 32598
L7440 32598
" />
<path d="M3503 32598
L3503 21574
" />
<path d="M3503 32598
L2598 32598
" />
<path d="M2598 21574
L2598 32598
" />
<path d="M2598 21574
L3503 21574
" />
<circle cx="36968.5" cy="17716.5" r="1574.8" /> 
<circle cx="32126" cy="17716.5" r="1574.8" /> 
<circle cx="27322.8" cy="17716.5" r="1574.8" /> 
<circle cx="36968.5" cy="12716.5" r="1574.8" /> 
<circle cx="32126" cy="12716.5" r="1574.8" /> 
<circle cx="27322.8" cy="12716.5" r="1574.8" /> 
<circle cx="22440.9" cy="15196.9" r="1377.95" /> 
<circle cx="17598.4" cy="15196.9" r="1377.95" /> 
<circle cx="12755.9" cy="15196.9" r="1377.95" /> 
<path d="M5891 13444
L7466 13444
" />
<path d="M7466 13444
L7466 16987
" />
<path d="M5891 16987
L5891 13444
" />
<path d="M7466 16987
L5891 16987
" />
<circle cx="3011.81" cy="17696.9" r="1240.16" /> 
<circle cx="3011.81" cy="12696.9" r="1240.16" /> 
<circle cx="36988.2" cy="9704.72" r="590.551" /> 
<circle cx="32126" cy="9704.72" r="590.551" /> 
<circle cx="27303.1" cy="9704.72" r="590.551" /> 
<circle cx="22421.3" cy="9704.72" r="590.551" /> 
<circle cx="17578.7" cy="9704.72" r="590.551" /> 
<circle cx="12696.9" cy="9704.72" r="590.551" /> 
<circle cx="7854.33" cy="9704.72" r="590.551" /> 
<circle cx="3011.81" cy="9704.72" r="590.551" /> 
<circle cx="36988.2" cy="6515.75" r="1240.16" /> 
<circle cx="32106.3" cy="6515.75" r="1240.16" /> 
<circle cx="27303.1" cy="6515.75" r="1240.16" /> 
<circle cx="22401.6" cy="6515.75" r="1240.16" /> 
<circle cx="17559.1" cy="6515.75" r="1240.16" /> 
<circle cx="12677.2" cy="6515.75" r="1240.16" /> 
<circle cx="7834.65" cy="6515.75" r="1240.16" /> 
<circle cx="2992.13" cy="6515.75" r="1240.16" /> 
<circle cx="2992.13" cy="49448.8" r="631.15" /> 
<circle cx="37047.2" cy="49448.8" r="631.15" /> 
<circle cx="37007.9" cy="1220.47" r="631.15" /> 
<circle cx="2992.13" cy="1220.47" r="631.15" /> 
<path d="M39 50629
L39 39
" />
<path d="M39921 50629
L39 50629
" />
<path d="M39921 39
L39921 50629
" />
<path d="M39 39
L39921 39
" />
</g> 
</svg>
